STARTFONT 2.1
COMMENT
COMMENT Converted from OpenType font "JF-Dot-ShinonomeMin12B.ttf" by "otf2bdf 3.0".
COMMENT
FONT -FreeType-JF Dot Shinonome Mincho 12-Bold-R-Normal--12-90-100-100-P-129-ISO10646-1
SIZE 9 100 100
FONTBOUNDINGBOX 13 13 0 -2
STARTPROPERTIES 19
FOUNDRY "FreeType"
FAMILY_NAME "JF Dot Shinonome Mincho 12"
WEIGHT_NAME "Bold"
SLANT "R"
SETWIDTH_NAME "Normal"
ADD_STYLE_NAME ""
PIXEL_SIZE 12
POINT_SIZE 90
RESOLUTION_X 100
RESOLUTION_Y 100
SPACING "P"
AVERAGE_WIDTH 129
CHARSET_REGISTRY "ISO10646"
CHARSET_ENCODING "1"
FONT_ASCENT 11
FONT_DESCENT 1
COPYRIGHT "-FreeType-JF Dot Shinonome Mincho 12-Bold-R-Normal--12-90-100-100-P-129-ISO10646-1"
_OTF_FONTFILE "JF-Dot-ShinonomeMin12B.ttf"
_OTF_PSNAME "JF-Dot-ShinonomeMin-12-Bold"
ENDPROPERTIES
CHARS 7146
STARTCHAR 0020
ENCODING 32
SWIDTH 560 0
DWIDTH 7 0
BBX 0 0 0 0
BITMAP
ENDCHAR
STARTCHAR 0021
ENCODING 33
SWIDTH 560 0
DWIDTH 7 0
BBX 2 10 2 0
BITMAP
C0
C0
C0
C0
C0
C0
C0
C0
00
C0
ENDCHAR
STARTCHAR 0022
ENCODING 34
SWIDTH 560 0
DWIDTH 7 0
BBX 4 3 1 7
BITMAP
D0
D0
D0
ENDCHAR
STARTCHAR 0023
ENCODING 35
SWIDTH 560 0
DWIDTH 7 0
BBX 7 10 0 0
BITMAP
68
68
FE
68
68
68
FE
E8
68
68
ENDCHAR
STARTCHAR 0024
ENCODING 36
SWIDTH 560 0
DWIDTH 7 0
BBX 7 11 0 -1
BITMAP
30
78
D6
D6
70
38
36
56
D6
78
30
ENDCHAR
STARTCHAR 0025
ENCODING 37
SWIDTH 560 0
DWIDTH 7 0
BBX 7 11 0 -1
BITMAP
6E
D6
68
18
30
30
68
76
76
D8
C0
ENDCHAR
STARTCHAR 0026
ENCODING 38
SWIDTH 560 0
DWIDTH 7 0
BBX 7 10 0 0
BITMAP
70
D8
D8
70
60
D6
D8
D8
D8
76
ENDCHAR
STARTCHAR 0027
ENCODING 39
SWIDTH 560 0
DWIDTH 7 0
BBX 3 3 2 7
BITMAP
E0
60
C0
ENDCHAR
STARTCHAR 0028
ENCODING 40
SWIDTH 560 0
DWIDTH 7 0
BBX 5 11 2 -1
BITMAP
38
60
60
C0
C0
C0
C0
E0
60
60
38
ENDCHAR
STARTCHAR 0029
ENCODING 41
SWIDTH 560 0
DWIDTH 7 0
BBX 4 11 0 -1
BITMAP
C0
60
60
30
30
30
30
20
60
60
C0
ENDCHAR
STARTCHAR 002A
ENCODING 42
SWIDTH 560 0
DWIDTH 7 0
BBX 7 6 0 2
BITMAP
30
D6
78
D6
30
30
ENDCHAR
STARTCHAR 002B
ENCODING 43
SWIDTH 560 0
DWIDTH 7 0
BBX 7 6 0 2
BITMAP
30
30
FE
30
30
30
ENDCHAR
STARTCHAR 002C
ENCODING 44
SWIDTH 560 0
DWIDTH 7 0
BBX 3 4 1 -1
BITMAP
60
60
60
C0
ENDCHAR
STARTCHAR 002D
ENCODING 45
SWIDTH 560 0
DWIDTH 7 0
BBX 7 1 0 5
BITMAP
FE
ENDCHAR
STARTCHAR 002E
ENCODING 46
SWIDTH 560 0
DWIDTH 7 0
BBX 2 2 2 1
BITMAP
C0
C0
ENDCHAR
STARTCHAR 002F
ENCODING 47
SWIDTH 560 0
DWIDTH 7 0
BBX 7 11 0 -1
BITMAP
0E
0E
18
18
30
30
60
60
60
C0
C0
ENDCHAR
STARTCHAR 0030
ENCODING 48
SWIDTH 560 0
DWIDTH 7 0
BBX 6 10 1 0
BITMAP
70
DC
DC
DC
DC
DC
DC
DC
DC
70
ENDCHAR
STARTCHAR 0031
ENCODING 49
SWIDTH 560 0
DWIDTH 7 0
BBX 4 10 0 0
BITMAP
30
F0
30
30
30
30
30
30
30
30
ENDCHAR
STARTCHAR 0032
ENCODING 50
SWIDTH 560 0
DWIDTH 7 0
BBX 7 10 0 0
BITMAP
78
CE
CE
0E
18
30
60
40
C0
FE
ENDCHAR
STARTCHAR 0033
ENCODING 51
SWIDTH 560 0
DWIDTH 7 0
BBX 7 10 0 0
BITMAP
78
CE
0E
38
0E
0E
CE
CE
CE
78
ENDCHAR
STARTCHAR 0034
ENCODING 52
SWIDTH 560 0
DWIDTH 7 0
BBX 7 10 0 0
BITMAP
18
38
38
68
68
D8
FE
F8
18
18
ENDCHAR
STARTCHAR 0035
ENCODING 53
SWIDTH 560 0
DWIDTH 7 0
BBX 7 10 0 0
BITMAP
F8
C0
C0
F8
CE
0E
0E
CE
CE
78
ENDCHAR
STARTCHAR 0036
ENCODING 54
SWIDTH 560 0
DWIDTH 7 0
BBX 7 10 0 0
BITMAP
38
60
C0
F8
CE
CE
CE
CE
CE
78
ENDCHAR
STARTCHAR 0037
ENCODING 55
SWIDTH 560 0
DWIDTH 7 0
BBX 7 10 0 0
BITMAP
FE
0E
18
18
18
30
30
30
30
30
ENDCHAR
STARTCHAR 0038
ENCODING 56
SWIDTH 560 0
DWIDTH 7 0
BBX 7 10 0 0
BITMAP
78
CE
CE
78
CE
CE
CE
CE
CE
78
ENDCHAR
STARTCHAR 0039
ENCODING 57
SWIDTH 560 0
DWIDTH 7 0
BBX 7 10 0 0
BITMAP
78
CE
CE
CE
7E
0E
0E
08
18
70
ENDCHAR
STARTCHAR 003A
ENCODING 58
SWIDTH 560 0
DWIDTH 7 0
BBX 2 5 2 2
BITMAP
C0
00
00
C0
C0
ENDCHAR
STARTCHAR 003B
ENCODING 59
SWIDTH 560 0
DWIDTH 7 0
BBX 3 7 1 1
BITMAP
60
00
00
60
60
40
C0
ENDCHAR
STARTCHAR 003C
ENCODING 60
SWIDTH 560 0
DWIDTH 7 0
BBX 6 8 1 1
BITMAP
1C
30
60
C0
60
30
3C
1C
ENDCHAR
STARTCHAR 003D
ENCODING 61
SWIDTH 560 0
DWIDTH 7 0
BBX 7 3 0 4
BITMAP
FE
00
FE
ENDCHAR
STARTCHAR 003E
ENCODING 62
SWIDTH 560 0
DWIDTH 7 0
BBX 6 8 1 1
BITMAP
C0
60
30
1C
30
60
40
C0
ENDCHAR
STARTCHAR 003F
ENCODING 63
SWIDTH 560 0
DWIDTH 7 0
BBX 7 10 0 0
BITMAP
78
CE
CE
18
18
30
30
30
00
30
ENDCHAR
STARTCHAR 0040
ENCODING 64
SWIDTH 560 0
DWIDTH 7 0
BBX 7 10 0 0
BITMAP
78
CE
DE
D6
D6
D6
D8
DE
CE
78
ENDCHAR
STARTCHAR 0041
ENCODING 65
SWIDTH 560 0
DWIDTH 7 0
BBX 7 10 0 0
BITMAP
30
30
68
68
68
FE
CE
CE
CE
CE
ENDCHAR
STARTCHAR 0042
ENCODING 66
SWIDTH 560 0
DWIDTH 7 0
BBX 7 10 0 0
BITMAP
F8
CE
CE
D8
F8
CE
CE
CE
CE
F8
ENDCHAR
STARTCHAR 0043
ENCODING 67
SWIDTH 560 0
DWIDTH 7 0
BBX 7 10 0 0
BITMAP
38
6E
CE
C0
C0
C0
CE
EE
6E
38
ENDCHAR
STARTCHAR 0044
ENCODING 68
SWIDTH 560 0
DWIDTH 7 0
BBX 7 10 0 0
BITMAP
F0
D8
CE
CE
CE
CE
CE
C8
D8
F0
ENDCHAR
STARTCHAR 0045
ENCODING 69
SWIDTH 560 0
DWIDTH 7 0
BBX 7 10 0 0
BITMAP
FE
C0
C0
C0
F8
C0
C0
C0
C0
FE
ENDCHAR
STARTCHAR 0046
ENCODING 70
SWIDTH 560 0
DWIDTH 7 0
BBX 7 10 0 0
BITMAP
FE
C0
C0
C0
F8
C0
C0
C0
C0
C0
ENDCHAR
STARTCHAR 0047
ENCODING 71
SWIDTH 560 0
DWIDTH 7 0
BBX 7 10 0 0
BITMAP
38
6E
C0
C0
DE
CE
CE
EE
6E
3E
ENDCHAR
STARTCHAR 0048
ENCODING 72
SWIDTH 560 0
DWIDTH 7 0
BBX 7 10 0 0
BITMAP
CE
CE
CE
CE
FE
CE
CE
CE
CE
CE
ENDCHAR
STARTCHAR 0049
ENCODING 73
SWIDTH 560 0
DWIDTH 7 0
BBX 4 10 1 0
BITMAP
F0
60
60
60
60
60
60
60
60
F0
ENDCHAR
STARTCHAR 004A
ENCODING 74
SWIDTH 560 0
DWIDTH 7 0
BBX 5 10 0 0
BITMAP
18
18
18
18
18
18
D8
D8
D8
70
ENDCHAR
STARTCHAR 004B
ENCODING 75
SWIDTH 560 0
DWIDTH 7 0
BBX 7 10 0 0
BITMAP
CE
D8
D0
E0
D0
D0
D8
D8
D8
CE
ENDCHAR
STARTCHAR 004C
ENCODING 76
SWIDTH 560 0
DWIDTH 7 0
BBX 7 10 0 0
BITMAP
C0
C0
C0
C0
C0
C0
C0
C0
C0
FE
ENDCHAR
STARTCHAR 004D
ENCODING 77
SWIDTH 560 0
DWIDTH 7 0
BBX 7 10 0 0
BITMAP
CE
CE
EE
EE
EE
D6
D6
D6
D6
CE
ENDCHAR
STARTCHAR 004E
ENCODING 78
SWIDTH 560 0
DWIDTH 7 0
BBX 7 10 0 0
BITMAP
CE
EE
EE
D6
D6
DE
DE
DE
CE
CE
ENDCHAR
STARTCHAR 004F
ENCODING 79
SWIDTH 560 0
DWIDTH 7 0
BBX 7 10 0 0
BITMAP
78
CE
CE
CE
CE
CE
CE
CE
CE
78
ENDCHAR
STARTCHAR 0050
ENCODING 80
SWIDTH 560 0
DWIDTH 7 0
BBX 7 10 0 0
BITMAP
F8
CE
CE
CE
F8
C0
C0
C0
C0
C0
ENDCHAR
STARTCHAR 0051
ENCODING 81
SWIDTH 560 0
DWIDTH 7 0
BBX 7 10 0 0
BITMAP
78
CE
CE
CE
CE
CE
D6
DE
D8
76
ENDCHAR
STARTCHAR 0052
ENCODING 82
SWIDTH 560 0
DWIDTH 7 0
BBX 7 10 0 0
BITMAP
F8
CE
CE
CE
F8
D8
CE
CE
CE
CE
ENDCHAR
STARTCHAR 0053
ENCODING 83
SWIDTH 560 0
DWIDTH 7 0
BBX 7 10 0 0
BITMAP
78
CE
C0
70
18
0E
CE
CE
CE
78
ENDCHAR
STARTCHAR 0054
ENCODING 84
SWIDTH 560 0
DWIDTH 7 0
BBX 7 10 0 0
BITMAP
FE
30
30
30
30
30
30
30
30
30
ENDCHAR
STARTCHAR 0055
ENCODING 85
SWIDTH 560 0
DWIDTH 7 0
BBX 7 10 0 0
BITMAP
CE
CE
CE
CE
CE
CE
CE
CE
CE
78
ENDCHAR
STARTCHAR 0056
ENCODING 86
SWIDTH 560 0
DWIDTH 7 0
BBX 7 10 0 0
BITMAP
CE
CE
CE
CE
68
68
68
78
30
30
ENDCHAR
STARTCHAR 0057
ENCODING 87
SWIDTH 560 0
DWIDTH 7 0
BBX 7 10 0 0
BITMAP
D6
D6
D6
D6
D6
D6
68
68
68
68
ENDCHAR
STARTCHAR 0058
ENCODING 88
SWIDTH 560 0
DWIDTH 7 0
BBX 7 10 0 0
BITMAP
CE
CE
68
68
30
68
68
4E
CE
CE
ENDCHAR
STARTCHAR 0059
ENCODING 89
SWIDTH 560 0
DWIDTH 7 0
BBX 7 10 0 0
BITMAP
CE
CE
68
68
30
30
30
30
30
30
ENDCHAR
STARTCHAR 005A
ENCODING 90
SWIDTH 560 0
DWIDTH 7 0
BBX 7 10 0 0
BITMAP
FE
0E
18
18
30
60
60
40
C0
FE
ENDCHAR
STARTCHAR 005B
ENCODING 91
SWIDTH 560 0
DWIDTH 7 0
BBX 5 12 2 -2
BITMAP
F8
C0
C0
C0
C0
C0
C0
C0
C0
C0
C0
F8
ENDCHAR
STARTCHAR 005C
ENCODING 92
SWIDTH 560 0
DWIDTH 7 0
BBX 7 10 0 0
BITMAP
CE
CE
68
FE
30
FE
30
30
30
30
ENDCHAR
STARTCHAR 005D
ENCODING 93
SWIDTH 560 0
DWIDTH 7 0
BBX 4 12 1 -2
BITMAP
F0
30
30
30
30
30
30
30
30
30
30
F0
ENDCHAR
STARTCHAR 005E
ENCODING 94
SWIDTH 560 0
DWIDTH 7 0
BBX 7 3 0 7
BITMAP
30
68
CE
ENDCHAR
STARTCHAR 005F
ENCODING 95
SWIDTH 560 0
DWIDTH 7 0
BBX 7 1 0 0
BITMAP
FE
ENDCHAR
STARTCHAR 0060
ENCODING 96
SWIDTH 560 0
DWIDTH 7 0
BBX 3 3 2 7
BITMAP
E0
C0
60
ENDCHAR
STARTCHAR 0061
ENCODING 97
SWIDTH 560 0
DWIDTH 7 0
BBX 7 8 0 0
BITMAP
78
CE
1E
76
CE
CE
DE
76
ENDCHAR
STARTCHAR 0062
ENCODING 98
SWIDTH 560 0
DWIDTH 7 0
BBX 7 10 0 0
BITMAP
C0
C0
D8
EE
CE
CE
CE
EE
EE
D8
ENDCHAR
STARTCHAR 0063
ENCODING 99
SWIDTH 560 0
DWIDTH 7 0
BBX 7 8 0 0
BITMAP
78
CE
C0
C0
C0
CE
CE
78
ENDCHAR
STARTCHAR 0064
ENCODING 100
SWIDTH 560 0
DWIDTH 7 0
BBX 7 10 0 0
BITMAP
0E
0E
76
DE
CE
CE
CE
CE
DE
76
ENDCHAR
STARTCHAR 0065
ENCODING 101
SWIDTH 560 0
DWIDTH 7 0
BBX 7 8 0 0
BITMAP
78
CE
CE
FE
C0
CE
CE
78
ENDCHAR
STARTCHAR 0066
ENCODING 102
SWIDTH 560 0
DWIDTH 7 0
BBX 6 10 1 0
BITMAP
3C
60
F0
60
60
60
60
60
60
60
ENDCHAR
STARTCHAR 0067
ENCODING 103
SWIDTH 560 0
DWIDTH 7 0
BBX 7 10 0 -2
BITMAP
7E
CE
CE
CE
DE
D6
76
0E
CE
78
ENDCHAR
STARTCHAR 0068
ENCODING 104
SWIDTH 560 0
DWIDTH 7 0
BBX 7 10 0 0
BITMAP
C0
C0
D8
EE
CE
CE
CE
CE
CE
CE
ENDCHAR
STARTCHAR 0069
ENCODING 105
SWIDTH 560 0
DWIDTH 7 0
BBX 2 10 2 0
BITMAP
C0
00
C0
C0
C0
C0
C0
C0
C0
C0
ENDCHAR
STARTCHAR 006A
ENCODING 106
SWIDTH 560 0
DWIDTH 7 0
BBX 3 12 1 -2
BITMAP
60
00
60
60
60
60
60
60
60
60
60
C0
ENDCHAR
STARTCHAR 006B
ENCODING 107
SWIDTH 560 0
DWIDTH 7 0
BBX 7 10 0 0
BITMAP
C0
C0
C0
D8
D0
E0
D0
D8
D8
CE
ENDCHAR
STARTCHAR 006C
ENCODING 108
SWIDTH 560 0
DWIDTH 7 0
BBX 2 10 2 0
BITMAP
C0
C0
C0
C0
C0
C0
C0
C0
C0
C0
ENDCHAR
STARTCHAR 006D
ENCODING 109
SWIDTH 560 0
DWIDTH 7 0
BBX 7 8 0 0
BITMAP
F8
D6
D6
D6
D6
D6
D6
D6
ENDCHAR
STARTCHAR 006E
ENCODING 110
SWIDTH 560 0
DWIDTH 7 0
BBX 7 8 0 0
BITMAP
D8
EE
CE
CE
CE
CE
CE
CE
ENDCHAR
STARTCHAR 006F
ENCODING 111
SWIDTH 560 0
DWIDTH 7 0
BBX 7 8 0 0
BITMAP
78
CE
CE
CE
CE
CE
CE
78
ENDCHAR
STARTCHAR 0070
ENCODING 112
SWIDTH 560 0
DWIDTH 7 0
BBX 7 10 0 -2
BITMAP
D8
EE
CE
CE
CE
EE
EE
D8
C0
C0
ENDCHAR
STARTCHAR 0071
ENCODING 113
SWIDTH 560 0
DWIDTH 7 0
BBX 7 10 0 -2
BITMAP
76
DE
CE
CE
CE
CE
DE
76
0E
0E
ENDCHAR
STARTCHAR 0072
ENCODING 114
SWIDTH 560 0
DWIDTH 7 0
BBX 6 8 1 0
BITMAP
DC
E0
C0
C0
C0
C0
C0
C0
ENDCHAR
STARTCHAR 0073
ENCODING 115
SWIDTH 560 0
DWIDTH 7 0
BBX 7 8 0 0
BITMAP
78
CE
60
38
0E
CE
CE
78
ENDCHAR
STARTCHAR 0074
ENCODING 116
SWIDTH 560 0
DWIDTH 7 0
BBX 5 10 0 0
BITMAP
60
60
F8
60
60
60
60
60
60
70
ENDCHAR
STARTCHAR 0075
ENCODING 117
SWIDTH 560 0
DWIDTH 7 0
BBX 7 8 0 0
BITMAP
CE
CE
CE
CE
CE
CE
DE
76
ENDCHAR
STARTCHAR 0076
ENCODING 118
SWIDTH 560 0
DWIDTH 7 0
BBX 7 8 0 0
BITMAP
CE
CE
CE
68
68
78
30
30
ENDCHAR
STARTCHAR 0077
ENCODING 119
SWIDTH 560 0
DWIDTH 7 0
BBX 7 8 0 0
BITMAP
CE
D6
D6
D6
D6
D6
D6
68
ENDCHAR
STARTCHAR 0078
ENCODING 120
SWIDTH 560 0
DWIDTH 7 0
BBX 7 8 0 0
BITMAP
CE
68
68
30
68
68
68
CE
ENDCHAR
STARTCHAR 0079
ENCODING 121
SWIDTH 560 0
DWIDTH 7 0
BBX 7 10 0 -2
BITMAP
CE
CE
6E
68
68
78
30
30
60
C0
ENDCHAR
STARTCHAR 007A
ENCODING 122
SWIDTH 560 0
DWIDTH 7 0
BBX 7 8 0 0
BITMAP
FE
18
18
30
60
60
60
FE
ENDCHAR
STARTCHAR 007B
ENCODING 123
SWIDTH 560 0
DWIDTH 7 0
BBX 5 12 2 -2
BITMAP
38
60
60
60
60
C0
60
60
60
60
60
38
ENDCHAR
STARTCHAR 007C
ENCODING 124
SWIDTH 560 0
DWIDTH 7 0
BBX 2 12 2 -2
BITMAP
C0
C0
C0
C0
C0
C0
C0
C0
C0
C0
C0
C0
ENDCHAR
STARTCHAR 007D
ENCODING 125
SWIDTH 560 0
DWIDTH 7 0
BBX 4 12 1 -2
BITMAP
C0
60
60
60
60
30
60
60
60
60
60
C0
ENDCHAR
STARTCHAR 007E
ENCODING 126
SWIDTH 560 0
DWIDTH 7 0
BBX 7 1 0 10
BITMAP
FE
ENDCHAR
STARTCHAR 00A0
ENCODING 160
SWIDTH 560 0
DWIDTH 7 0
BBX 0 0 0 0
BITMAP
ENDCHAR
STARTCHAR 00A1
ENCODING 161
SWIDTH 560 0
DWIDTH 7 0
BBX 2 10 2 0
BITMAP
C0
00
C0
C0
C0
C0
C0
C0
C0
C0
ENDCHAR
STARTCHAR 00A2
ENCODING 162
SWIDTH 560 0
DWIDTH 7 0
BBX 7 10 0 -1
BITMAP
18
78
DE
D0
D0
D0
FE
EE
78
60
ENDCHAR
STARTCHAR 00A3
ENCODING 163
SWIDTH 560 0
DWIDTH 7 0
BBX 7 11 0 -1
BITMAP
18
36
30
7E
30
30
30
36
76
D6
68
ENDCHAR
STARTCHAR 00A4
ENCODING 164
SWIDTH 560 0
DWIDTH 7 0
BBX 7 6 0 2
BITMAP
CE
78
68
78
CE
CE
ENDCHAR
STARTCHAR 00A5
ENCODING 165
SWIDTH 560 0
DWIDTH 7 0
BBX 7 11 0 -1
BITMAP
C0
C0
60
60
30
30
18
18
18
0E
0E
ENDCHAR
STARTCHAR 00A6
ENCODING 166
SWIDTH 560 0
DWIDTH 7 0
BBX 2 11 2 -1
BITMAP
C0
C0
C0
C0
00
00
C0
C0
C0
C0
C0
ENDCHAR
STARTCHAR 00A7
ENCODING 167
SWIDTH 1040 0
DWIDTH 13 0
BBX 7 13 3 -2
BITMAP
7C
C6
F0
78
7C
DE
F6
7C
7C
3C
1E
C6
7C
ENDCHAR
STARTCHAR 00A8
ENCODING 168
SWIDTH 1040 0
DWIDTH 13 0
BBX 8 2 3 9
BITMAP
F7
F7
ENDCHAR
STARTCHAR 00A9
ENCODING 169
SWIDTH 560 0
DWIDTH 7 0
BBX 7 9 0 1
BITMAP
78
CE
DE
EE
EE
DE
CE
C8
78
ENDCHAR
STARTCHAR 00AA
ENCODING 170
SWIDTH 560 0
DWIDTH 7 0
BBX 5 6 0 4
BITMAP
70
D0
D0
68
00
F8
ENDCHAR
STARTCHAR 00AB
ENCODING 171
SWIDTH 560 0
DWIDTH 7 0
BBX 7 6 0 1
BITMAP
36
68
D0
68
76
36
ENDCHAR
STARTCHAR 00AC
ENCODING 172
SWIDTH 560 0
DWIDTH 7 0
BBX 7 4 0 2
BITMAP
FE
0E
0E
0E
ENDCHAR
STARTCHAR 00AD
ENCODING 173
SWIDTH 560 0
DWIDTH 7 0
BBX 4 1 1 4
BITMAP
F0
ENDCHAR
STARTCHAR 00AE
ENCODING 174
SWIDTH 560 0
DWIDTH 7 0
BBX 7 9 0 1
BITMAP
7E
C6
D8
D6
D8
D6
D6
D6
7E
ENDCHAR
STARTCHAR 00AF
ENCODING 175
SWIDTH 560 0
DWIDTH 7 0
BBX 4 1 1 9
BITMAP
F0
ENDCHAR
STARTCHAR 00B0
ENCODING 176
SWIDTH 1040 0
DWIDTH 13 0
BBX 6 4 1 6
BITMAP
70
DC
DC
70
ENDCHAR
STARTCHAR 00B1
ENCODING 177
SWIDTH 1040 0
DWIDTH 13 0
BBX 11 11 1 -1
BITMAP
0E00
0E00
0E00
0E00
FFE0
0E00
0E00
0E00
0E00
0000
FFE0
ENDCHAR
STARTCHAR 00B2
ENCODING 178
SWIDTH 560 0
DWIDTH 7 0
BBX 4 5 0 6
BITMAP
60
D0
30
60
F0
ENDCHAR
STARTCHAR 00B3
ENCODING 179
SWIDTH 560 0
DWIDTH 7 0
BBX 4 5 0 6
BITMAP
E0
30
E0
30
E0
ENDCHAR
STARTCHAR 00B4
ENCODING 180
SWIDTH 1040 0
DWIDTH 13 0
BBX 5 3 4 8
BITMAP
38
70
E0
ENDCHAR
STARTCHAR 00B5
ENCODING 181
SWIDTH 560 0
DWIDTH 7 0
BBX 7 9 0 -2
BITMAP
6E
6E
6E
6E
68
78
60
60
C0
ENDCHAR
STARTCHAR 00B6
ENCODING 182
SWIDTH 1040 0
DWIDTH 13 0
BBX 7 12 3 -1
BITMAP
7E
FA
FA
FA
7A
3A
3A
3A
3A
3A
3A
3A
ENDCHAR
STARTCHAR 00B7
ENCODING 183
SWIDTH 560 0
DWIDTH 7 0
BBX 3 2 2 4
BITMAP
E0
E0
ENDCHAR
STARTCHAR 00B8
ENCODING 184
SWIDTH 560 0
DWIDTH 7 0
BBX 4 5 1 -2
BITMAP
C0
C0
E0
30
E0
ENDCHAR
STARTCHAR 00B9
ENCODING 185
SWIDTH 560 0
DWIDTH 7 0
BBX 3 5 0 6
BITMAP
60
E0
60
60
60
ENDCHAR
STARTCHAR 00BA
ENCODING 186
SWIDTH 560 0
DWIDTH 7 0
BBX 5 6 0 4
BITMAP
70
D8
D8
70
00
F8
ENDCHAR
STARTCHAR 00BB
ENCODING 187
SWIDTH 560 0
DWIDTH 7 0
BBX 7 6 0 2
BITMAP
D0
68
36
68
D0
D0
ENDCHAR
STARTCHAR 00BC
ENCODING 188
SWIDTH 560 0
DWIDTH 7 0
BBX 7 7 0 4
BITMAP
C0
D8
D0
68
D8
3E
18
ENDCHAR
STARTCHAR 00BD
ENCODING 189
SWIDTH 560 0
DWIDTH 7 0
BBX 7 7 0 4
BITMAP
C0
D8
D0
6E
CE
18
3E
ENDCHAR
STARTCHAR 00BE
ENCODING 190
SWIDTH 560 0
DWIDTH 7 0
BBX 7 9 0 2
BITMAP
E0
30
F0
36
EE
36
3E
0E
0E
ENDCHAR
STARTCHAR 00BF
ENCODING 191
SWIDTH 560 0
DWIDTH 7 0
BBX 7 10 0 0
BITMAP
30
00
30
30
60
60
CE
CE
CE
78
ENDCHAR
STARTCHAR 00C0
ENCODING 192
SWIDTH 560 0
DWIDTH 7 0
BBX 7 11 0 0
BITMAP
30
18
30
30
68
68
CE
FE
CE
CE
CE
ENDCHAR
STARTCHAR 00C1
ENCODING 193
SWIDTH 560 0
DWIDTH 7 0
BBX 7 11 0 0
BITMAP
30
60
30
30
68
68
CE
FE
CE
CE
CE
ENDCHAR
STARTCHAR 00C2
ENCODING 194
SWIDTH 560 0
DWIDTH 7 0
BBX 7 11 0 0
BITMAP
30
68
30
30
68
68
CE
FE
CE
CE
CE
ENDCHAR
STARTCHAR 00C3
ENCODING 195
SWIDTH 560 0
DWIDTH 7 0
BBX 7 11 0 0
BITMAP
68
D0
30
30
68
68
CE
FE
CE
CE
CE
ENDCHAR
STARTCHAR 00C4
ENCODING 196
SWIDTH 560 0
DWIDTH 7 0
BBX 7 11 0 0
BITMAP
68
00
30
30
68
68
CE
FE
CE
CE
CE
ENDCHAR
STARTCHAR 00C5
ENCODING 197
SWIDTH 560 0
DWIDTH 7 0
BBX 7 11 0 0
BITMAP
30
68
30
30
68
68
CE
FE
CE
CE
CE
ENDCHAR
STARTCHAR 00C6
ENCODING 198
SWIDTH 560 0
DWIDTH 7 0
BBX 7 10 0 0
BITMAP
7E
70
D0
D0
FE
D0
D0
D0
D0
DE
ENDCHAR
STARTCHAR 00C7
ENCODING 199
SWIDTH 560 0
DWIDTH 7 0
BBX 7 11 0 -1
BITMAP
38
6E
C0
C0
C0
C0
6E
68
38
18
70
ENDCHAR
STARTCHAR 00C8
ENCODING 200
SWIDTH 560 0
DWIDTH 7 0
BBX 7 11 0 0
BITMAP
60
30
FE
C0
C0
F8
C0
C0
C0
C0
FE
ENDCHAR
STARTCHAR 00C9
ENCODING 201
SWIDTH 560 0
DWIDTH 7 0
BBX 7 11 0 0
BITMAP
18
30
FE
C0
C0
F8
C0
C0
C0
C0
FE
ENDCHAR
STARTCHAR 00CA
ENCODING 202
SWIDTH 560 0
DWIDTH 7 0
BBX 7 11 0 0
BITMAP
30
68
FE
C0
C0
F8
C0
C0
C0
C0
FE
ENDCHAR
STARTCHAR 00CB
ENCODING 203
SWIDTH 560 0
DWIDTH 7 0
BBX 7 11 0 0
BITMAP
68
00
FE
C0
C0
F8
C0
C0
C0
C0
FE
ENDCHAR
STARTCHAR 00CC
ENCODING 204
SWIDTH 560 0
DWIDTH 7 0
BBX 4 11 1 0
BITMAP
C0
60
F0
60
60
60
60
60
60
60
F0
ENDCHAR
STARTCHAR 00CD
ENCODING 205
SWIDTH 560 0
DWIDTH 7 0
BBX 4 11 1 0
BITMAP
30
60
F0
60
60
60
60
60
60
60
F0
ENDCHAR
STARTCHAR 00CE
ENCODING 206
SWIDTH 560 0
DWIDTH 7 0
BBX 4 11 1 0
BITMAP
60
D0
00
F0
60
60
60
60
60
60
F0
ENDCHAR
STARTCHAR 00CF
ENCODING 207
SWIDTH 560 0
DWIDTH 7 0
BBX 4 11 1 0
BITMAP
D0
00
F0
60
60
60
60
60
60
60
F0
ENDCHAR
STARTCHAR 00D0
ENCODING 208
SWIDTH 560 0
DWIDTH 7 0
BBX 7 10 0 0
BITMAP
F0
D8
CE
CE
EE
CE
CE
C8
D8
F0
ENDCHAR
STARTCHAR 00D1
ENCODING 209
SWIDTH 560 0
DWIDTH 7 0
BBX 7 11 0 0
BITMAP
68
D0
CE
EE
D6
D6
DE
DE
DE
CE
CE
ENDCHAR
STARTCHAR 00D2
ENCODING 210
SWIDTH 560 0
DWIDTH 7 0
BBX 7 11 0 0
BITMAP
60
30
78
CE
CE
CE
CE
CE
CE
CE
78
ENDCHAR
STARTCHAR 00D3
ENCODING 211
SWIDTH 560 0
DWIDTH 7 0
BBX 7 11 0 0
BITMAP
18
30
78
CE
CE
CE
CE
CE
CE
CE
78
ENDCHAR
STARTCHAR 00D4
ENCODING 212
SWIDTH 560 0
DWIDTH 7 0
BBX 7 11 0 0
BITMAP
30
68
78
CE
CE
CE
CE
CE
CE
CE
78
ENDCHAR
STARTCHAR 00D5
ENCODING 213
SWIDTH 560 0
DWIDTH 7 0
BBX 7 11 0 0
BITMAP
36
68
78
CE
CE
CE
CE
CE
CE
CE
78
ENDCHAR
STARTCHAR 00D6
ENCODING 214
SWIDTH 560 0
DWIDTH 7 0
BBX 7 11 0 0
BITMAP
68
00
78
CE
CE
CE
CE
CE
CE
CE
78
ENDCHAR
STARTCHAR 00D7
ENCODING 215
SWIDTH 1040 0
DWIDTH 13 0
BBX 10 9 2 0
BITMAP
C0C0
6180
3B00
1E00
1E00
3B00
2380
6180
C0C0
ENDCHAR
STARTCHAR 00D8
ENCODING 216
SWIDTH 560 0
DWIDTH 7 0
BBX 7 10 0 0
BITMAP
38
6E
6E
6E
76
76
6E
6E
EE
D8
ENDCHAR
STARTCHAR 00D9
ENCODING 217
SWIDTH 560 0
DWIDTH 7 0
BBX 7 11 0 0
BITMAP
60
30
CE
CE
CE
CE
CE
CE
CE
CE
78
ENDCHAR
STARTCHAR 00DA
ENCODING 218
SWIDTH 560 0
DWIDTH 7 0
BBX 7 11 0 0
BITMAP
18
30
CE
CE
CE
CE
CE
CE
CE
CE
78
ENDCHAR
STARTCHAR 00DB
ENCODING 219
SWIDTH 560 0
DWIDTH 7 0
BBX 7 11 0 0
BITMAP
30
68
00
CE
CE
CE
CE
CE
CE
CE
78
ENDCHAR
STARTCHAR 00DC
ENCODING 220
SWIDTH 560 0
DWIDTH 7 0
BBX 7 11 0 0
BITMAP
68
D0
00
CE
CE
CE
CE
CE
CE
CE
78
ENDCHAR
STARTCHAR 00DD
ENCODING 221
SWIDTH 560 0
DWIDTH 7 0
BBX 7 11 0 0
BITMAP
18
30
CE
CE
68
68
30
30
30
30
30
ENDCHAR
STARTCHAR 00DE
ENCODING 222
SWIDTH 560 0
DWIDTH 7 0
BBX 6 11 1 -1
BITMAP
C0
C0
F0
DC
DC
DC
DC
D0
F0
C0
C0
ENDCHAR
STARTCHAR 00DF
ENCODING 223
SWIDTH 560 0
DWIDTH 7 0
BBX 6 12 1 -2
BITMAP
70
DC
DC
DC
F0
DC
DC
DC
DC
D0
C0
C0
ENDCHAR
STARTCHAR 00E0
ENCODING 224
SWIDTH 560 0
DWIDTH 7 0
BBX 7 11 0 0
BITMAP
60
30
00
78
CE
1E
76
CE
CE
DE
76
ENDCHAR
STARTCHAR 00E1
ENCODING 225
SWIDTH 560 0
DWIDTH 7 0
BBX 7 11 0 0
BITMAP
18
30
00
78
CE
1E
76
CE
CE
DE
76
ENDCHAR
STARTCHAR 00E2
ENCODING 226
SWIDTH 560 0
DWIDTH 7 0
BBX 7 11 0 0
BITMAP
30
68
00
78
CE
1E
76
CE
CE
DE
76
ENDCHAR
STARTCHAR 00E3
ENCODING 227
SWIDTH 560 0
DWIDTH 7 0
BBX 7 11 0 0
BITMAP
68
D0
00
78
CE
1E
76
CE
CE
DE
76
ENDCHAR
STARTCHAR 00E4
ENCODING 228
SWIDTH 560 0
DWIDTH 7 0
BBX 7 10 0 0
BITMAP
68
00
78
CE
1E
76
CE
CE
DE
76
ENDCHAR
STARTCHAR 00E5
ENCODING 229
SWIDTH 560 0
DWIDTH 7 0
BBX 7 11 0 0
BITMAP
30
68
30
78
CE
1E
76
CE
CE
DE
76
ENDCHAR
STARTCHAR 00E6
ENCODING 230
SWIDTH 560 0
DWIDTH 7 0
BBX 7 8 0 0
BITMAP
68
D6
36
7E
D0
D6
D6
78
ENDCHAR
STARTCHAR 00E7
ENCODING 231
SWIDTH 560 0
DWIDTH 7 0
BBX 7 9 0 -1
BITMAP
78
CE
C0
C0
CE
C8
78
18
70
ENDCHAR
STARTCHAR 00E8
ENCODING 232
SWIDTH 560 0
DWIDTH 7 0
BBX 7 11 0 0
BITMAP
60
30
00
78
CE
CE
FE
C0
CE
CE
78
ENDCHAR
STARTCHAR 00E9
ENCODING 233
SWIDTH 560 0
DWIDTH 7 0
BBX 7 11 0 0
BITMAP
18
30
00
78
CE
CE
FE
C0
CE
CE
78
ENDCHAR
STARTCHAR 00EA
ENCODING 234
SWIDTH 560 0
DWIDTH 7 0
BBX 7 11 0 0
BITMAP
30
68
00
78
CE
CE
FE
C0
CE
CE
78
ENDCHAR
STARTCHAR 00EB
ENCODING 235
SWIDTH 560 0
DWIDTH 7 0
BBX 7 10 0 0
BITMAP
68
00
78
CE
CE
FE
C0
CE
CE
78
ENDCHAR
STARTCHAR 00EC
ENCODING 236
SWIDTH 560 0
DWIDTH 7 0
BBX 3 11 1 0
BITMAP
C0
60
00
00
60
60
60
60
60
60
60
ENDCHAR
STARTCHAR 00ED
ENCODING 237
SWIDTH 560 0
DWIDTH 7 0
BBX 3 11 2 0
BITMAP
60
C0
00
00
C0
C0
C0
C0
C0
C0
C0
ENDCHAR
STARTCHAR 00EE
ENCODING 238
SWIDTH 560 0
DWIDTH 7 0
BBX 4 11 1 0
BITMAP
60
D0
00
00
60
60
60
60
60
60
60
ENDCHAR
STARTCHAR 00EF
ENCODING 239
SWIDTH 560 0
DWIDTH 7 0
BBX 4 10 1 0
BITMAP
D0
00
00
60
60
60
60
60
60
60
ENDCHAR
STARTCHAR 00F0
ENCODING 240
SWIDTH 560 0
DWIDTH 7 0
BBX 7 11 0 0
BITMAP
D0
60
D0
18
78
CE
CE
CE
CE
CE
78
ENDCHAR
STARTCHAR 00F1
ENCODING 241
SWIDTH 560 0
DWIDTH 7 0
BBX 7 11 0 0
BITMAP
68
D0
00
00
D8
EE
CE
CE
CE
CE
CE
ENDCHAR
STARTCHAR 00F2
ENCODING 242
SWIDTH 560 0
DWIDTH 7 0
BBX 7 11 0 0
BITMAP
60
30
00
78
CE
CE
CE
CE
CE
CE
78
ENDCHAR
STARTCHAR 00F3
ENCODING 243
SWIDTH 560 0
DWIDTH 7 0
BBX 7 11 0 0
BITMAP
18
30
00
78
CE
CE
CE
CE
CE
CE
78
ENDCHAR
STARTCHAR 00F4
ENCODING 244
SWIDTH 560 0
DWIDTH 7 0
BBX 7 11 0 0
BITMAP
30
68
00
78
CE
CE
CE
CE
CE
CE
78
ENDCHAR
STARTCHAR 00F5
ENCODING 245
SWIDTH 560 0
DWIDTH 7 0
BBX 7 11 0 0
BITMAP
68
D0
00
78
CE
CE
CE
CE
CE
CE
78
ENDCHAR
STARTCHAR 00F6
ENCODING 246
SWIDTH 560 0
DWIDTH 7 0
BBX 7 10 0 0
BITMAP
68
00
78
CE
CE
CE
CE
CE
CE
78
ENDCHAR
STARTCHAR 00F7
ENCODING 247
SWIDTH 1040 0
DWIDTH 13 0
BBX 11 10 1 -1
BITMAP
1E00
1E00
0000
0000
FFE0
0000
0000
0000
1E00
1E00
ENDCHAR
STARTCHAR 00F8
ENCODING 248
SWIDTH 560 0
DWIDTH 7 0
BBX 7 8 0 0
BITMAP
38
6E
6E
76
6E
6E
EE
38
ENDCHAR
STARTCHAR 00F9
ENCODING 249
SWIDTH 560 0
DWIDTH 7 0
BBX 7 11 0 0
BITMAP
60
30
00
CE
CE
CE
CE
CE
CE
DE
76
ENDCHAR
STARTCHAR 00FA
ENCODING 250
SWIDTH 560 0
DWIDTH 7 0
BBX 7 11 0 0
BITMAP
18
30
00
CE
CE
CE
CE
CE
CE
DE
76
ENDCHAR
STARTCHAR 00FB
ENCODING 251
SWIDTH 560 0
DWIDTH 7 0
BBX 7 11 0 0
BITMAP
30
68
00
CE
CE
CE
CE
CE
CE
DE
76
ENDCHAR
STARTCHAR 00FC
ENCODING 252
SWIDTH 560 0
DWIDTH 7 0
BBX 7 10 0 0
BITMAP
68
00
CE
CE
CE
CE
CE
CE
DE
76
ENDCHAR
STARTCHAR 00FD
ENCODING 253
SWIDTH 560 0
DWIDTH 7 0
BBX 7 13 0 -2
BITMAP
18
30
00
CE
CE
6E
68
68
78
30
30
60
C0
ENDCHAR
STARTCHAR 00FE
ENCODING 254
SWIDTH 560 0
DWIDTH 7 0
BBX 6 11 1 -2
BITMAP
C0
C0
F0
DC
DC
DC
DC
DC
F0
C0
C0
ENDCHAR
STARTCHAR 00FF
ENCODING 255
SWIDTH 560 0
DWIDTH 7 0
BBX 7 12 0 -2
BITMAP
68
00
CE
CE
6E
68
68
78
30
30
60
C0
ENDCHAR
STARTCHAR 0391
ENCODING 913
SWIDTH 1040 0
DWIDTH 13 0
BBX 11 11 1 -1
BITMAP
0E00
0E00
1D00
1D00
3180
3180
3F80
20C0
60C0
60C0
F1E0
ENDCHAR
STARTCHAR 0392
ENCODING 914
SWIDTH 1040 0
DWIDTH 13 0
BBX 9 11 2 -1
BITMAP
FE00
6300
6180
6300
7E00
6300
6180
6180
6180
6300
FE00
ENDCHAR
STARTCHAR 0393
ENCODING 915
SWIDTH 1040 0
DWIDTH 13 0
BBX 9 11 2 -1
BITMAP
FF00
6300
6180
6000
6000
6000
6000
6000
6000
6000
F800
ENDCHAR
STARTCHAR 0394
ENCODING 916
SWIDTH 1040 0
DWIDTH 13 0
BBX 11 11 1 -1
BITMAP
0E00
0E00
0E00
1D00
1D00
3180
3180
21C0
60C0
60C0
FFE0
ENDCHAR
STARTCHAR 0395
ENCODING 917
SWIDTH 1040 0
DWIDTH 13 0
BBX 10 11 2 -1
BITMAP
FF80
60C0
6000
6300
7F00
6300
6000
60C0
60C0
60C0
FF80
ENDCHAR
STARTCHAR 0396
ENCODING 918
SWIDTH 1040 0
DWIDTH 13 0
BBX 11 11 1 -1
BITMAP
7FE0
60C0
C180
0700
0E00
0E00
1C00
1060
3060
6060
FFE0
ENDCHAR
STARTCHAR 0397
ENCODING 919
SWIDTH 1040 0
DWIDTH 13 0
BBX 11 11 1 -1
BITMAP
F1E0
60C0
60C0
60C0
7FC0
60C0
60C0
60C0
60C0
60C0
F1E0
ENDCHAR
STARTCHAR 0398
ENCODING 920
SWIDTH 1040 0
DWIDTH 13 0
BBX 11 11 1 -1
BITMAP
1F00
3180
60C0
D1A0
DFA0
D1A0
C060
E040
60C0
3180
1F00
ENDCHAR
STARTCHAR 0399
ENCODING 921
SWIDTH 1040 0
DWIDTH 13 0
BBX 5 11 4 -1
BITMAP
F8
70
70
70
70
70
70
70
70
70
F8
ENDCHAR
STARTCHAR 039A
ENCODING 922
SWIDTH 1040 0
DWIDTH 13 0
BBX 10 11 2 -1
BITMAP
FB80
6300
6E00
6C00
7800
6C00
6E00
6F00
6300
6180
FBC0
ENDCHAR
STARTCHAR 039B
ENCODING 923
SWIDTH 1040 0
DWIDTH 13 0
BBX 11 11 1 -1
BITMAP
0E00
0E00
1D00
1D00
3180
3180
3180
21C0
60C0
60C0
F1E0
ENDCHAR
STARTCHAR 039C
ENCODING 924
SWIDTH 1040 0
DWIDTH 13 0
BBX 13 11 0 -1
BITMAP
E038
6030
7070
7070
68D0
68D0
6EB0
6EB0
6EB0
6730
F778
ENDCHAR
STARTCHAR 039D
ENCODING 925
SWIDTH 1040 0
DWIDTH 13 0
BBX 10 11 2 -1
BITMAP
E3C0
7980
6D80
6D80
6E80
6E80
6380
6380
6380
6180
F980
ENDCHAR
STARTCHAR 039E
ENCODING 926
SWIDTH 1040 0
DWIDTH 13 0
BBX 10 11 2 -1
BITMAP
FFC0
C0C0
0000
6180
7F80
6180
0000
0000
0000
C0C0
FFC0
ENDCHAR
STARTCHAR 039F
ENCODING 927
SWIDTH 1040 0
DWIDTH 13 0
BBX 11 11 1 -1
BITMAP
1F00
3180
60C0
C060
C060
C060
C060
E040
60C0
3180
1F00
ENDCHAR
STARTCHAR 03A0
ENCODING 928
SWIDTH 1040 0
DWIDTH 13 0
BBX 11 11 1 -1
BITMAP
FFE0
60C0
60C0
60C0
60C0
60C0
60C0
60C0
60C0
60C0
F1E0
ENDCHAR
STARTCHAR 03A1
ENCODING 929
SWIDTH 1040 0
DWIDTH 13 0
BBX 9 11 2 -1
BITMAP
FE00
6300
6180
6180
6300
7E00
6000
6000
6000
6000
F800
ENDCHAR
STARTCHAR 03A3
ENCODING 931
SWIDTH 1040 0
DWIDTH 13 0
BBX 11 11 1 -1
BITMAP
FF80
6180
30C0
1C00
0E00
0E00
1C00
1060
3060
6060
FFC0
ENDCHAR
STARTCHAR 03A4
ENCODING 932
SWIDTH 1040 0
DWIDTH 13 0
BBX 11 11 1 -1
BITMAP
FFE0
CE60
CE60
0E00
0E00
0E00
0E00
0E00
0E00
0E00
1F00
ENDCHAR
STARTCHAR 03A5
ENCODING 933
SWIDTH 1040 0
DWIDTH 13 0
BBX 11 11 1 -1
BITMAP
7DC0
CE60
CE60
0E00
0E00
0E00
0E00
0E00
0E00
0E00
1F00
ENDCHAR
STARTCHAR 03A6
ENCODING 934
SWIDTH 1040 0
DWIDTH 13 0
BBX 9 11 2 -1
BITMAP
3E00
1C00
7F00
DD80
DD80
DD80
7F00
7C00
1C00
1C00
3E00
ENDCHAR
STARTCHAR 03A7
ENCODING 935
SWIDTH 1040 0
DWIDTH 13 0
BBX 11 11 1 -1
BITMAP
F1E0
60C0
3180
1D00
0E00
0E00
1D00
1180
3180
60C0
F1E0
ENDCHAR
STARTCHAR 03A8
ENCODING 936
SWIDTH 1040 0
DWIDTH 13 0
BBX 11 11 1 -1
BITMAP
1F00
CE60
6EC0
6EC0
6EC0
3680
1F00
1E00
0E00
0E00
1F00
ENDCHAR
STARTCHAR 03A9
ENCODING 937
SWIDTH 1040 0
DWIDTH 13 0
BBX 11 11 1 -1
BITMAP
1F00
3180
60C0
60C0
60C0
60C0
3180
5D60
DD60
DD60
FDE0
ENDCHAR
STARTCHAR 03B1
ENCODING 945
SWIDTH 1040 0
DWIDTH 13 0
BBX 9 8 2 -1
BITMAP
3D80
6E80
CF00
CE00
CC00
DC00
DE00
7B80
ENDCHAR
STARTCHAR 03B2
ENCODING 946
SWIDTH 1040 0
DWIDTH 13 0
BBX 10 12 1 -2
BITMAP
0780
0EC0
0EC0
1D80
1D00
3180
3180
3100
7700
6E00
C000
C000
ENDCHAR
STARTCHAR 03B3
ENCODING 947
SWIDTH 1040 0
DWIDTH 13 0
BBX 10 9 2 -1
BITMAP
79C0
DD00
0E00
1C00
1C00
1800
3800
3800
6000
ENDCHAR
STARTCHAR 03B4
ENCODING 948
SWIDTH 1040 0
DWIDTH 13 0
BBX 9 11 2 -1
BITMAP
1E00
3B80
1C00
0E00
1E00
3B00
6300
4300
C300
CE00
7C00
ENDCHAR
STARTCHAR 03B5
ENCODING 949
SWIDTH 1040 0
DWIDTH 13 0
BBX 8 9 2 -1
BITMAP
3E
63
60
3C
60
43
C3
CE
7C
ENDCHAR
STARTCHAR 03B6
ENCODING 950
SWIDTH 1040 0
DWIDTH 13 0
BBX 9 12 2 -2
BITMAP
3800
3B80
1F00
1C00
3800
6000
6000
6000
6000
3C00
CE00
7C00
ENDCHAR
STARTCHAR 03B7
ENCODING 951
SWIDTH 1040 0
DWIDTH 13 0
BBX 9 9 2 -2
BITMAP
6F00
DD80
3980
6300
6300
6300
CE00
0E00
0E00
ENDCHAR
STARTCHAR 03B8
ENCODING 952
SWIDTH 1040 0
DWIDTH 13 0
BBX 9 11 2 -1
BITMAP
0F00
1D80
3980
6180
7F80
C300
C300
C200
CE00
DC00
7800
ENDCHAR
STARTCHAR 03B9
ENCODING 953
SWIDTH 1040 0
DWIDTH 13 0
BBX 8 9 3 -1
BITMAP
1C
38
70
70
C0
C3
C3
DE
78
ENDCHAR
STARTCHAR 03BA
ENCODING 954
SWIDTH 1040 0
DWIDTH 13 0
BBX 10 9 1 -1
BITMAP
30C0
1D80
1D00
3E00
3600
26C0
6EC0
6EC0
C780
ENDCHAR
STARTCHAR 03BB
ENCODING 955
SWIDTH 1040 0
DWIDTH 13 0
BBX 10 10 2 -1
BITMAP
3C00
0E00
0E00
0E00
1E00
3A00
2300
6300
C300
C1C0
ENDCHAR
STARTCHAR 03BC
ENCODING 956
SWIDTH 1040 0
DWIDTH 13 0
BBX 11 10 1 -2
BITMAP
1CC0
1CC0
30C0
3180
6180
7180
7780
6EE0
C000
C000
ENDCHAR
STARTCHAR 03BD
ENCODING 957
SWIDTH 1040 0
DWIDTH 13 0
BBX 9 8 2 -1
BITMAP
6180
3980
3B00
6300
6200
6E00
6C00
F800
ENDCHAR
STARTCHAR 03BE
ENCODING 958
SWIDTH 1040 0
DWIDTH 13 0
BBX 8 12 3 -2
BITMAP
38
1F
38
70
3C
70
C0
FC
7C
06
C6
7C
ENDCHAR
STARTCHAR 03BF
ENCODING 959
SWIDTH 1040 0
DWIDTH 13 0
BBX 8 8 2 -1
BITMAP
3E
63
C3
C3
C3
C3
CE
7C
ENDCHAR
STARTCHAR 03C0
ENCODING 960
SWIDTH 1040 0
DWIDTH 13 0
BBX 11 9 1 -1
BITMAP
0060
3FC0
6D80
1D00
3700
3600
3600
6EC0
C780
ENDCHAR
STARTCHAR 03C1
ENCODING 961
SWIDTH 1040 0
DWIDTH 13 0
BBX 9 10 2 -2
BITMAP
1F00
3980
6180
6180
7B00
6A00
6E00
C000
C000
C000
ENDCHAR
STARTCHAR 03C3
ENCODING 963
SWIDTH 1040 0
DWIDTH 13 0
BBX 10 9 2 -1
BITMAP
00C0
1F80
7A00
C300
C300
C300
C300
6E00
3C00
ENDCHAR
STARTCHAR 03C4
ENCODING 964
SWIDTH 1040 0
DWIDTH 13 0
BBX 9 10 2 -1
BITMAP
0180
7F00
DC00
1C00
3800
3800
2000
6000
6E00
3C00
ENDCHAR
STARTCHAR 03C5
ENCODING 965
SWIDTH 1040 0
DWIDTH 13 0
BBX 10 8 1 -1
BITMAP
6180
D0C0
30C0
3180
2180
6180
6F00
3C00
ENDCHAR
STARTCHAR 03C6
ENCODING 966
SWIDTH 1040 0
DWIDTH 13 0
BBX 10 12 2 -2
BITMAP
0300
0300
0E00
3F00
6E80
CEC0
DCC0
DC80
DD80
7F00
3800
3800
ENDCHAR
STARTCHAR 03C7
ENCODING 967
SWIDTH 1040 0
DWIDTH 13 0
BBX 9 10 2 -1
BITMAP
0180
6180
DB00
DE00
1C00
3C00
2C00
6C00
CE80
C300
ENDCHAR
STARTCHAR 03C8
ENCODING 968
SWIDTH 1040 0
DWIDTH 13 0
BBX 10 12 2 -2
BITMAP
0300
0300
CE80
6EC0
6EC0
DCC0
DD80
DD00
7F00
3800
3800
3800
ENDCHAR
STARTCHAR 03C9
ENCODING 969
SWIDTH 1040 0
DWIDTH 13 0
BBX 11 8 1 -1
BITMAP
30C0
6060
6060
CE60
CE60
CE60
DEC0
7780
ENDCHAR
STARTCHAR 0401
ENCODING 1025
SWIDTH 1040 0
DWIDTH 13 0
BBX 10 12 2 -1
BITMAP
7B80
0000
FF80
60C0
6000
6300
7F00
6300
63C0
60C0
60C0
FF80
ENDCHAR
STARTCHAR 0410
ENCODING 1040
SWIDTH 1040 0
DWIDTH 13 0
BBX 11 11 1 -1
BITMAP
0E00
0E00
1D00
1D00
3180
3180
3F80
20C0
60C0
60C0
F1E0
ENDCHAR
STARTCHAR 0411
ENCODING 1041
SWIDTH 1040 0
DWIDTH 13 0
BBX 9 11 2 -1
BITMAP
FF80
6180
6000
6000
7E00
6300
6180
6180
6180
6300
FE00
ENDCHAR
STARTCHAR 0412
ENCODING 1042
SWIDTH 1040 0
DWIDTH 13 0
BBX 9 11 2 -1
BITMAP
FE00
6300
6180
6300
7E00
6300
6180
6180
6180
6300
FE00
ENDCHAR
STARTCHAR 0413
ENCODING 1043
SWIDTH 1040 0
DWIDTH 13 0
BBX 9 11 2 -1
BITMAP
FF00
6300
6180
6000
6000
6000
6000
6000
6000
6000
F800
ENDCHAR
STARTCHAR 0414
ENCODING 1044
SWIDTH 1040 0
DWIDTH 13 0
BBX 11 12 1 -2
BITMAP
3FE0
1D80
1D80
1D80
1D80
1D80
3180
3180
3180
6180
FFE0
C060
ENDCHAR
STARTCHAR 0415
ENCODING 1045
SWIDTH 1040 0
DWIDTH 13 0
BBX 10 11 2 -1
BITMAP
FF80
60C0
6000
6300
7F00
6300
6000
60C0
60C0
60C0
FF80
ENDCHAR
STARTCHAR 0416
ENCODING 1046
SWIDTH 1040 0
DWIDTH 13 0
BBX 11 11 1 -1
BITMAP
DF60
6EC0
6EC0
3680
1F00
3680
6E80
6EC0
6EC0
6EC0
EF60
ENDCHAR
STARTCHAR 0417
ENCODING 1047
SWIDTH 1040 0
DWIDTH 13 0
BBX 9 11 2 -1
BITMAP
3E00
6300
C300
0300
1E00
0300
0180
C180
C180
E300
DE00
ENDCHAR
STARTCHAR 0418
ENCODING 1048
SWIDTH 1040 0
DWIDTH 13 0
BBX 10 11 2 -1
BITMAP
F9C0
6380
6E80
6E80
6D80
6D80
7980
7980
7980
6180
FBC0
ENDCHAR
STARTCHAR 0419
ENCODING 1049
SWIDTH 1040 0
DWIDTH 13 0
BBX 10 12 2 -1
BITMAP
3B00
1E00
F9C0
6380
6E80
6E80
6D80
7980
7980
7980
6180
FBC0
ENDCHAR
STARTCHAR 041A
ENCODING 1050
SWIDTH 1040 0
DWIDTH 13 0
BBX 10 11 2 -1
BITMAP
F980
6340
6E00
6C00
7800
6C00
6E00
6F00
6300
6180
FBC0
ENDCHAR
STARTCHAR 041B
ENCODING 1051
SWIDTH 1040 0
DWIDTH 13 0
BBX 11 11 1 -1
BITMAP
3FE0
0EC0
0EC0
0EC0
0EC0
1CC0
1CC0
1CC0
1CC0
D0C0
61E0
ENDCHAR
STARTCHAR 041C
ENCODING 1052
SWIDTH 1040 0
DWIDTH 13 0
BBX 13 11 0 -1
BITMAP
7070
3060
38E0
38E0
36A0
36A0
6730
6730
6730
6730
F078
ENDCHAR
STARTCHAR 041D
ENCODING 1053
SWIDTH 1040 0
DWIDTH 13 0
BBX 11 11 1 -1
BITMAP
F1E0
60C0
60C0
60C0
7FC0
60C0
60C0
60C0
60C0
60C0
F1E0
ENDCHAR
STARTCHAR 041E
ENCODING 1054
SWIDTH 1040 0
DWIDTH 13 0
BBX 11 11 1 -1
BITMAP
1F00
3180
60C0
C060
C060
C060
C060
E040
60C0
3180
1F00
ENDCHAR
STARTCHAR 041F
ENCODING 1055
SWIDTH 1040 0
DWIDTH 13 0
BBX 10 11 1 -1
BITMAP
FFC0
6180
6180
6180
6180
6180
6180
6180
6180
6180
F7C0
ENDCHAR
STARTCHAR 0420
ENCODING 1056
SWIDTH 1040 0
DWIDTH 13 0
BBX 9 11 2 -1
BITMAP
FE00
6300
6180
6180
6300
7E00
6000
6000
6000
6000
F800
ENDCHAR
STARTCHAR 0421
ENCODING 1057
SWIDTH 1040 0
DWIDTH 13 0
BBX 10 11 2 -1
BITMAP
1F40
39C0
60C0
C000
C000
C000
C000
E0C0
60C0
3980
1F00
ENDCHAR
STARTCHAR 0422
ENCODING 1058
SWIDTH 1040 0
DWIDTH 13 0
BBX 11 11 1 -1
BITMAP
FFE0
CE60
CE60
0E00
0E00
0E00
0E00
0E00
0E00
0E00
1F00
ENDCHAR
STARTCHAR 0423
ENCODING 1059
SWIDTH 1040 0
DWIDTH 13 0
BBX 11 11 1 -1
BITMAP
F1E0
60C0
3180
3180
1D00
1D00
0E00
0E00
0E00
6E00
3C00
ENDCHAR
STARTCHAR 0424
ENCODING 1060
SWIDTH 1040 0
DWIDTH 13 0
BBX 11 11 1 -1
BITMAP
1F00
0E00
3F80
6EC0
CE60
CE60
6EC0
6E80
3F80
0E00
1F00
ENDCHAR
STARTCHAR 0425
ENCODING 1061
SWIDTH 1040 0
DWIDTH 13 0
BBX 11 11 1 -1
BITMAP
F1E0
60C0
3180
1D00
0E00
0E00
1D00
1180
3180
60C0
F1E0
ENDCHAR
STARTCHAR 0426
ENCODING 1062
SWIDTH 1040 0
DWIDTH 13 0
BBX 11 12 1 -2
BITMAP
F7C0
6180
6180
6180
6180
6180
6180
6180
6180
6180
FFE0
0060
ENDCHAR
STARTCHAR 0427
ENCODING 1063
SWIDTH 1040 0
DWIDTH 13 0
BBX 10 11 1 -1
BITMAP
F7C0
6180
6180
6180
6180
3780
1E80
1E80
0180
0180
07C0
ENDCHAR
STARTCHAR 0428
ENCODING 1064
SWIDTH 1040 0
DWIDTH 13 0
BBX 13 11 0 -1
BITMAP
F7B8
6730
6730
6730
6730
6730
6730
6730
6730
6730
FFF8
ENDCHAR
STARTCHAR 0429
ENCODING 1065
SWIDTH 1040 0
DWIDTH 13 0
BBX 13 12 0 -2
BITMAP
F7B8
6730
6730
6730
6730
6730
6730
6730
6730
6730
FFF8
0008
ENDCHAR
STARTCHAR 042A
ENCODING 1066
SWIDTH 1040 0
DWIDTH 13 0
BBX 11 11 1 -1
BITMAP
7C00
DC00
1C00
1C00
1F80
1CC0
1C60
1C60
1C60
1CC0
3F80
ENDCHAR
STARTCHAR 042B
ENCODING 1067
SWIDTH 1040 0
DWIDTH 13 0
BBX 11 11 1 -1
BITMAP
E1E0
60C0
60C0
60C0
7CC0
6EC0
6740
6740
6740
6EC0
FDE0
ENDCHAR
STARTCHAR 042C
ENCODING 1068
SWIDTH 1040 0
DWIDTH 13 0
BBX 9 11 2 -1
BITMAP
E000
6000
6000
7E00
6300
6180
6180
6180
6180
6300
7E00
ENDCHAR
STARTCHAR 042D
ENCODING 1069
SWIDTH 1040 0
DWIDTH 13 0
BBX 9 11 2 -1
BITMAP
DE00
E300
C180
0180
3D80
6F80
0180
C180
C180
6300
3E00
ENDCHAR
STARTCHAR 042E
ENCODING 1070
SWIDTH 1040 0
DWIDTH 13 0
BBX 12 11 0 -1
BITMAP
F3C0
6760
6E30
6E30
7E30
6E30
6E30
6E30
6E30
6760
F3C0
ENDCHAR
STARTCHAR 042F
ENCODING 1071
SWIDTH 1040 0
DWIDTH 13 0
BBX 11 11 1 -1
BITMAP
1FE0
30C0
60C0
30C0
1FC0
0740
0EC0
0CC0
1CC0
30C0
F1E0
ENDCHAR
STARTCHAR 0430
ENCODING 1072
SWIDTH 1040 0
DWIDTH 13 0
BBX 8 8 3 -1
BITMAP
3C
76
3E
76
46
C6
DC
7B
ENDCHAR
STARTCHAR 0431
ENCODING 1073
SWIDTH 1040 0
DWIDTH 13 0
BBX 8 11 2 -1
BITMAP
0F
3C
60
C0
DC
EE
C3
C3
C3
6E
3C
ENDCHAR
STARTCHAR 0432
ENCODING 1074
SWIDTH 1040 0
DWIDTH 13 0
BBX 8 8 2 -1
BITMAP
FE
63
63
7E
63
63
63
FE
ENDCHAR
STARTCHAR 0433
ENCODING 1075
SWIDTH 1040 0
DWIDTH 13 0
BBX 8 8 2 -1
BITMAP
FE
63
60
60
60
60
60
F8
ENDCHAR
STARTCHAR 0434
ENCODING 1076
SWIDTH 1040 0
DWIDTH 13 0
BBX 10 9 1 -2
BITMAP
3FC0
1D80
1D80
1D80
1180
3180
3180
FFC0
C0C0
ENDCHAR
STARTCHAR 0435
ENCODING 1077
SWIDTH 1040 0
DWIDTH 13 0
BBX 8 8 2 -1
BITMAP
3C
6E
C3
FF
C0
C0
63
3E
ENDCHAR
STARTCHAR 0436
ENCODING 1078
SWIDTH 1040 0
DWIDTH 13 0
BBX 11 8 1 -1
BITMAP
EF60
3680
3680
1F00
1680
3680
6EC0
EF60
ENDCHAR
STARTCHAR 0437
ENCODING 1079
SWIDTH 1040 0
DWIDTH 13 0
BBX 8 8 3 -1
BITMAP
3E
F3
03
3E
3F
03
C3
7E
ENDCHAR
STARTCHAR 0438
ENCODING 1080
SWIDTH 1040 0
DWIDTH 13 0
BBX 10 8 2 -1
BITMAP
FBC0
6380
6E80
6D80
6980
7980
6180
FBC0
ENDCHAR
STARTCHAR 0439
ENCODING 1081
SWIDTH 1040 0
DWIDTH 13 0
BBX 10 11 2 -1
BITMAP
3B00
1E00
0000
FBC0
6380
6E80
6D80
6980
7980
6180
FBC0
ENDCHAR
STARTCHAR 043A
ENCODING 1082
SWIDTH 1040 0
DWIDTH 13 0
BBX 9 8 2 -1
BITMAP
FB00
6E80
6C00
7800
6C00
6C00
6E00
FB80
ENDCHAR
STARTCHAR 043B
ENCODING 1083
SWIDTH 1040 0
DWIDTH 13 0
BBX 9 8 1 -1
BITMAP
3F80
1D00
1D00
1D00
1500
3700
D700
6F80
ENDCHAR
STARTCHAR 043C
ENCODING 1084
SWIDTH 1040 0
DWIDTH 13 0
BBX 11 8 1 -1
BITMAP
E0E0
71C0
71C0
6D40
6D40
6D40
6EC0
F6E0
ENDCHAR
STARTCHAR 043D
ENCODING 1085
SWIDTH 1040 0
DWIDTH 13 0
BBX 9 8 2 -1
BITMAP
FB80
6300
6300
7F00
6300
6300
6300
FB80
ENDCHAR
STARTCHAR 043E
ENCODING 1086
SWIDTH 1040 0
DWIDTH 13 0
BBX 9 8 2 -1
BITMAP
3E00
6300
C180
C180
C180
C180
6300
3E00
ENDCHAR
STARTCHAR 043F
ENCODING 1087
SWIDTH 1040 0
DWIDTH 13 0
BBX 9 8 2 -1
BITMAP
FF80
6300
6300
6300
6300
6300
6300
FB80
ENDCHAR
STARTCHAR 0440
ENCODING 1088
SWIDTH 1040 0
DWIDTH 13 0
BBX 9 9 2 -2
BITMAP
EE00
7B00
6180
6180
7900
7B00
6E00
6000
F800
ENDCHAR
STARTCHAR 0441
ENCODING 1089
SWIDTH 1040 0
DWIDTH 13 0
BBX 8 8 2 -1
BITMAP
3E
63
C0
C0
C0
C0
63
3E
ENDCHAR
STARTCHAR 0442
ENCODING 1090
SWIDTH 1040 0
DWIDTH 13 0
BBX 9 8 2 -1
BITMAP
FF80
DD80
1C00
1C00
1C00
1C00
1C00
3E00
ENDCHAR
STARTCHAR 0443
ENCODING 1091
SWIDTH 1040 0
DWIDTH 13 0
BBX 10 10 2 -2
BITMAP
FBC0
6180
3980
1D00
0F00
0E00
0E00
1C00
DC00
7800
ENDCHAR
STARTCHAR 0444
ENCODING 1092
SWIDTH 1040 0
DWIDTH 13 0
BBX 11 12 1 -2
BITMAP
1F00
0E00
3680
6F40
CE60
CE60
CE60
EF40
6F40
3680
0E00
1F00
ENDCHAR
STARTCHAR 0445
ENCODING 1093
SWIDTH 1040 0
DWIDTH 13 0
BBX 9 8 2 -1
BITMAP
FB80
6300
3A00
1C00
1A00
3A00
6300
FB80
ENDCHAR
STARTCHAR 0446
ENCODING 1094
SWIDTH 1040 0
DWIDTH 13 0
BBX 9 9 2 -2
BITMAP
FB80
6300
6300
6300
6300
6300
6300
FF80
0180
ENDCHAR
STARTCHAR 0447
ENCODING 1095
SWIDTH 1040 0
DWIDTH 13 0
BBX 9 8 2 -1
BITMAP
FB80
6300
6300
3F00
3F00
0300
0300
0F80
ENDCHAR
STARTCHAR 0448
ENCODING 1096
SWIDTH 1040 0
DWIDTH 13 0
BBX 9 8 2 -1
BITMAP
DD80
DD80
DD80
DD80
DD80
DD80
DD80
FF80
ENDCHAR
STARTCHAR 0449
ENCODING 1097
SWIDTH 1040 0
DWIDTH 13 0
BBX 11 9 1 -2
BITMAP
DD80
DD80
DD80
DD80
DD80
DD80
DD80
FFE0
0060
ENDCHAR
STARTCHAR 044A
ENCODING 1098
SWIDTH 1040 0
DWIDTH 13 0
BBX 9 8 1 -1
BITMAP
7000
D000
3F00
3180
3180
3180
3180
7F00
ENDCHAR
STARTCHAR 044B
ENCODING 1099
SWIDTH 1040 0
DWIDTH 13 0
BBX 10 8 1 -1
BITMAP
F7C0
6180
6180
7D80
6E80
6E80
6E80
FDC0
ENDCHAR
STARTCHAR 044C
ENCODING 1100
SWIDTH 1040 0
DWIDTH 13 0
BBX 8 8 2 -1
BITMAP
F8
60
7E
63
63
63
63
FE
ENDCHAR
STARTCHAR 044D
ENCODING 1101
SWIDTH 1040 0
DWIDTH 13 0
BBX 8 8 2 -1
BITMAP
7E
C3
3B
6D
6D
03
C3
7E
ENDCHAR
STARTCHAR 044E
ENCODING 1102
SWIDTH 1040 0
DWIDTH 13 0
BBX 11 8 1 -1
BITMAP
F780
6EC0
6C60
7C60
6C60
6C60
6EC0
F780
ENDCHAR
STARTCHAR 044F
ENCODING 1103
SWIDTH 1040 0
DWIDTH 13 0
BBX 9 8 2 -1
BITMAP
3F80
6300
6300
3F00
3B00
3B00
6300
FB80
ENDCHAR
STARTCHAR 0451
ENCODING 1105
SWIDTH 1040 0
DWIDTH 13 0
BBX 8 10 2 -1
BITMAP
6E
00
3C
6E
C3
FF
C0
C0
63
3E
ENDCHAR
STARTCHAR 2000
ENCODING 8192
SWIDTH 1040 0
DWIDTH 13 0
BBX 0 0 0 0
BITMAP
ENDCHAR
STARTCHAR 2001
ENCODING 8193
SWIDTH 1040 0
DWIDTH 13 0
BBX 0 0 0 0
BITMAP
ENDCHAR
STARTCHAR 2002
ENCODING 8194
SWIDTH 1040 0
DWIDTH 13 0
BBX 0 0 0 0
BITMAP
ENDCHAR
STARTCHAR 2003
ENCODING 8195
SWIDTH 1040 0
DWIDTH 13 0
BBX 0 0 0 0
BITMAP
ENDCHAR
STARTCHAR 2004
ENCODING 8196
SWIDTH 1040 0
DWIDTH 13 0
BBX 0 0 0 0
BITMAP
ENDCHAR
STARTCHAR 2005
ENCODING 8197
SWIDTH 1040 0
DWIDTH 13 0
BBX 0 0 0 0
BITMAP
ENDCHAR
STARTCHAR 2006
ENCODING 8198
SWIDTH 1040 0
DWIDTH 13 0
BBX 0 0 0 0
BITMAP
ENDCHAR
STARTCHAR 2007
ENCODING 8199
SWIDTH 1040 0
DWIDTH 13 0
BBX 0 0 0 0
BITMAP
ENDCHAR
STARTCHAR 2008
ENCODING 8200
SWIDTH 1040 0
DWIDTH 13 0
BBX 0 0 0 0
BITMAP
ENDCHAR
STARTCHAR 2009
ENCODING 8201
SWIDTH 1040 0
DWIDTH 13 0
BBX 0 0 0 0
BITMAP
ENDCHAR
STARTCHAR 200A
ENCODING 8202
SWIDTH 1040 0
DWIDTH 13 0
BBX 0 0 0 0
BITMAP
ENDCHAR
STARTCHAR 200B
ENCODING 8203
SWIDTH 560 0
DWIDTH 7 0
BBX 0 0 0 0
BITMAP
ENDCHAR
STARTCHAR 200C
ENCODING 8204
SWIDTH 560 0
DWIDTH 7 0
BBX 0 0 0 0
BITMAP
ENDCHAR
STARTCHAR 200D
ENCODING 8205
SWIDTH 560 0
DWIDTH 7 0
BBX 0 0 0 0
BITMAP
ENDCHAR
STARTCHAR 200E
ENCODING 8206
SWIDTH 560 0
DWIDTH 7 0
BBX 0 0 0 0
BITMAP
ENDCHAR
STARTCHAR 200F
ENCODING 8207
SWIDTH 560 0
DWIDTH 7 0
BBX 0 0 0 0
BITMAP
ENDCHAR
STARTCHAR 2010
ENCODING 8208
SWIDTH 1040 0
DWIDTH 13 0
BBX 6 1 4 4
BITMAP
FC
ENDCHAR
STARTCHAR 2014
ENCODING 8212
SWIDTH 1040 0
DWIDTH 13 0
BBX 13 1 0 4
BITMAP
FFF8
ENDCHAR
STARTCHAR 2015
ENCODING 8213
SWIDTH 1040 0
DWIDTH 13 0
BBX 13 1 0 4
BITMAP
FFF8
ENDCHAR
STARTCHAR 2016
ENCODING 8214
SWIDTH 1040 0
DWIDTH 13 0
BBX 6 13 4 -2
BITMAP
EC
EC
EC
EC
EC
EC
EC
EC
EC
EC
EC
EC
EC
ENDCHAR
STARTCHAR 2018
ENCODING 8216
SWIDTH 1040 0
DWIDTH 13 0
BBX 3 4 10 7
BITMAP
60
C0
C0
E0
ENDCHAR
STARTCHAR 2019
ENCODING 8217
SWIDTH 1040 0
DWIDTH 13 0
BBX 3 4 2 7
BITMAP
E0
60
60
C0
ENDCHAR
STARTCHAR 201C
ENCODING 8220
SWIDTH 1040 0
DWIDTH 13 0
BBX 7 4 6 7
BITMAP
36
EC
EC
F6
ENDCHAR
STARTCHAR 201D
ENCODING 8221
SWIDTH 1040 0
DWIDTH 13 0
BBX 7 4 1 7
BITMAP
EE
6E
6E
DC
ENDCHAR
STARTCHAR 2020
ENCODING 8224
SWIDTH 1040 0
DWIDTH 13 0
BBX 11 13 1 -2
BITMAP
0E00
1F00
6EC0
FFE0
6EC0
1F00
1F00
0E00
0E00
0E00
0E00
0E00
0E00
ENDCHAR
STARTCHAR 2021
ENCODING 8225
SWIDTH 1040 0
DWIDTH 13 0
BBX 11 13 1 -2
BITMAP
1F00
1F00
6EC0
FFE0
6EC0
0E00
0E00
6EC0
6EE0
FFE0
6EC0
1F00
1F00
ENDCHAR
STARTCHAR 2025
ENCODING 8229
SWIDTH 1040 0
DWIDTH 13 0
BBX 9 2 2 4
BITMAP
C180
C180
ENDCHAR
STARTCHAR 2026
ENCODING 8230
SWIDTH 1040 0
DWIDTH 13 0
BBX 11 2 1 4
BITMAP
CE60
CE60
ENDCHAR
STARTCHAR 2030
ENCODING 8240
SWIDTH 1040 0
DWIDTH 13 0
BBX 12 12 1 -1
BITMAP
7180
DD80
DD00
DE00
7600
1C00
3000
3660
3550
6D50
DD50
CE60
ENDCHAR
STARTCHAR 2032
ENCODING 8242
SWIDTH 1040 0
DWIDTH 13 0
BBX 4 4 3 7
BITMAP
F0
70
70
C0
ENDCHAR
STARTCHAR 2033
ENCODING 8243
SWIDTH 1040 0
DWIDTH 13 0
BBX 7 4 2 7
BITMAP
EE
6E
6E
DC
ENDCHAR
STARTCHAR 203B
ENCODING 8251
SWIDTH 1040 0
DWIDTH 13 0
BBX 12 11 1 -1
BITMAP
CF30
6F60
30C0
1D80
EF70
EF70
1D80
11C0
30C0
6F60
CF30
ENDCHAR
STARTCHAR 203E
ENCODING 8254
SWIDTH 1040 0
DWIDTH 13 0
BBX 13 1 0 10
BITMAP
FFF8
ENDCHAR
STARTCHAR 2103
ENCODING 8451
SWIDTH 1040 0
DWIDTH 13 0
BBX 11 11 1 -1
BITMAP
67A0
D6E0
6C60
3000
3000
3000
3000
3060
3060
1CC0
0F80
ENDCHAR
STARTCHAR 212B
ENCODING 8491
SWIDTH 1040 0
DWIDTH 13 0
BBX 11 12 1 -1
BITMAP
0E00
1D00
1D00
0E00
1D00
1D00
3180
3F80
20C0
60C0
60C0
F1E0
ENDCHAR
STARTCHAR 2190
ENCODING 8592
SWIDTH 1040 0
DWIDTH 13 0
BBX 13 6 0 2
BITMAP
0F00
3800
FFF8
3800
0F00
0F00
ENDCHAR
STARTCHAR 2191
ENCODING 8593
SWIDTH 1040 0
DWIDTH 13 0
BBX 7 13 4 -2
BITMAP
38
38
7C
7C
EA
EA
38
38
38
38
38
38
38
ENDCHAR
STARTCHAR 2192
ENCODING 8594
SWIDTH 1040 0
DWIDTH 13 0
BBX 13 6 0 2
BITMAP
03C0
0070
FFF8
0070
03C0
03C0
ENDCHAR
STARTCHAR 2193
ENCODING 8595
SWIDTH 1040 0
DWIDTH 13 0
BBX 7 13 4 -2
BITMAP
38
38
38
38
38
38
EA
EA
EC
7C
7C
38
38
ENDCHAR
STARTCHAR 21D2
ENCODING 8658
SWIDTH 1040 0
DWIDTH 13 0
BBX 13 8 0 1
BITMAP
0060
0030
FFF8
0008
FFF8
0030
0020
0060
ENDCHAR
STARTCHAR 21D4
ENCODING 8660
SWIDTH 1040 0
DWIDTH 13 0
BBX 13 8 0 1
BITMAP
1860
3030
7FF8
C008
7FF8
3030
3820
1860
ENDCHAR
STARTCHAR 2200
ENCODING 8704
SWIDTH 1040 0
DWIDTH 13 0
BBX 11 11 1 -1
BITMAP
C060
C060
60C0
7FC0
3180
3180
1D00
1D00
1D00
0E00
0E00
ENDCHAR
STARTCHAR 2202
ENCODING 8706
SWIDTH 1040 0
DWIDTH 13 0
BBX 9 11 2 -1
BITMAP
1F00
3980
0180
1E80
3B80
6380
E300
E300
EF00
6E00
3C00
ENDCHAR
STARTCHAR 2203
ENCODING 8707
SWIDTH 1040 0
DWIDTH 13 0
BBX 10 10 2 0
BITMAP
FFC0
00C0
00C0
00C0
FFC0
00C0
00C0
00C0
00C0
FFC0
ENDCHAR
STARTCHAR 2207
ENCODING 8711
SWIDTH 1040 0
DWIDTH 13 0
BBX 13 12 0 -2
BITMAP
FFF8
7FF0
7030
3060
3860
18C0
1EC0
1E80
0E80
0F80
0700
0700
ENDCHAR
STARTCHAR 2208
ENCODING 8712
SWIDTH 1040 0
DWIDTH 13 0
BBX 10 8 2 1
BITMAP
3FC0
6000
C000
FFC0
C000
6000
7FC0
3FC0
ENDCHAR
STARTCHAR 220B
ENCODING 8715
SWIDTH 1040 0
DWIDTH 13 0
BBX 10 8 2 1
BITMAP
FF00
0180
00C0
FFC0
00C0
0180
0100
FF00
ENDCHAR
STARTCHAR 2212
ENCODING 8722
SWIDTH 1040 0
DWIDTH 13 0
BBX 10 1 2 5
BITMAP
FFC0
ENDCHAR
STARTCHAR 221A
ENCODING 8730
SWIDTH 1040 0
DWIDTH 13 0
BBX 13 12 0 -1
BITMAP
03F8
0380
0380
0700
0700
0700
0E00
6E00
7600
F600
3800
1800
ENDCHAR
STARTCHAR 221D
ENCODING 8733
SWIDTH 1040 0
DWIDTH 13 0
BBX 12 7 1 1
BITMAP
3CE0
6EB0
C700
C700
6EB0
6CA0
3CE0
ENDCHAR
STARTCHAR 221E
ENCODING 8734
SWIDTH 1040 0
DWIDTH 13 0
BBX 13 7 0 1
BITMAP
38E0
6EB0
C718
C718
6EB0
68A0
38E0
ENDCHAR
STARTCHAR 2220
ENCODING 8736
SWIDTH 1040 0
DWIDTH 13 0
BBX 12 10 1 0
BITMAP
0060
00C0
0180
0700
0E00
1C00
3000
2000
6000
FFF0
ENDCHAR
STARTCHAR 2225
ENCODING 8741
SWIDTH 1040 0
DWIDTH 13 0
BBX 6 13 4 -2
BITMAP
EC
EC
EC
EC
EC
EC
EC
EC
EC
EC
EC
EC
EC
ENDCHAR
STARTCHAR 2227
ENCODING 8743
SWIDTH 1040 0
DWIDTH 13 0
BBX 11 11 1 -1
BITMAP
0E00
0E00
1D00
1D00
3180
3180
60C0
60C0
60C0
C060
C060
ENDCHAR
STARTCHAR 2228
ENCODING 8744
SWIDTH 1040 0
DWIDTH 13 0
BBX 11 11 1 -1
BITMAP
C060
C060
60C0
60C0
3180
3180
1D00
1D00
1D00
0E00
0E00
ENDCHAR
STARTCHAR 2229
ENCODING 8745
SWIDTH 1040 0
DWIDTH 13 0
BBX 10 11 1 -1
BITMAP
3F00
6180
C0C0
C0C0
C0C0
C0C0
C0C0
C0C0
C0C0
C0C0
C0C0
ENDCHAR
STARTCHAR 222A
ENCODING 8746
SWIDTH 1040 0
DWIDTH 13 0
BBX 10 11 1 -1
BITMAP
C0C0
C0C0
C0C0
C0C0
C0C0
C0C0
C0C0
C0C0
C0C0
6180
3F00
ENDCHAR
STARTCHAR 222B
ENCODING 8747
SWIDTH 1040 0
DWIDTH 13 0
BBX 7 13 5 -2
BITMAP
0E
18
70
70
78
78
18
1C
1C
1C
0C
18
F0
ENDCHAR
STARTCHAR 222C
ENCODING 8748
SWIDTH 1040 0
DWIDTH 13 0
BBX 11 13 2 -2
BITMAP
1EE0
3980
6300
6300
7B80
7B80
3980
3DC0
3DC0
3DC0
1CC0
3980
EF00
ENDCHAR
STARTCHAR 2234
ENCODING 8756
SWIDTH 1040 0
DWIDTH 13 0
BBX 10 9 2 0
BITMAP
1E00
1E00
0000
0000
0000
0000
E1C0
E1C0
E1C0
ENDCHAR
STARTCHAR 2235
ENCODING 8757
SWIDTH 1040 0
DWIDTH 13 0
BBX 10 9 1 0
BITMAP
E1C0
E1C0
0000
0000
0000
0000
1E00
1E00
1E00
ENDCHAR
STARTCHAR 223D
ENCODING 8765
SWIDTH 1040 0
DWIDTH 13 0
BBX 12 7 1 1
BITMAP
3DC0
6760
C730
CE30
6E60
6C40
3DC0
ENDCHAR
STARTCHAR 2252
ENCODING 8786
SWIDTH 1040 0
DWIDTH 13 0
BBX 12 11 1 -1
BITMAP
3C00
3C00
0000
FFF0
0000
0000
FFF0
FFF0
0000
01C0
01C0
ENDCHAR
STARTCHAR 2260
ENCODING 8800
SWIDTH 1040 0
DWIDTH 13 0
BBX 11 11 1 -1
BITMAP
0180
0180
0700
FFE0
0E00
0E00
FFE0
FC00
1C00
3000
3000
ENDCHAR
STARTCHAR 2261
ENCODING 8801
SWIDTH 1040 0
DWIDTH 13 0
BBX 12 8 1 0
BITMAP
FFF0
0000
0000
FFF0
0000
0000
0000
FFF0
ENDCHAR
STARTCHAR 2266
ENCODING 8806
SWIDTH 1040 0
DWIDTH 13 0
BBX 12 11 1 -1
BITMAP
0070
07C0
3E00
E000
3E00
07C0
0070
0070
FFF0
0000
FFF0
ENDCHAR
STARTCHAR 2267
ENCODING 8807
SWIDTH 1040 0
DWIDTH 13 0
BBX 12 11 1 -1
BITMAP
E000
3E00
07C0
0070
07C0
3E00
E000
FFF0
FFF0
0000
FFF0
ENDCHAR
STARTCHAR 226A
ENCODING 8810
SWIDTH 1040 0
DWIDTH 13 0
BBX 11 10 1 -1
BITMAP
0E60
1CC0
3180
6700
CE00
6700
7780
3180
1CC0
0E60
ENDCHAR
STARTCHAR 226B
ENCODING 8811
SWIDTH 1040 0
DWIDTH 13 0
BBX 11 10 1 -1
BITMAP
CE00
6700
3180
1CC0
0E60
1CC0
1080
3180
6700
CE00
ENDCHAR
STARTCHAR 2282
ENCODING 8834
SWIDTH 1040 0
DWIDTH 13 0
BBX 12 9 1 0
BITMAP
3FF0
6000
C000
C000
C000
C000
E000
6000
3FF0
ENDCHAR
STARTCHAR 2283
ENCODING 8835
SWIDTH 1040 0
DWIDTH 13 0
BBX 12 9 1 0
BITMAP
FFC0
0060
0030
0030
0030
0030
0020
0060
FFC0
ENDCHAR
STARTCHAR 2286
ENCODING 8838
SWIDTH 1040 0
DWIDTH 13 0
BBX 12 10 1 -1
BITMAP
3FF0
6000
C000
C000
6000
3FF0
3FF0
0000
0000
7FF0
ENDCHAR
STARTCHAR 2287
ENCODING 8839
SWIDTH 1040 0
DWIDTH 13 0
BBX 12 10 1 -1
BITMAP
FFC0
0060
0030
0030
0060
FFC0
FFC0
0000
0000
FFE0
ENDCHAR
STARTCHAR 22A5
ENCODING 8869
SWIDTH 1040 0
DWIDTH 13 0
BBX 12 10 1 0
BITMAP
0E00
0E00
0E00
0E00
0E00
0E00
0E00
0E00
0E00
FFF0
ENDCHAR
STARTCHAR 2312
ENCODING 8978
SWIDTH 1040 0
DWIDTH 13 0
BBX 12 3 1 8
BITMAP
1F80
70E0
C030
ENDCHAR
STARTCHAR 2500
ENCODING 9472
SWIDTH 1040 0
DWIDTH 13 0
BBX 13 1 0 5
BITMAP
FFF8
ENDCHAR
STARTCHAR 2501
ENCODING 9473
SWIDTH 1040 0
DWIDTH 13 0
BBX 13 2 0 4
BITMAP
FFF8
FFF8
ENDCHAR
STARTCHAR 2502
ENCODING 9474
SWIDTH 1040 0
DWIDTH 13 0
BBX 3 13 5 -2
BITMAP
E0
E0
E0
E0
E0
E0
E0
E0
E0
E0
E0
E0
E0
ENDCHAR
STARTCHAR 2503
ENCODING 9475
SWIDTH 1040 0
DWIDTH 13 0
BBX 4 13 5 -2
BITMAP
F0
F0
F0
F0
F0
F0
F0
F0
F0
F0
F0
F0
F0
ENDCHAR
STARTCHAR 250C
ENCODING 9484
SWIDTH 1040 0
DWIDTH 13 0
BBX 8 8 5 -2
BITMAP
FF
E0
E0
E0
E0
E0
E0
E0
ENDCHAR
STARTCHAR 250F
ENCODING 9487
SWIDTH 1040 0
DWIDTH 13 0
BBX 8 8 5 -2
BITMAP
FF
FF
F0
F0
F0
F0
F0
F0
ENDCHAR
STARTCHAR 2510
ENCODING 9488
SWIDTH 1040 0
DWIDTH 13 0
BBX 8 8 0 -2
BITMAP
FF
07
07
07
07
07
07
07
ENDCHAR
STARTCHAR 2513
ENCODING 9491
SWIDTH 1040 0
DWIDTH 13 0
BBX 9 8 0 -2
BITMAP
FF80
FF80
0780
0780
0780
0780
0780
0780
ENDCHAR
STARTCHAR 2514
ENCODING 9492
SWIDTH 1040 0
DWIDTH 13 0
BBX 8 6 5 5
BITMAP
E0
E0
E0
E0
E0
FF
ENDCHAR
STARTCHAR 2517
ENCODING 9495
SWIDTH 1040 0
DWIDTH 13 0
BBX 8 7 5 4
BITMAP
F0
F0
F0
F0
F0
FF
FF
ENDCHAR
STARTCHAR 2518
ENCODING 9496
SWIDTH 1040 0
DWIDTH 13 0
BBX 8 6 0 5
BITMAP
07
07
07
07
07
FF
ENDCHAR
STARTCHAR 251B
ENCODING 9499
SWIDTH 1040 0
DWIDTH 13 0
BBX 9 7 0 4
BITMAP
0780
0780
0780
0780
0780
FF80
FF80
ENDCHAR
STARTCHAR 251C
ENCODING 9500
SWIDTH 1040 0
DWIDTH 13 0
BBX 8 13 5 -2
BITMAP
E0
E0
E0
E0
E0
FF
E0
E0
E0
E0
E0
E0
E0
ENDCHAR
STARTCHAR 251D
ENCODING 9501
SWIDTH 1040 0
DWIDTH 13 0
BBX 8 13 5 -2
BITMAP
E0
E0
E0
E0
E0
FF
FF
E0
E0
E0
E0
E0
E0
ENDCHAR
STARTCHAR 2520
ENCODING 9504
SWIDTH 1040 0
DWIDTH 13 0
BBX 8 13 5 -2
BITMAP
F0
F0
F0
F0
F0
FF
F0
F0
F0
F0
F0
F0
F0
ENDCHAR
STARTCHAR 2523
ENCODING 9507
SWIDTH 1040 0
DWIDTH 13 0
BBX 8 13 5 -2
BITMAP
F0
F0
F0
F0
F0
FF
FF
F0
F0
F0
F0
F0
F0
ENDCHAR
STARTCHAR 2524
ENCODING 9508
SWIDTH 1040 0
DWIDTH 13 0
BBX 8 13 0 -2
BITMAP
07
07
07
07
07
FF
07
07
07
07
07
07
07
ENDCHAR
STARTCHAR 2525
ENCODING 9509
SWIDTH 1040 0
DWIDTH 13 0
BBX 8 13 0 -2
BITMAP
07
07
07
07
07
FF
FF
07
07
07
07
07
07
ENDCHAR
STARTCHAR 2528
ENCODING 9512
SWIDTH 1040 0
DWIDTH 13 0
BBX 9 13 0 -2
BITMAP
0780
0780
0780
0780
0780
FF80
0780
0780
0780
0780
0780
0780
0780
ENDCHAR
STARTCHAR 252B
ENCODING 9515
SWIDTH 1040 0
DWIDTH 13 0
BBX 9 13 0 -2
BITMAP
0780
0780
0780
0780
0780
FF80
FF80
0780
0780
0780
0780
0780
0780
ENDCHAR
STARTCHAR 252C
ENCODING 9516
SWIDTH 1040 0
DWIDTH 13 0
BBX 13 8 0 -2
BITMAP
FFF8
0700
0700
0700
0700
0700
0700
0700
ENDCHAR
STARTCHAR 252F
ENCODING 9519
SWIDTH 1040 0
DWIDTH 13 0
BBX 13 8 0 -2
BITMAP
FFF8
FFF8
0700
0700
0700
0700
0700
0700
ENDCHAR
STARTCHAR 2530
ENCODING 9520
SWIDTH 1040 0
DWIDTH 13 0
BBX 13 8 0 -2
BITMAP
FFF8
0780
0780
0780
0780
0780
0780
0780
ENDCHAR
STARTCHAR 2533
ENCODING 9523
SWIDTH 1040 0
DWIDTH 13 0
BBX 13 8 0 -2
BITMAP
FFF8
FFF8
0780
0780
0780
0780
0780
0780
ENDCHAR
STARTCHAR 2534
ENCODING 9524
SWIDTH 1040 0
DWIDTH 13 0
BBX 13 6 0 5
BITMAP
0700
0700
0700
0700
0700
FFF8
ENDCHAR
STARTCHAR 2537
ENCODING 9527
SWIDTH 1040 0
DWIDTH 13 0
BBX 13 7 0 4
BITMAP
0700
0700
0700
0700
0700
FFF8
FFF8
ENDCHAR
STARTCHAR 2538
ENCODING 9528
SWIDTH 1040 0
DWIDTH 13 0
BBX 13 6 0 5
BITMAP
0780
0780
0780
0780
0780
FFF8
ENDCHAR
STARTCHAR 253B
ENCODING 9531
SWIDTH 1040 0
DWIDTH 13 0
BBX 13 7 0 4
BITMAP
0780
0780
0780
0780
0780
FFF8
FFF8
ENDCHAR
STARTCHAR 253C
ENCODING 9532
SWIDTH 1040 0
DWIDTH 13 0
BBX 13 13 0 -2
BITMAP
0700
0700
0700
0700
0700
FFF8
0700
0700
0700
0700
0700
0700
0700
ENDCHAR
STARTCHAR 253F
ENCODING 9535
SWIDTH 1040 0
DWIDTH 13 0
BBX 13 13 0 -2
BITMAP
0700
0700
0700
0700
0700
FFF8
FFF8
0700
0700
0700
0700
0700
0700
ENDCHAR
STARTCHAR 2542
ENCODING 9538
SWIDTH 1040 0
DWIDTH 13 0
BBX 13 13 0 -2
BITMAP
0780
0780
0780
0780
0780
FFF8
0780
0780
0780
0780
0780
0780
0780
ENDCHAR
STARTCHAR 254B
ENCODING 9547
SWIDTH 1040 0
DWIDTH 13 0
BBX 13 13 0 -2
BITMAP
0780
0780
0780
0780
0780
FFF8
FFF8
0780
0780
0780
0780
0780
0780
ENDCHAR
STARTCHAR 25A0
ENCODING 9632
SWIDTH 1040 0
DWIDTH 13 0
BBX 13 12 0 -2
BITMAP
FFF8
FFF8
FFF8
FFF8
FFF8
FFF8
FFF8
FFF8
FFF8
FFF8
FFF8
FFF8
ENDCHAR
STARTCHAR 25A1
ENCODING 9633
SWIDTH 1040 0
DWIDTH 13 0
BBX 13 12 0 -2
BITMAP
FFF8
C018
C018
C018
C018
C018
C018
C018
C018
C018
C018
FFF8
ENDCHAR
STARTCHAR 25B2
ENCODING 9650
SWIDTH 1040 0
DWIDTH 13 0
BBX 13 12 0 -1
BITMAP
0700
0700
0F80
0F80
1FC0
1FC0
3FE0
3FE0
3FF0
7FF0
7FF0
FFF8
ENDCHAR
STARTCHAR 25B3
ENCODING 9651
SWIDTH 1040 0
DWIDTH 13 0
BBX 13 12 0 -1
BITMAP
0700
0700
0E80
0E80
18C0
18C0
3060
3060
2070
6030
6030
FFF8
ENDCHAR
STARTCHAR 25BC
ENCODING 9660
SWIDTH 1040 0
DWIDTH 13 0
BBX 13 12 0 -2
BITMAP
FFF8
7FF0
7FF0
3FE0
3FE0
1FC0
1FC0
1F80
0F80
0F80
0700
0700
ENDCHAR
STARTCHAR 25BD
ENCODING 9661
SWIDTH 1040 0
DWIDTH 13 0
BBX 13 12 0 -2
BITMAP
FFF8
6030
6030
3060
3060
18C0
18C0
1E80
0E80
0E80
0700
0700
ENDCHAR
STARTCHAR 25C6
ENCODING 9670
SWIDTH 1040 0
DWIDTH 13 0
BBX 13 12 0 -2
BITMAP
0700
0F80
1FC0
3FE0
7FF0
FFF8
7FF0
7FE0
3FE0
1FC0
0F80
0700
ENDCHAR
STARTCHAR 25C7
ENCODING 9671
SWIDTH 1040 0
DWIDTH 13 0
BBX 13 12 0 -2
BITMAP
0700
0E80
18C0
3060
6030
C018
6030
7020
3060
18C0
0E80
0700
ENDCHAR
STARTCHAR 25CB
ENCODING 9675
SWIDTH 1040 0
DWIDTH 13 0
BBX 13 12 0 -2
BITMAP
0F80
38E0
6030
6030
C018
C018
C018
E010
6030
6030
38E0
0F80
ENDCHAR
STARTCHAR 25CE
ENCODING 9678
SWIDTH 1040 0
DWIDTH 13 0
BBX 13 12 0 -2
BITMAP
0F80
38E0
6FB0
68D0
D068
D068
D068
E858
68D0
6FB0
38E0
0F80
ENDCHAR
STARTCHAR 25CF
ENCODING 9679
SWIDTH 1040 0
DWIDTH 13 0
BBX 13 12 0 -2
BITMAP
0F80
3FE0
7FF0
7FF0
FFF8
FFF8
FFF8
FFF0
7FF0
7FF0
3FE0
0F80
ENDCHAR
STARTCHAR 25EF
ENCODING 9711
SWIDTH 1040 0
DWIDTH 13 0
BBX 13 13 0 -2
BITMAP
0FC0
3870
6018
6018
C008
C008
C008
C008
E008
6018
6018
3870
0FC0
ENDCHAR
STARTCHAR 2605
ENCODING 9733
SWIDTH 1040 0
DWIDTH 13 0
BBX 13 11 0 -1
BITMAP
0700
0700
0F80
FFF8
7FF0
3FE0
1FC0
1FE0
3FE0
3EE0
7070
ENDCHAR
STARTCHAR 2606
ENCODING 9734
SWIDTH 1040 0
DWIDTH 13 0
BBX 13 11 0 -1
BITMAP
0700
0700
0E80
FEF8
6030
3060
18C0
17E0
3760
3EE0
7070
ENDCHAR
STARTCHAR 2640
ENCODING 9792
SWIDTH 1040 0
DWIDTH 13 0
BBX 9 12 2 -2
BITMAP
3E00
6300
6300
6300
3E00
1C00
1C00
1F80
FF80
1C00
1C00
1C00
ENDCHAR
STARTCHAR 2642
ENCODING 9794
SWIDTH 1040 0
DWIDTH 13 0
BBX 12 11 1 -1
BITMAP
07F0
0070
00D0
01B0
0730
7E00
CE00
CE00
CE00
CE00
7C00
ENDCHAR
STARTCHAR 266A
ENCODING 9834
SWIDTH 1040 0
DWIDTH 13 0
BBX 10 12 2 -1
BITMAP
0E00
0F00
0F80
0EC0
0EC0
0EC0
0E80
0E00
0E00
7E00
FE00
7C00
ENDCHAR
STARTCHAR 266D
ENCODING 9837
SWIDTH 1040 0
DWIDTH 13 0
BBX 7 12 4 -1
BITMAP
E0
E0
E0
E0
E0
EC
F6
EE
EC
EC
E8
F0
ENDCHAR
STARTCHAR 266F
ENCODING 9839
SWIDTH 1040 0
DWIDTH 13 0
BBX 10 13 2 -2
BITMAP
0300
0300
3BC0
3FC0
FF00
FB00
3BC0
3FC0
3F00
FF00
FB00
3800
3800
ENDCHAR
STARTCHAR 3000
ENCODING 12288
SWIDTH 1040 0
DWIDTH 13 0
BBX 0 0 0 0
BITMAP
ENDCHAR
STARTCHAR 3001
ENCODING 12289
SWIDTH 1040 0
DWIDTH 13 0
BBX 3 3 1 -2
BITMAP
C0
60
60
ENDCHAR
STARTCHAR 3002
ENCODING 12290
SWIDTH 1040 0
DWIDTH 13 0
BBX 6 3 1 -2
BITMAP
70
DC
70
ENDCHAR
STARTCHAR 3003
ENCODING 12291
SWIDTH 1040 0
DWIDTH 13 0
BBX 8 7 2 1
BITMAP
3B
3B
3B
6E
6E
4C
DC
ENDCHAR
STARTCHAR 3005
ENCODING 12293
SWIDTH 1040 0
DWIDTH 13 0
BBX 10 10 1 -1
BITMAP
1C00
1FC0
1CC0
3180
6180
DD00
DD00
0F00
0180
00C0
ENDCHAR
STARTCHAR 3006
ENCODING 12294
SWIDTH 1040 0
DWIDTH 13 0
BBX 11 10 1 0
BITMAP
0060
0060
00C0
0180
3D00
6F00
DD80
D180
D000
E000
ENDCHAR
STARTCHAR 3007
ENCODING 12295
SWIDTH 1040 0
DWIDTH 13 0
BBX 13 12 0 -2
BITMAP
0F80
38E0
6030
6030
C018
C018
C018
E010
6030
6030
38E0
0F80
ENDCHAR
STARTCHAR 3008
ENCODING 12296
SWIDTH 1040 0
DWIDTH 13 0
BBX 6 13 6 -2
BITMAP
0C
18
18
30
30
E0
E0
30
30
30
18
18
0C
ENDCHAR
STARTCHAR 3009
ENCODING 12297
SWIDTH 1040 0
DWIDTH 13 0
BBX 6 13 2 -2
BITMAP
C0
60
60
38
38
1C
1C
38
38
38
60
60
C0
ENDCHAR
STARTCHAR 300A
ENCODING 12298
SWIDTH 1040 0
DWIDTH 13 0
BBX 9 13 3 -2
BITMAP
1D80
3B00
3B00
7600
7600
DC00
DC00
7600
7600
7600
3B00
3B00
1D80
ENDCHAR
STARTCHAR 300B
ENCODING 12299
SWIDTH 1040 0
DWIDTH 13 0
BBX 9 13 2 -2
BITMAP
DC00
6E00
6E00
3B00
3B00
1D80
1D80
3B00
3B00
3B00
6E00
6E00
DC00
ENDCHAR
STARTCHAR 300C
ENCODING 12300
SWIDTH 1040 0
DWIDTH 13 0
BBX 6 9 6 2
BITMAP
FC
E0
E0
E0
E0
E0
E0
E0
E0
ENDCHAR
STARTCHAR 300D
ENCODING 12301
SWIDTH 1040 0
DWIDTH 13 0
BBX 6 9 2 -2
BITMAP
1C
1C
1C
1C
1C
1C
1C
1C
FC
ENDCHAR
STARTCHAR 300E
ENCODING 12302
SWIDTH 1040 0
DWIDTH 13 0
BBX 7 9 5 2
BITMAP
FE
E6
EE
E8
E8
E8
E8
F8
F8
ENDCHAR
STARTCHAR 300F
ENCODING 12303
SWIDTH 1040 0
DWIDTH 13 0
BBX 7 9 2 -2
BITMAP
3E
3A
3A
3A
3A
3A
FA
CE
FE
ENDCHAR
STARTCHAR 3010
ENCODING 12304
SWIDTH 1040 0
DWIDTH 13 0
BBX 6 13 6 -2
BITMAP
FC
F8
F8
F0
F0
F0
F0
F0
F0
F0
F8
F8
FC
ENDCHAR
STARTCHAR 3011
ENCODING 12305
SWIDTH 1040 0
DWIDTH 13 0
BBX 6 13 2 -2
BITMAP
FC
7C
7C
3C
3C
3C
3C
3C
3C
3C
7C
7C
FC
ENDCHAR
STARTCHAR 3012
ENCODING 12306
SWIDTH 1040 0
DWIDTH 13 0
BBX 13 12 0 -2
BITMAP
7FF8
7FF8
0000
FFF8
FFF8
0780
0780
0780
0780
0780
0780
0780
ENDCHAR
STARTCHAR 3013
ENCODING 12307
SWIDTH 1040 0
DWIDTH 13 0
BBX 13 7 0 1
BITMAP
FFF8
FFF8
0000
0000
FFF8
FFF8
FFF8
ENDCHAR
STARTCHAR 3014
ENCODING 12308
SWIDTH 1040 0
DWIDTH 13 0
BBX 6 13 6 -2
BITMAP
1C
F0
E0
E0
E0
E0
E0
E0
E0
E0
E0
F0
1C
ENDCHAR
STARTCHAR 3015
ENCODING 12309
SWIDTH 1040 0
DWIDTH 13 0
BBX 6 13 2 -2
BITMAP
E0
3C
1C
1C
1C
1C
1C
1C
1C
1C
1C
3C
E0
ENDCHAR
STARTCHAR 301C
ENCODING 12316
SWIDTH 1040 0
DWIDTH 13 0
BBX 12 5 1 2
BITMAP
7C00
CE00
0730
01E0
01E0
ENDCHAR
STARTCHAR 3041
ENCODING 12353
SWIDTH 1040 0
DWIDTH 13 0
BBX 9 8 2 -1
BITMAP
3800
7E00
3A00
7F00
7D80
7D80
D980
6300
ENDCHAR
STARTCHAR 3042
ENCODING 12354
SWIDTH 1040 0
DWIDTH 13 0
BBX 11 12 1 -1
BITMAP
3000
1D80
FE00
3700
3F80
3740
7660
D660
D460
DC60
D0C0
6780
ENDCHAR
STARTCHAR 3043
ENCODING 12355
SWIDTH 1040 0
DWIDTH 13 0
BBX 8 6 2 0
BITMAP
60
6E
C3
DB
DB
60
ENDCHAR
STARTCHAR 3044
ENCODING 12356
SWIDTH 1040 0
DWIDTH 13 0
BBX 12 9 0 0
BITMAP
C000
63C0
6060
6030
6E30
6870
6870
3830
1800
ENDCHAR
STARTCHAR 3045
ENCODING 12357
SWIDTH 1040 0
DWIDTH 13 0
BBX 7 8 2 -1
BITMAP
60
3C
7C
CE
CE
0E
1C
38
ENDCHAR
STARTCHAR 3046
ENCODING 12358
SWIDTH 1040 0
DWIDTH 13 0
BBX 9 13 2 -2
BITMAP
3800
1E00
0000
3F00
E180
0180
0180
0180
0100
0300
0300
0E00
1C00
ENDCHAR
STARTCHAR 3047
ENCODING 12359
SWIDTH 1040 0
DWIDTH 13 0
BBX 9 8 1 -1
BITMAP
3000
1C00
7F00
0E00
0C00
3C00
6E00
CF80
ENDCHAR
STARTCHAR 3048
ENCODING 12360
SWIDTH 1040 0
DWIDTH 13 0
BBX 11 12 1 -1
BITMAP
1C00
0F00
0000
6F80
3D80
0700
0E00
1E00
1700
3700
6700
C1E0
ENDCHAR
STARTCHAR 3049
ENCODING 12361
SWIDTH 1040 0
DWIDTH 13 0
BBX 9 8 2 -1
BITMAP
3800
3D00
F980
3E00
3B00
7B00
DB00
6E00
ENDCHAR
STARTCHAR 304A
ENCODING 12362
SWIDTH 1040 0
DWIDTH 13 0
BBX 12 12 1 -1
BITMAP
1C00
1C00
1D40
7E70
1C30
1DC0
1E60
7C30
6DB0
EDB0
3CE0
1C00
ENDCHAR
STARTCHAR 304B
ENCODING 12363
SWIDTH 1040 0
DWIDTH 13 0
BBX 12 11 1 -1
BITMAP
3000
1CC0
DF60
7DB0
1DB0
1DB0
3180
3180
3180
6E80
6700
ENDCHAR
STARTCHAR 304C
ENCODING 12364
SWIDTH 1040 0
DWIDTH 13 0
BBX 12 12 1 -1
BITMAP
0060
3060
1CC0
DF60
7DB0
1DB0
1DB0
3180
3180
3180
6E80
6700
ENDCHAR
STARTCHAR 304D
ENCODING 12365
SWIDTH 1040 0
DWIDTH 13 0
BBX 9 12 2 -1
BITMAP
1C00
1F00
FC00
0F80
FE00
0300
3E80
6380
4380
C000
6000
3F00
ENDCHAR
STARTCHAR 304E
ENCODING 12366
SWIDTH 1040 0
DWIDTH 13 0
BBX 10 12 2 -1
BITMAP
1D40
1F40
FC00
0F80
FE00
0300
3E80
6380
4380
C000
6000
3F00
ENDCHAR
STARTCHAR 304F
ENCODING 12367
SWIDTH 1040 0
DWIDTH 13 0
BBX 7 12 2 -1
BITMAP
1C
0E
1C
38
60
C0
60
38
3C
1C
0E
0E
ENDCHAR
STARTCHAR 3050
ENCODING 12368
SWIDTH 1040 0
DWIDTH 13 0
BBX 10 12 2 -1
BITMAP
1C00
0E00
1D40
3B40
6000
C000
6000
3800
3C00
1C00
0E00
0E00
ENDCHAR
STARTCHAR 3051
ENCODING 12369
SWIDTH 1040 0
DWIDTH 13 0
BBX 12 12 1 -1
BITMAP
0180
C0C0
60F0
6FC0
C0C0
C0C0
C0C0
C0C0
F080
7180
6180
0700
ENDCHAR
STARTCHAR 3052
ENCODING 12370
SWIDTH 1040 0
DWIDTH 13 0
BBX 12 12 1 -1
BITMAP
0760
C1A0
60F0
6FC0
C0C0
C0C0
C0C0
C0C0
F080
7180
6180
0700
ENDCHAR
STARTCHAR 3053
ENCODING 12371
SWIDTH 1040 0
DWIDTH 13 0
BBX 10 10 2 0
BITMAP
6000
3F80
0300
0000
0000
C000
C000
E0C0
60C0
3F80
ENDCHAR
STARTCHAR 3054
ENCODING 12372
SWIDTH 1040 0
DWIDTH 13 0
BBX 11 10 1 0
BITMAP
61A0
3FA0
0700
0000
0000
C000
C000
E0C0
60C0
3F80
ENDCHAR
STARTCHAR 3055
ENCODING 12373
SWIDTH 1040 0
DWIDTH 13 0
BBX 9 12 2 -1
BITMAP
3800
1C00
CF80
7E00
0300
0300
7E80
C380
C380
C000
7800
1F00
ENDCHAR
STARTCHAR 3056
ENCODING 12374
SWIDTH 1040 0
DWIDTH 13 0
BBX 11 12 2 -1
BITMAP
39A0
1DA0
CF80
7E00
0300
0300
7E80
C380
C380
C000
7800
1F00
ENDCHAR
STARTCHAR 3057
ENCODING 12375
SWIDTH 1040 0
DWIDTH 13 0
BBX 10 11 1 -1
BITMAP
C000
6000
6000
6000
6000
6000
6000
60C0
60C0
3780
1E00
ENDCHAR
STARTCHAR 3058
ENCODING 12376
SWIDTH 1040 0
DWIDTH 13 0
BBX 10 11 1 -1
BITMAP
C000
6740
6740
6000
6000
6000
6000
60C0
60C0
3780
1E00
ENDCHAR
STARTCHAR 3059
ENCODING 12377
SWIDTH 1040 0
DWIDTH 13 0
BBX 12 13 0 -2
BITMAP
0700
0380
C3F0
7F80
0E80
1B80
1B80
0F80
0F80
0380
0380
0700
0E00
ENDCHAR
STARTCHAR 305A
ENCODING 12378
SWIDTH 1040 0
DWIDTH 13 0
BBX 13 13 0 -2
BITMAP
0768
03A8
C3F0
7F80
0E80
1B80
1B80
0F80
0F80
0380
0380
0700
0E00
ENDCHAR
STARTCHAR 305B
ENCODING 12379
SWIDTH 1040 0
DWIDTH 13 0
BBX 13 11 0 -1
BITMAP
0380
30C0
18F8
DBC0
7EC0
18C0
1BC0
1BC0
1800
0E00
07E0
ENDCHAR
STARTCHAR 305C
ENCODING 12380
SWIDTH 1040 0
DWIDTH 13 0
BBX 13 11 0 -1
BITMAP
03B0
30D0
18F8
DBC0
7EC0
18C0
1BC0
1BC0
1800
0E00
07E0
ENDCHAR
STARTCHAR 305D
ENCODING 12381
SWIDTH 1040 0
DWIDTH 13 0
BBX 11 11 1 -1
BITMAP
6F80
3D00
0E00
1DE0
FF00
0E00
1C00
1C00
1C00
0E00
0780
ENDCHAR
STARTCHAR 305E
ENCODING 12382
SWIDTH 1040 0
DWIDTH 13 0
BBX 12 11 1 -1
BITMAP
6F50
3D50
0E00
1DE0
FF00
0E00
1C00
1C00
1C00
0E00
0780
ENDCHAR
STARTCHAR 305F
ENCODING 12383
SWIDTH 1040 0
DWIDTH 13 0
BBX 11 12 1 -1
BITMAP
3000
1C00
1F00
F000
37C0
30E0
6180
6000
6E00
6E00
CE00
C7E0
ENDCHAR
STARTCHAR 3060
ENCODING 12384
SWIDTH 1040 0
DWIDTH 13 0
BBX 12 12 1 -1
BITMAP
3000
1CD0
1F50
F000
37C0
30E0
6180
6000
6E00
6E00
CE00
C7E0
ENDCHAR
STARTCHAR 3061
ENCODING 12385
SWIDTH 1040 0
DWIDTH 13 0
BBX 11 12 0 -1
BITMAP
1800
0E00
CFC0
7E00
1800
1B80
3EC0
3060
3060
0060
03C0
1F00
ENDCHAR
STARTCHAR 3062
ENCODING 12386
SWIDTH 1040 0
DWIDTH 13 0
BBX 13 12 0 -1
BITMAP
1800
0E68
CFE8
7E00
1800
1B80
3EC0
3060
3060
0060
03C0
1F00
ENDCHAR
STARTCHAR 3063
ENCODING 12387
SWIDTH 1040 0
DWIDTH 13 0
BBX 8 6 2 -1
BITMAP
3E
E3
E3
03
0E
3C
ENDCHAR
STARTCHAR 3064
ENCODING 12388
SWIDTH 1040 0
DWIDTH 13 0
BBX 12 8 0 1
BITMAP
0FC0
D860
6030
0030
0060
03C0
0300
0F00
ENDCHAR
STARTCHAR 3065
ENCODING 12389
SWIDTH 1040 0
DWIDTH 13 0
BBX 13 9 0 1
BITMAP
0068
0FE8
D860
6030
0030
0060
03C0
0300
0F00
ENDCHAR
STARTCHAR 3066
ENCODING 12390
SWIDTH 1040 0
DWIDTH 13 0
BBX 11 10 1 0
BITMAP
C1E0
7F00
0700
0E00
1C00
1C00
1C00
1E00
0E00
07C0
ENDCHAR
STARTCHAR 3067
ENCODING 12391
SWIDTH 1040 0
DWIDTH 13 0
BBX 12 10 1 0
BITMAP
C1E0
7F00
0750
0ED0
1C00
1C00
1C00
1E00
0E00
07C0
ENDCHAR
STARTCHAR 3068
ENCODING 12392
SWIDTH 1040 0
DWIDTH 13 0
BBX 9 10 2 0
BITMAP
6000
3800
3B80
3A00
3C00
6000
C000
E000
6000
3F80
ENDCHAR
STARTCHAR 3069
ENCODING 12393
SWIDTH 1040 0
DWIDTH 13 0
BBX 11 10 2 0
BITMAP
61A0
39A0
3B80
3A00
3C00
6000
C000
E000
6000
3F80
ENDCHAR
STARTCHAR 306A
ENCODING 12394
SWIDTH 1040 0
DWIDTH 13 0
BBX 11 12 1 -1
BITMAP
3000
1D00
FEC0
30E0
3180
6180
6180
DF80
D1C0
31C0
31A0
1F00
ENDCHAR
STARTCHAR 306B
ENCODING 12395
SWIDTH 1040 0
DWIDTH 13 0
BBX 11 11 1 -1
BITMAP
C000
67C0
6EE0
C180
C000
C000
CE00
D600
D600
E7E0
6000
ENDCHAR
STARTCHAR 306C
ENCODING 12396
SWIDTH 1040 0
DWIDTH 13 0
BBX 12 12 1 -1
BITMAP
0E00
0700
0700
6FC0
6D60
7730
7630
D630
DFF0
DDD0
D760
61E0
ENDCHAR
STARTCHAR 306D
ENCODING 12397
SWIDTH 1040 0
DWIDTH 13 0
BBX 13 12 0 -1
BITMAP
3000
1800
1800
DEE0
7B30
1E30
3830
3830
2830
68F0
DBB8
18E0
ENDCHAR
STARTCHAR 306E
ENCODING 12398
SWIDTH 1040 0
DWIDTH 13 0
BBX 11 10 1 0
BITMAP
1F00
3680
6EC0
CE60
DC60
DC60
D0C0
F080
6180
0F00
ENDCHAR
STARTCHAR 306F
ENCODING 12399
SWIDTH 1040 0
DWIDTH 13 0
BBX 12 12 1 -1
BITMAP
0180
C0C0
6CF0
6FC0
C0C0
C0C0
C0C0
CFC0
CCE0
DCE0
ECD0
6F80
ENDCHAR
STARTCHAR 3070
ENCODING 12400
SWIDTH 1040 0
DWIDTH 13 0
BBX 12 12 1 -1
BITMAP
01A0
C0E0
6CF0
6FC0
C0C0
C0C0
C0C0
CFC0
CCE0
DCE0
ECD0
6F80
ENDCHAR
STARTCHAR 3071
ENCODING 12401
SWIDTH 1040 0
DWIDTH 13 0
BBX 12 12 1 -1
BITMAP
01B0
C0D0
6CF0
6FC0
C0C0
C0C0
C0C0
CFC0
CCE0
DCE0
ECD0
6F80
ENDCHAR
STARTCHAR 3072
ENCODING 12402
SWIDTH 1040 0
DWIDTH 13 0
BBX 12 11 1 -1
BITMAP
0180
1D80
FCC0
30C0
30E0
60D0
60C0
60C0
60C0
3180
1F00
ENDCHAR
STARTCHAR 3073
ENCODING 12403
SWIDTH 1040 0
DWIDTH 13 0
BBX 12 11 1 -1
BITMAP
01A0
1DA0
FCC0
30C0
30E0
60D0
60C0
60C0
60C0
3180
1F00
ENDCHAR
STARTCHAR 3074
ENCODING 12404
SWIDTH 1040 0
DWIDTH 13 0
BBX 12 12 1 -1
BITMAP
0070
01D0
1DB0
FCC0
30C0
30E0
60D0
60C0
60C0
60C0
3180
1F00
ENDCHAR
STARTCHAR 3075
ENCODING 12405
SWIDTH 1040 0
DWIDTH 13 0
BBX 12 11 1 -1
BITMAP
1C00
0F80
0700
0E00
0E00
0760
D730
F7B0
E1B0
DD80
0F00
ENDCHAR
STARTCHAR 3076
ENCODING 12406
SWIDTH 1040 0
DWIDTH 13 0
BBX 12 11 1 -1
BITMAP
1CD0
0FD0
0700
0E00
0E00
0760
D730
F7B0
E1B0
DD80
0F00
ENDCHAR
STARTCHAR 3077
ENCODING 12407
SWIDTH 1040 0
DWIDTH 13 0
BBX 12 11 1 -1
BITMAP
1C70
0FD0
0770
0E00
0E00
0760
D730
F7B0
E1B0
DD80
0F00
ENDCHAR
STARTCHAR 3078
ENCODING 12408
SWIDTH 1040 0
DWIDTH 13 0
BBX 13 7 0 1
BITMAP
1E00
3700
E380
00C0
0060
0078
0038
ENDCHAR
STARTCHAR 3079
ENCODING 12409
SWIDTH 1040 0
DWIDTH 13 0
BBX 13 9 0 1
BITMAP
00D0
00D0
1E00
3700
E380
00C0
0060
0078
0038
ENDCHAR
STARTCHAR 307A
ENCODING 12410
SWIDTH 1040 0
DWIDTH 13 0
BBX 13 9 0 1
BITMAP
0070
00D8
1E70
3700
E380
00C0
0060
0078
0038
ENDCHAR
STARTCHAR 307B
ENCODING 12411
SWIDTH 1040 0
DWIDTH 13 0
BBX 12 11 1 -1
BITMAP
DCF0
6FC0
60D0
CFE0
C0C0
C0C0
CFC0
CCE0
DCE0
6CD0
6F80
ENDCHAR
STARTCHAR 307C
ENCODING 12412
SWIDTH 1040 0
DWIDTH 13 0
BBX 12 12 1 -1
BITMAP
0060
DCE0
6FC0
60D0
CFE0
C0C0
C0C0
CFC0
CCE0
DCE0
6CD0
6F80
ENDCHAR
STARTCHAR 307D
ENCODING 12413
SWIDTH 1040 0
DWIDTH 13 0
BBX 12 12 1 -1
BITMAP
0070
DCD0
6FF0
60C0
CFF0
C0C0
C0C0
CFC0
CCE0
DCE0
6CD0
6F80
ENDCHAR
STARTCHAR 307E
ENCODING 12414
SWIDTH 1040 0
DWIDTH 13 0
BBX 10 12 2 -1
BITMAP
1C00
CFC0
7E00
0E00
CF80
7E00
0E00
7E00
4F80
CF80
CEC0
7C00
ENDCHAR
STARTCHAR 307F
ENCODING 12415
SWIDTH 1040 0
DWIDTH 13 0
BBX 12 12 1 -1
BITMAP
6700
3F00
0E00
0E00
0EC0
3FA0
6CE0
DCD0
D0D0
D0C0
6180
0700
ENDCHAR
STARTCHAR 3080
ENCODING 12416
SWIDTH 1040 0
DWIDTH 13 0
BBX 12 12 1 -1
BITMAP
3000
DF00
7CE0
1C30
7C00
DC00
DC00
D0C0
D0E0
7060
3060
1FC0
ENDCHAR
STARTCHAR 3081
ENCODING 12417
SWIDTH 1040 0
DWIDTH 13 0
BBX 12 12 1 -1
BITMAP
0E00
0700
6F80
6D40
7760
6E30
D630
DC30
DC20
DC60
70C0
0780
ENDCHAR
STARTCHAR 3082
ENCODING 12418
SWIDTH 1040 0
DWIDTH 13 0
BBX 10 12 1 -1
BITMAP
3000
1C00
7C00
1F00
3600
F180
3EC0
30C0
30C0
30C0
1D80
0F00
ENDCHAR
STARTCHAR 3083
ENCODING 12419
SWIDTH 1040 0
DWIDTH 13 0
BBX 10 8 2 -1
BITMAP
3A00
3B80
FD40
38C0
3C80
1D80
1C00
1C00
ENDCHAR
STARTCHAR 3084
ENCODING 12420
SWIDTH 1040 0
DWIDTH 13 0
BBX 13 12 0 -1
BITMAP
0380
3BC0
3000
1BF0
DF18
7818
0EF0
0E00
0E00
0E00
0700
0700
ENDCHAR
STARTCHAR 3085
ENCODING 12421
SWIDTH 1040 0
DWIDTH 13 0
BBX 9 8 3 -1
BITMAP
1C00
DF00
DD80
F580
C500
DF00
1C00
3800
ENDCHAR
STARTCHAR 3086
ENCODING 12422
SWIDTH 1040 0
DWIDTH 13 0
BBX 13 12 0 -1
BITMAP
0700
C380
67E0
6EB0
6B98
7398
76B0
67E0
6780
6380
0700
0E00
ENDCHAR
STARTCHAR 3087
ENCODING 12423
SWIDTH 1040 0
DWIDTH 13 0
BBX 9 8 2 -1
BITMAP
1C00
1F00
1C00
1C00
1E00
7E00
DD80
7800
ENDCHAR
STARTCHAR 3088
ENCODING 12424
SWIDTH 1040 0
DWIDTH 13 0
BBX 11 12 1 -1
BITMAP
1C00
0E00
0EE0
0F80
0E00
0E00
0E00
7E00
4F80
CF80
CEE0
7C00
ENDCHAR
STARTCHAR 3089
ENCODING 12425
SWIDTH 1040 0
DWIDTH 13 0
BBX 9 12 2 -1
BITMAP
3800
1E00
6000
C000
C000
DF00
E180
C180
C180
0180
0F00
7C00
ENDCHAR
STARTCHAR 308A
ENCODING 12426
SWIDTH 1040 0
DWIDTH 13 0
BBX 9 12 2 -1
BITMAP
CE00
6D00
6D80
7980
7980
6180
6180
0300
0300
0300
0E00
1C00
ENDCHAR
STARTCHAR 308B
ENCODING 12427
SWIDTH 1040 0
DWIDTH 13 0
BBX 10 11 1 -1
BITMAP
6F80
3D00
0E00
1C00
3F80
70C0
C0C0
DEC0
1EC0
3780
1F00
ENDCHAR
STARTCHAR 308C
ENCODING 12428
SWIDTH 1040 0
DWIDTH 13 0
BBX 13 12 0 -1
BITMAP
3000
1800
1BC0
3B60
EE60
1860
1860
3860
2860
6860
D838
1800
ENDCHAR
STARTCHAR 308D
ENCODING 12429
SWIDTH 1040 0
DWIDTH 13 0
BBX 10 11 1 -1
BITMAP
6F80
3D00
0E00
1C00
3F80
70C0
C0C0
C0C0
00C0
0780
1E00
ENDCHAR
STARTCHAR 308E
ENCODING 12430
SWIDTH 1040 0
DWIDTH 13 0
BBX 10 8 2 -1
BITMAP
6000
3C00
FB80
3CC0
38C0
78C0
D980
3B00
ENDCHAR
STARTCHAR 308F
ENCODING 12431
SWIDTH 1040 0
DWIDTH 13 0
BBX 13 12 0 -1
BITMAP
3000
1800
1800
DEE0
7F30
1818
1818
3818
2810
6830
D8E0
1800
ENDCHAR
STARTCHAR 3090
ENCODING 12432
SWIDTH 1040 0
DWIDTH 13 0
BBX 12 11 1 -1
BITMAP
6F80
3D00
0700
1FC0
3660
6E30
DC30
DDB0
DDB0
76E0
67C0
ENDCHAR
STARTCHAR 3091
ENCODING 12433
SWIDTH 1040 0
DWIDTH 13 0
BBX 12 12 1 -1
BITMAP
3000
1FC0
0700
1FC0
3060
6F60
1DC0
0F00
0F00
0000
6EE0
C7B0
ENDCHAR
STARTCHAR 3092
ENCODING 12434
SWIDTH 1040 0
DWIDTH 13 0
BBX 11 12 1 -1
BITMAP
0E00
0E00
DF80
7C00
30E0
7D80
CF00
1D00
1100
3700
3000
1FC0
ENDCHAR
STARTCHAR 3093
ENCODING 12435
SWIDTH 1040 0
DWIDTH 13 0
BBX 12 11 1 -1
BITMAP
1C00
0E00
0E00
1C00
1C00
3E00
3700
2730
6730
6760
C1C0
ENDCHAR
STARTCHAR 309B
ENCODING 12443
SWIDTH 1040 0
DWIDTH 13 0
BBX 5 4 0 7
BITMAP
30
D8
68
60
ENDCHAR
STARTCHAR 309C
ENCODING 12444
SWIDTH 1040 0
DWIDTH 13 0
BBX 4 4 0 6
BITMAP
60
D0
D0
60
ENDCHAR
STARTCHAR 309D
ENCODING 12445
SWIDTH 1040 0
DWIDTH 13 0
BBX 8 6 3 1
BITMAP
F0
3C
06
1F
18
38
ENDCHAR
STARTCHAR 309E
ENCODING 12446
SWIDTH 1040 0
DWIDTH 13 0
BBX 9 9 2 1
BITMAP
0300
1D80
0E00
E000
3C00
0E00
1F00
1800
3800
ENDCHAR
STARTCHAR 30A1
ENCODING 12449
SWIDTH 1040 0
DWIDTH 13 0
BBX 9 7 1 -1
BITMAP
DF80
7D80
1F00
1C00
1C00
1C00
3000
ENDCHAR
STARTCHAR 30A2
ENCODING 12450
SWIDTH 1040 0
DWIDTH 13 0
BBX 12 10 0 -1
BITMAP
C7F0
7E30
0760
07C0
0700
0700
0600
0E00
0E00
1800
ENDCHAR
STARTCHAR 30A3
ENCODING 12451
SWIDTH 1040 0
DWIDTH 13 0
BBX 7 8 2 -1
BITMAP
0E
1C
3C
EC
EC
1C
1C
1C
ENDCHAR
STARTCHAR 30A4
ENCODING 12452
SWIDTH 1040 0
DWIDTH 13 0
BBX 9 11 2 -1
BITMAP
0180
0180
0300
0E00
3C00
EE00
0E00
0E00
0E00
0E00
0E00
ENDCHAR
STARTCHAR 30A5
ENCODING 12453
SWIDTH 1040 0
DWIDTH 13 0
BBX 8 8 2 -1
BITMAP
38
38
FF
C3
C2
CE
1C
78
ENDCHAR
STARTCHAR 30A6
ENCODING 12454
SWIDTH 1040 0
DWIDTH 13 0
BBX 11 12 1 -1
BITMAP
0E00
0E00
0E00
CFE0
7E60
6060
60C0
00C0
0080
0180
0700
1E00
ENDCHAR
STARTCHAR 30A7
ENCODING 12455
SWIDTH 1040 0
DWIDTH 13 0
BBX 9 6 2 0
BITMAP
0F00
7C00
1C00
1F00
1F00
FD80
ENDCHAR
STARTCHAR 30A8
ENCODING 12456
SWIDTH 1040 0
DWIDTH 13 0
BBX 12 8 1 0
BITMAP
07E0
7E00
0E00
0E00
0E00
0FE0
0FE0
FC30
ENDCHAR
STARTCHAR 30A9
ENCODING 12457
SWIDTH 1040 0
DWIDTH 13 0
BBX 9 8 2 -1
BITMAP
0E00
0E00
FF80
1E00
1A00
3A00
EE00
1E00
ENDCHAR
STARTCHAR 30AA
ENCODING 12458
SWIDTH 1040 0
DWIDTH 13 0
BBX 12 12 1 -1
BITMAP
0180
0180
C1F0
7F80
0780
0E80
1D80
3180
2180
6180
C780
0180
ENDCHAR
STARTCHAR 30AB
ENCODING 12459
SWIDTH 1040 0
DWIDTH 13 0
BBX 11 12 1 -1
BITMAP
1C00
0E00
0E00
CFE0
7E60
0E60
1C60
1CC0
10C0
30C0
6740
C180
ENDCHAR
STARTCHAR 30AC
ENCODING 12460
SWIDTH 1040 0
DWIDTH 13 0
BBX 12 12 1 -1
BITMAP
1C00
0ED0
0ED0
CFE0
7E60
0E60
1C60
1CC0
10C0
30C0
6740
C180
ENDCHAR
STARTCHAR 30AD
ENCODING 12461
SWIDTH 1040 0
DWIDTH 13 0
BBX 12 12 0 -1
BITMAP
0E00
0E00
0EE0
7F00
0700
0FF0
FB00
0700
0780
0380
0380
0380
ENDCHAR
STARTCHAR 30AE
ENCODING 12462
SWIDTH 1040 0
DWIDTH 13 0
BBX 13 12 0 -1
BITMAP
0E00
0E68
0EE8
7F00
0700
0FF0
FB00
0700
0780
0380
0380
0380
ENDCHAR
STARTCHAR 30AF
ENCODING 12463
SWIDTH 1040 0
DWIDTH 13 0
BBX 9 12 2 -1
BITMAP
6000
3B80
3E80
3980
6180
6300
C300
0E00
0C00
1C00
3800
6000
ENDCHAR
STARTCHAR 30B0
ENCODING 12464
SWIDTH 1040 0
DWIDTH 13 0
BBX 12 12 1 -1
BITMAP
60D0
37D0
3E80
3180
6180
6700
C700
0E00
0C00
1C00
3000
6000
ENDCHAR
STARTCHAR 30B1
ENCODING 12465
SWIDTH 1040 0
DWIDTH 13 0
BBX 12 12 1 -1
BITMAP
6000
3000
31F0
3F00
3180
3180
6180
C700
C700
0700
0E00
1C00
ENDCHAR
STARTCHAR 30B2
ENCODING 12466
SWIDTH 1040 0
DWIDTH 13 0
BBX 12 12 1 -1
BITMAP
6000
30D0
30D0
31E0
3F00
3180
6180
C700
C700
0700
0E00
1C00
ENDCHAR
STARTCHAR 30B3
ENCODING 12467
SWIDTH 1040 0
DWIDTH 13 0
BBX 11 9 1 0
BITMAP
CFE0
7C60
0060
0060
00C0
00C0
00C0
0FC0
7CC0
ENDCHAR
STARTCHAR 30B4
ENCODING 12468
SWIDTH 1040 0
DWIDTH 13 0
BBX 12 11 1 0
BITMAP
00D0
00D0
CFE0
7C60
0060
0060
00C0
00C0
00C0
0FC0
7CC0
ENDCHAR
STARTCHAR 30B5
ENCODING 12469
SWIDTH 1040 0
DWIDTH 13 0
BBX 12 12 1 -1
BITMAP
0180
30C0
1CC0
DDF0
7EC0
1CC0
1CC0
1D80
1D80
0180
0700
0E00
ENDCHAR
STARTCHAR 30B6
ENCODING 12470
SWIDTH 1040 0
DWIDTH 13 0
BBX 12 12 1 -1
BITMAP
01A0
30E0
1CC0
DDF0
7EC0
1CC0
1CC0
1D80
1D80
0180
0700
0E00
ENDCHAR
STARTCHAR 30B7
ENCODING 12471
SWIDTH 1040 0
DWIDTH 13 0
BBX 11 11 2 -1
BITMAP
7800
1C00
0000
E000
3860
00C0
0180
0100
0300
DE00
7800
ENDCHAR
STARTCHAR 30B8
ENCODING 12472
SWIDTH 1040 0
DWIDTH 13 0
BBX 11 11 2 -1
BITMAP
79A0
1DA0
0000
E000
3860
00C0
0180
0100
0300
DE00
7800
ENDCHAR
STARTCHAR 30B9
ENCODING 12473
SWIDTH 1040 0
DWIDTH 13 0
BBX 12 10 1 -1
BITMAP
67C0
3EC0
00C0
0180
0180
0740
0660
0E60
3C30
E030
ENDCHAR
STARTCHAR 30BA
ENCODING 12474
SWIDTH 1040 0
DWIDTH 13 0
BBX 12 11 1 -1
BITMAP
00D0
67D0
3EC0
00C0
0180
0180
0740
0660
0E60
3C30
E030
ENDCHAR
STARTCHAR 30BB
ENCODING 12475
SWIDTH 1040 0
DWIDTH 13 0
BBX 12 11 0 -1
BITMAP
3000
1800
18F0
DFB0
7860
18C0
1B80
1B80
1800
1800
0FE0
ENDCHAR
STARTCHAR 30BC
ENCODING 12476
SWIDTH 1040 0
DWIDTH 13 0
BBX 13 11 0 -1
BITMAP
3068
1868
18F0
DFB0
7860
18C0
1B80
1B80
1800
1800
0FE0
ENDCHAR
STARTCHAR 30BD
ENCODING 12477
SWIDTH 1040 0
DWIDTH 13 0
BBX 10 11 2 -1
BITMAP
0180
C0C0
60C0
6180
0180
0300
0300
0200
0E00
1C00
3800
ENDCHAR
STARTCHAR 30BE
ENCODING 12478
SWIDTH 1040 0
DWIDTH 13 0
BBX 12 11 1 -1
BITMAP
0750
C1D0
60C0
6180
0180
0700
0700
0600
0E00
1C00
3000
ENDCHAR
STARTCHAR 30BF
ENCODING 12479
SWIDTH 1040 0
DWIDTH 13 0
BBX 11 12 1 -1
BITMAP
1C00
0E00
0FE0
1C60
1CC0
36C0
6780
0700
0600
0E00
3C00
E000
ENDCHAR
STARTCHAR 30C0
ENCODING 12480
SWIDTH 1040 0
DWIDTH 13 0
BBX 13 12 0 -1
BITMAP
1800
0E68
0FE8
1860
18C0
36C0
6780
0700
0600
0E00
3800
E000
ENDCHAR
STARTCHAR 30C1
ENCODING 12481
SWIDTH 1040 0
DWIDTH 13 0
BBX 13 12 0 -1
BITMAP
00C0
0780
3F00
0380
C7F8
7E80
0380
0380
0300
0700
0700
0E00
ENDCHAR
STARTCHAR 30C2
ENCODING 12482
SWIDTH 1040 0
DWIDTH 13 0
BBX 13 12 0 -1
BITMAP
00C0
07A8
3F68
0380
C7F8
7E80
0380
0380
0300
0700
0700
0E00
ENDCHAR
STARTCHAR 30C3
ENCODING 12483
SWIDTH 1040 0
DWIDTH 13 0
BBX 9 8 2 -1
BITMAP
3800
DD80
6D80
6300
6300
0300
0E00
1C00
ENDCHAR
STARTCHAR 30C4
ENCODING 12484
SWIDTH 1040 0
DWIDTH 13 0
BBX 11 11 1 -1
BITMAP
00C0
1C60
CE60
6EC0
60C0
0180
0180
0100
0700
0E00
1C00
ENDCHAR
STARTCHAR 30C5
ENCODING 12485
SWIDTH 1040 0
DWIDTH 13 0
BBX 12 12 1 -1
BITMAP
00D0
1CD0
CE00
6E60
6E60
60C0
00C0
0180
0100
0700
1E00
7000
ENDCHAR
STARTCHAR 30C6
ENCODING 12486
SWIDTH 1040 0
DWIDTH 13 0
BBX 13 11 0 -1
BITMAP
33E0
1F00
0000
C7F8
7E80
0380
0380
0300
0700
0E00
1800
ENDCHAR
STARTCHAR 30C7
ENCODING 12487
SWIDTH 1040 0
DWIDTH 13 0
BBX 13 12 0 -1
BITMAP
0068
33E8
1F00
0000
C7F8
7E80
0380
0380
0300
0700
0E00
1800
ENDCHAR
STARTCHAR 30C8
ENCODING 12488
SWIDTH 1040 0
DWIDTH 13 0
BBX 9 12 2 -1
BITMAP
C000
6000
6000
6000
7C00
6F00
6180
6000
6000
6000
6000
6000
ENDCHAR
STARTCHAR 30C9
ENCODING 12489
SWIDTH 1040 0
DWIDTH 13 0
BBX 10 12 2 -1
BITMAP
C000
6340
6340
6000
7C00
6F00
6180
6000
6000
6000
6000
6000
ENDCHAR
STARTCHAR 30CA
ENCODING 12490
SWIDTH 1040 0
DWIDTH 13 0
BBX 12 12 1 -1
BITMAP
0E00
0700
0700
C7F0
7F00
0700
0700
0E00
0E00
0E00
1C00
3000
ENDCHAR
STARTCHAR 30CB
ENCODING 12491
SWIDTH 1040 0
DWIDTH 13 0
BBX 12 8 1 1
BITMAP
07C0
7E00
0000
0000
0000
0FE0
0C30
FC30
ENDCHAR
STARTCHAR 30CC
ENCODING 12492
SWIDTH 1040 0
DWIDTH 13 0
BBX 12 10 1 -1
BITMAP
67E0
3E60
00C0
1EC0
0780
0740
0660
0E60
3C30
E000
ENDCHAR
STARTCHAR 30CD
ENCODING 12493
SWIDTH 1040 0
DWIDTH 13 0
BBX 12 12 1 -1
BITMAP
0E00
0700
0FC0
7CC0
0180
0F00
3EC0
EE70
EE70
0E00
0E00
0E00
ENDCHAR
STARTCHAR 30CE
ENCODING 12494
SWIDTH 1040 0
DWIDTH 13 0
BBX 9 11 3 -1
BITMAP
0300
0180
0180
0300
0300
0600
1C00
1800
3800
7000
C000
ENDCHAR
STARTCHAR 30CF
ENCODING 12495
SWIDTH 1040 0
DWIDTH 13 0
BBX 13 8 0 0
BITMAP
18C0
0E60
1830
1830
3018
2018
6018
C018
ENDCHAR
STARTCHAR 30D0
ENCODING 12496
SWIDTH 1040 0
DWIDTH 13 0
BBX 13 10 0 0
BITMAP
0068
0068
18C0
0E60
1830
1830
3018
2018
6018
C018
ENDCHAR
STARTCHAR 30D1
ENCODING 12497
SWIDTH 1040 0
DWIDTH 13 0
BBX 13 10 0 0
BITMAP
0038
0068
18D8
0E60
0E30
1830
3018
2018
6018
C018
ENDCHAR
STARTCHAR 30D2
ENCODING 12498
SWIDTH 1040 0
DWIDTH 13 0
BBX 11 10 1 0
BITMAP
C000
6000
6000
67C0
7E00
6000
6000
6000
6000
3FE0
ENDCHAR
STARTCHAR 30D3
ENCODING 12499
SWIDTH 1040 0
DWIDTH 13 0
BBX 12 10 1 0
BITMAP
C0D0
60D0
6000
67C0
7E00
6000
6000
6000
6000
3FE0
ENDCHAR
STARTCHAR 30D4
ENCODING 12500
SWIDTH 1040 0
DWIDTH 13 0
BBX 12 10 1 0
BITMAP
C0E0
61B0
60E0
67C0
7E00
6000
6000
6000
6000
3FE0
ENDCHAR
STARTCHAR 30D5
ENCODING 12501
SWIDTH 1040 0
DWIDTH 13 0
BBX 11 10 1 -1
BITMAP
C7E0
7E60
0060
00C0
00C0
0180
0100
0700
0E00
3C00
ENDCHAR
STARTCHAR 30D6
ENCODING 12502
SWIDTH 1040 0
DWIDTH 13 0
BBX 12 12 0 -1
BITMAP
00D0
00D0
C7E0
7E60
0060
00C0
00C0
0380
0300
0700
0E00
3800
ENDCHAR
STARTCHAR 30D7
ENCODING 12503
SWIDTH 1040 0
DWIDTH 13 0
BBX 13 12 0 -1
BITMAP
0070
00D8
C7F0
7E60
0060
00C0
00C0
0380
0300
0700
0E00
3800
ENDCHAR
STARTCHAR 30D8
ENCODING 12504
SWIDTH 1040 0
DWIDTH 13 0
BBX 13 7 0 1
BITMAP
0E00
1B00
3380
E0C0
0060
0078
0038
ENDCHAR
STARTCHAR 30D9
ENCODING 12505
SWIDTH 1040 0
DWIDTH 13 0
BBX 13 9 0 1
BITMAP
0068
0068
0E00
1B00
3380
E0C0
0060
0078
0038
ENDCHAR
STARTCHAR 30DA
ENCODING 12506
SWIDTH 1040 0
DWIDTH 13 0
BBX 13 9 0 1
BITMAP
0070
00D8
0E70
1B00
3380
E0C0
0060
0078
0038
ENDCHAR
STARTCHAR 30DB
ENCODING 12507
SWIDTH 1040 0
DWIDTH 13 0
BBX 11 12 1 -1
BITMAP
0E00
0E00
CFE0
7E00
0E00
3680
36C0
6E60
6E60
6E60
DE00
0E00
ENDCHAR
STARTCHAR 30DC
ENCODING 12508
SWIDTH 1040 0
DWIDTH 13 0
BBX 12 12 1 -1
BITMAP
0E00
0ED0
CFD0
7E00
0E00
3680
36C0
6E60
6E60
6E60
DE00
0E00
ENDCHAR
STARTCHAR 30DD
ENCODING 12509
SWIDTH 1040 0
DWIDTH 13 0
BBX 12 12 1 -1
BITMAP
0E00
0E70
CFD0
7E70
0E00
3680
36C0
6E60
6E60
6E60
DE00
0E00
ENDCHAR
STARTCHAR 30DE
ENCODING 12510
SWIDTH 1040 0
DWIDTH 13 0
BBX 11 9 1 0
BITMAP
C7E0
7E60
00C0
0180
7700
1E00
1F00
0700
0180
ENDCHAR
STARTCHAR 30DF
ENCODING 12511
SWIDTH 1040 0
DWIDTH 13 0
BBX 9 11 2 -1
BITMAP
7800
1E00
0380
0000
7C00
0F00
0000
F800
F800
1E00
0380
ENDCHAR
STARTCHAR 30E0
ENCODING 12512
SWIDTH 1040 0
DWIDTH 13 0
BBX 11 11 1 -1
BITMAP
1C00
0E00
0E00
1C00
1D00
3180
30C0
30C0
6FC0
FC60
0060
ENDCHAR
STARTCHAR 30E1
ENCODING 12513
SWIDTH 1040 0
DWIDTH 13 0
BBX 11 11 2 -1
BITMAP
0180
00C0
00C0
3CC0
0F80
0180
0340
0260
0E60
3C00
E000
ENDCHAR
STARTCHAR 30E2
ENCODING 12514
SWIDTH 1040 0
DWIDTH 13 0
BBX 12 9 1 0
BITMAP
C7C0
7E00
1C00
DDF0
7F00
1C00
1C00
1C00
0FE0
ENDCHAR
STARTCHAR 30E3
ENCODING 12515
SWIDTH 1040 0
DWIDTH 13 0
BBX 10 8 2 -1
BITMAP
3800
3800
3BC0
FD80
FD00
1D00
1C00
1C00
ENDCHAR
STARTCHAR 30E4
ENCODING 12516
SWIDTH 1040 0
DWIDTH 13 0
BBX 13 11 0 -1
BITMAP
3000
1800
18F8
DFB0
7660
0EC0
0E00
0F00
0700
0700
0700
ENDCHAR
STARTCHAR 30E5
ENCODING 12517
SWIDTH 1040 0
DWIDTH 13 0
BBX 9 5 2 0
BITMAP
7F00
0E00
0E00
0E00
FF80
ENDCHAR
STARTCHAR 30E6
ENCODING 12518
SWIDTH 1040 0
DWIDTH 13 0
BBX 12 8 1 0
BITMAP
67C0
3EC0
00C0
0180
0180
01E0
0FE0
FC30
ENDCHAR
STARTCHAR 30E7
ENCODING 12519
SWIDTH 1040 0
DWIDTH 13 0
BBX 9 7 2 -1
BITMAP
3F00
E300
3F00
3F00
0300
1F00
F980
ENDCHAR
STARTCHAR 30E8
ENCODING 12520
SWIDTH 1040 0
DWIDTH 13 0
BBX 11 10 1 -1
BITMAP
0FE0
FC60
0060
07C0
3EC0
00C0
00C0
00C0
0FC0
7C60
ENDCHAR
STARTCHAR 30E9
ENCODING 12521
SWIDTH 1040 0
DWIDTH 13 0
BBX 11 11 1 -1
BITMAP
6F80
3C00
C7E0
7E60
0060
00C0
00C0
0080
0180
0F00
3C00
ENDCHAR
STARTCHAR 30EA
ENCODING 12522
SWIDTH 1040 0
DWIDTH 13 0
BBX 9 12 2 -1
BITMAP
0300
C180
6180
6180
6180
6180
6180
0300
0300
0300
0E00
1C00
ENDCHAR
STARTCHAR 30EB
ENCODING 12523
SWIDTH 1040 0
DWIDTH 13 0
BBX 12 11 1 -1
BITMAP
0E00
6700
3700
3700
3730
3730
3760
2740
6740
6780
C700
ENDCHAR
STARTCHAR 30EC
ENCODING 12524
SWIDTH 1040 0
DWIDTH 13 0
BBX 10 11 1 -1
BITMAP
C000
6000
6000
6000
6000
60C0
6180
6100
6700
6E00
7000
ENDCHAR
STARTCHAR 30ED
ENCODING 12525
SWIDTH 1040 0
DWIDTH 13 0
BBX 12 9 0 0
BITMAP
C7F0
7E30
6030
6030
3060
3060
3060
37E0
3830
ENDCHAR
STARTCHAR 30EE
ENCODING 12526
SWIDTH 1040 0
DWIDTH 13 0
BBX 9 7 1 -1
BITMAP
CF80
7D80
6180
6100
0700
0E00
3C00
ENDCHAR
STARTCHAR 30EF
ENCODING 12527
SWIDTH 1040 0
DWIDTH 13 0
BBX 11 10 1 -1
BITMAP
C7E0
7E60
6060
6060
00C0
00C0
0080
0180
0700
1E00
ENDCHAR
STARTCHAR 30F0
ENCODING 12528
SWIDTH 1040 0
DWIDTH 13 0
BBX 12 12 1 -1
BITMAP
0700
0180
0180
0FE0
FD80
3180
37E0
FEB0
FEB0
0180
0180
0180
ENDCHAR
STARTCHAR 30F1
ENCODING 12529
SWIDTH 1040 0
DWIDTH 13 0
BBX 12 9 0 0
BITMAP
07E0
7E60
0740
0780
0700
0700
07E0
0FE0
F830
ENDCHAR
STARTCHAR 30F2
ENCODING 12530
SWIDTH 1040 0
DWIDTH 13 0
BBX 10 11 2 -1
BITMAP
0FC0
FCC0
00C0
0FC0
7D80
0180
0300
0200
0E00
3C00
E000
ENDCHAR
STARTCHAR 30F3
ENCODING 12531
SWIDTH 1040 0
DWIDTH 13 0
BBX 11 10 1 -1
BITMAP
7000
1C60
0060
00C0
00C0
0180
0100
0700
DE00
7000
ENDCHAR
STARTCHAR 30F4
ENCODING 12532
SWIDTH 1040 0
DWIDTH 13 0
BBX 12 12 1 -1
BITMAP
0ED0
0ED0
0E00
CFE0
7E60
6060
60C0
00C0
0080
0180
0700
1E00
ENDCHAR
STARTCHAR 30F5
ENCODING 12533
SWIDTH 1040 0
DWIDTH 13 0
BBX 8 8 2 -1
BITMAP
38
38
FF
3B
3B
3B
63
DE
ENDCHAR
STARTCHAR 30F6
ENCODING 12534
SWIDTH 1040 0
DWIDTH 13 0
BBX 9 8 2 -1
BITMAP
3800
3800
3F80
6E00
4E00
CE00
1C00
3800
ENDCHAR
STARTCHAR 30FB
ENCODING 12539
SWIDTH 1040 0
DWIDTH 13 0
BBX 4 2 5 4
BITMAP
F0
F0
ENDCHAR
STARTCHAR 30FC
ENCODING 12540
SWIDTH 1040 0
DWIDTH 13 0
BBX 11 2 1 5
BITMAP
C7E0
7E00
ENDCHAR
STARTCHAR 30FD
ENCODING 12541
SWIDTH 1040 0
DWIDTH 13 0
BBX 8 5 2 1
BITMAP
E0
3C
0E
0F
03
ENDCHAR
STARTCHAR 30FE
ENCODING 12542
SWIDTH 1040 0
DWIDTH 13 0
BBX 9 8 2 1
BITMAP
0300
1D80
0E00
E000
3C00
0E00
0F00
0300
ENDCHAR
STARTCHAR 4E00
ENCODING 19968
SWIDTH 1040 0
DWIDTH 13 0
BBX 12 1 1 5
BITMAP
FFF0
ENDCHAR
STARTCHAR 4E01
ENCODING 19969
SWIDTH 1040 0
DWIDTH 13 0
BBX 13 12 0 -2
BITMAP
FFF8
0700
0700
0700
0700
0700
0700
0700
0700
0700
0700
0F00
ENDCHAR
STARTCHAR 4E03
ENCODING 19971
SWIDTH 1040 0
DWIDTH 13 0
BBX 13 13 0 -2
BITMAP
1800
1800
1800
1800
18F8
FF80
1800
1800
1800
1800
1830
1830
0FF0
ENDCHAR
STARTCHAR 4E07
ENCODING 19975
SWIDTH 1040 0
DWIDTH 13 0
BBX 13 12 0 -2
BITMAP
FFF8
0E00
0E00
0FE0
0E60
0E60
0E60
0860
1860
1860
3060
63C0
ENDCHAR
STARTCHAR 4E08
ENCODING 19976
SWIDTH 1040 0
DWIDTH 13 0
BBX 13 13 0 -2
BITMAP
0700
0700
0700
FFF8
0700
0700
3700
1B00
1B00
0F00
0E80
38E0
E038
ENDCHAR
STARTCHAR 4E09
ENCODING 19977
SWIDTH 1040 0
DWIDTH 13 0
BBX 13 11 0 -1
BITMAP
7FF0
0000
0000
0000
3FE0
0000
0000
0000
0000
0000
FFF8
ENDCHAR
STARTCHAR 4E0A
ENCODING 19978
SWIDTH 1040 0
DWIDTH 13 0
BBX 13 13 0 -2
BITMAP
0700
0700
0700
0700
0700
07F0
0700
0700
0700
0700
0700
0700
FFF8
ENDCHAR
STARTCHAR 4E0B
ENCODING 19979
SWIDTH 1040 0
DWIDTH 13 0
BBX 13 12 0 -2
BITMAP
FFF8
0700
0700
07C0
0760
0730
0700
0700
0700
0700
0700
0700
ENDCHAR
STARTCHAR 4E0D
ENCODING 19981
SWIDTH 1040 0
DWIDTH 13 0
BBX 13 12 0 -2
BITMAP
7FF8
0380
0700
0780
0F60
3B30
E718
E718
0700
0700
0700
0700
ENDCHAR
STARTCHAR 4E0E
ENCODING 19982
SWIDTH 1040 0
DWIDTH 13 0
BBX 13 13 0 -2
BITMAP
1800
1800
1FF0
1800
1FC0
30C0
00C0
FFF8
FFC0
00C0
00C0
00C0
0780
ENDCHAR
STARTCHAR 4E10
ENCODING 19984
SWIDTH 1040 0
DWIDTH 13 0
BBX 13 12 0 -2
BITMAP
FFF8
0700
37F0
3700
3700
3FF8
3018
3018
0018
0018
0030
00E0
ENDCHAR
STARTCHAR 4E11
ENCODING 19985
SWIDTH 1040 0
DWIDTH 13 0
BBX 12 12 1 -2
BITMAP
7FC0
0EC0
0EC0
0EC0
FFF0
0EC0
1CC0
1CC0
1CC0
1CC0
1CC0
FFF0
ENDCHAR
STARTCHAR 4E14
ENCODING 19988
SWIDTH 1040 0
DWIDTH 13 0
BBX 12 12 1 -2
BITMAP
3FC0
30C0
30C0
3FC0
30C0
30C0
3FC0
30C0
30C0
30C0
30C0
FFF0
ENDCHAR
STARTCHAR 4E15
ENCODING 19989
SWIDTH 1040 0
DWIDTH 13 0
BBX 13 12 0 -2
BITMAP
FFF8
0380
0780
0F60
3B30
E718
0700
0700
0700
0700
0000
FFF8
ENDCHAR
STARTCHAR 4E16
ENCODING 19990
SWIDTH 1040 0
DWIDTH 13 0
BBX 13 13 0 -2
BITMAP
3760
3760
3760
3760
FFF8
3760
3760
3760
3760
37E0
3000
3000
3FF0
ENDCHAR
STARTCHAR 4E17
ENCODING 19991
SWIDTH 1040 0
DWIDTH 13 0
BBX 13 13 0 -2
BITMAP
3760
3760
3760
3760
3760
FFF8
3760
3760
3760
3760
3760
3760
3FE0
ENDCHAR
STARTCHAR 4E18
ENCODING 19992
SWIDTH 1040 0
DWIDTH 13 0
BBX 13 12 0 -2
BITMAP
00E0
3F80
3000
3000
3FF0
30C0
30C0
30C0
30C0
30C0
30C0
FFF8
ENDCHAR
STARTCHAR 4E19
ENCODING 19993
SWIDTH 1040 0
DWIDTH 13 0
BBX 13 12 0 -2
BITMAP
FFF8
0700
0700
7FF8
6798
6ED8
6868
7868
7068
6018
6018
6038
ENDCHAR
STARTCHAR 4E1E
ENCODING 19998
SWIDTH 1040 0
DWIDTH 13 0
BBX 13 12 0 -2
BITMAP
3FC0
0380
0730
FBA0
1BC0
1B40
3760
2778
E738
0F00
0000
FFF8
ENDCHAR
STARTCHAR 4E21
ENCODING 20001
SWIDTH 1040 0
DWIDTH 13 0
BBX 13 12 0 -2
BITMAP
FFF8
0700
0700
FFF8
C718
D768
D768
D768
D768
DFE8
D018
C038
ENDCHAR
STARTCHAR 4E26
ENCODING 20006
SWIDTH 1040 0
DWIDTH 13 0
BBX 13 12 0 -1
BITMAP
3060
18C0
1B80
FFF8
0E80
6EB0
36B0
36A0
36E0
36C0
0E80
FFF8
ENDCHAR
STARTCHAR 4E2A
ENCODING 20010
SWIDTH 1040 0
DWIDTH 13 0
BBX 13 13 0 -2
BITMAP
0700
0700
0E80
18C0
3760
6730
C718
0700
0700
0700
0700
0700
0700
ENDCHAR
STARTCHAR 4E2D
ENCODING 20013
SWIDTH 1040 0
DWIDTH 13 0
BBX 11 13 1 -2
BITMAP
0E00
0E00
FFE0
CE60
CE60
CE60
FFE0
0E00
0E00
0E00
0E00
0E00
0E00
ENDCHAR
STARTCHAR 4E31
ENCODING 20017
SWIDTH 1040 0
DWIDTH 13 0
BBX 12 13 1 -2
BITMAP
1D80
1D80
DDB0
DDB0
DDB0
DDB0
DDB0
FDF0
DDB0
DDB0
1D80
3180
6180
ENDCHAR
STARTCHAR 4E32
ENCODING 20018
SWIDTH 1040 0
DWIDTH 13 0
BBX 13 13 0 -2
BITMAP
0700
0700
7FF0
6730
7FF0
0700
FFF8
C718
C718
FFF8
0700
0700
0700
ENDCHAR
STARTCHAR 4E36
ENCODING 20022
SWIDTH 1040 0
DWIDTH 13 0
BBX 6 7 3 1
BITMAP
C0
70
38
38
1C
1C
1C
ENDCHAR
STARTCHAR 4E38
ENCODING 20024
SWIDTH 1040 0
DWIDTH 13 0
BBX 13 13 0 -2
BITMAP
1800
1800
1800
FFC0
18C0
18C0
68C0
38C0
3EC0
1EC0
3758
6758
C078
ENDCHAR
STARTCHAR 4E39
ENCODING 20025
SWIDTH 1040 0
DWIDTH 13 0
BBX 13 12 0 -2
BITMAP
3FE0
3060
3660
3760
3760
FFF8
3060
3060
3060
6060
6060
C0E0
ENDCHAR
STARTCHAR 4E3B
ENCODING 20027
SWIDTH 1040 0
DWIDTH 13 0
BBX 13 13 0 -2
BITMAP
0E00
0700
7FF0
0700
0700
0700
3FE0
0700
0700
0700
0700
0700
FFF8
ENDCHAR
STARTCHAR 4E3C
ENCODING 20028
SWIDTH 1040 0
DWIDTH 13 0
BBX 13 13 0 -2
BITMAP
18C0
18C0
18C0
FFF0
18C0
1B40
1BC0
FFF8
F8C0
18C0
18C0
30C0
60C0
ENDCHAR
STARTCHAR 4E3F
ENCODING 20031
SWIDTH 1040 0
DWIDTH 13 0
BBX 7 13 2 -2
BITMAP
0E
0E
0E
0E
0E
0E
0E
0E
0C
1C
1C
38
E0
ENDCHAR
STARTCHAR 4E42
ENCODING 20034
SWIDTH 1040 0
DWIDTH 13 0
BBX 13 13 0 -2
BITMAP
0060
1860
1860
1860
3660
0EC0
0740
0380
0340
0740
0E60
3830
E018
ENDCHAR
STARTCHAR 4E43
ENCODING 20035
SWIDTH 1040 0
DWIDTH 13 0
BBX 11 12 1 -2
BITMAP
FF80
1D80
1D80
1DE0
1C60
1C60
1C60
1060
3060
3060
6060
C1C0
ENDCHAR
STARTCHAR 4E45
ENCODING 20037
SWIDTH 1040 0
DWIDTH 13 0
BBX 13 13 0 -2
BITMAP
0E00
0E00
0FC0
18C0
18C0
3380
6380
0700
0680
0E80
18C0
3060
E038
ENDCHAR
STARTCHAR 4E4B
ENCODING 20043
SWIDTH 1040 0
DWIDTH 13 0
BBX 13 13 0 -2
BITMAP
0700
0700
3FF0
0030
0060
00C0
0380
3700
3600
3600
3800
6F00
C3F8
ENDCHAR
STARTCHAR 4E4D
ENCODING 20045
SWIDTH 1040 0
DWIDTH 13 0
BBX 13 13 0 -2
BITMAP
3000
3000
3FF8
3700
6700
67F0
C700
0700
07F0
07F0
0700
0700
0700
ENDCHAR
STARTCHAR 4E4E
ENCODING 20046
SWIDTH 1040 0
DWIDTH 13 0
BBX 13 13 0 -2
BITMAP
00E0
7F80
0760
3760
1B40
1B00
FFF8
0700
0700
0700
0700
0700
0F00
ENDCHAR
STARTCHAR 4E4F
ENCODING 20047
SWIDTH 1040 0
DWIDTH 13 0
BBX 13 13 0 -2
BITMAP
03F0
7F00
0700
0700
7FF0
0060
00C0
6780
6600
6E00
7000
DE00
C7F8
ENDCHAR
STARTCHAR 4E55
ENCODING 20053
SWIDTH 1040 0
DWIDTH 13 0
BBX 13 13 0 -2
BITMAP
00F0
7F80
6380
7FF8
6380
7FF8
6380
6FF0
6BB0
6BB0
DBB0
DBE0
0380
ENDCHAR
STARTCHAR 4E56
ENCODING 20054
SWIDTH 1040 0
DWIDTH 13 0
BBX 13 13 0 -2
BITMAP
03E0
7F00
0700
FFF8
0700
1B40
FB58
1B60
1B58
1B58
3B58
EB78
0700
ENDCHAR
STARTCHAR 4E57
ENCODING 20055
SWIDTH 1040 0
DWIDTH 13 0
BBX 13 13 0 -2
BITMAP
03E0
3F80
0700
FFF8
3760
7FF0
3760
FFF8
FF80
0F80
3B60
E738
0700
ENDCHAR
STARTCHAR 4E58
ENCODING 20056
SWIDTH 1040 0
DWIDTH 13 0
BBX 13 13 0 -2
BITMAP
03E0
3F00
0700
FFF8
1B40
7B58
1B60
3B58
2B58
EB78
0F80
3B60
E738
ENDCHAR
STARTCHAR 4E59
ENCODING 20057
SWIDTH 1040 0
DWIDTH 13 0
BBX 12 12 1 -2
BITMAP
7FC0
00C0
0180
0700
0E00
1C00
3000
2000
6000
C030
C030
7FF0
ENDCHAR
STARTCHAR 4E5D
ENCODING 20061
SWIDTH 1040 0
DWIDTH 13 0
BBX 12 13 1 -2
BITMAP
1C00
1C00
1C00
FF80
1D80
1D80
1D80
1D80
1180
3180
31B0
61B0
C0F0
ENDCHAR
STARTCHAR 4E5E
ENCODING 20062
SWIDTH 1040 0
DWIDTH 13 0
BBX 13 13 0 -2
BITMAP
1800
1800
3FF8
3000
6FE0
C0C0
0380
0F00
0800
1800
3018
3018
1FF8
ENDCHAR
STARTCHAR 4E5F
ENCODING 20063
SWIDTH 1040 0
DWIDTH 13 0
BBX 13 13 0 -2
BITMAP
0700
3700
3700
37E0
3F60
F760
3760
3760
3740
37C0
3018
3018
1FF8
ENDCHAR
STARTCHAR 4E62
ENCODING 20066
SWIDTH 1040 0
DWIDTH 13 0
BBX 13 13 0 -2
BITMAP
3380
3380
3380
D680
D680
D680
D680
D680
D680
D680
FE98
C398
00F8
ENDCHAR
STARTCHAR 4E71
ENCODING 20081
SWIDTH 1040 0
DWIDTH 13 0
BBX 13 13 0 -2
BITMAP
0740
0EC0
78C0
18C0
18C0
FFC0
18C0
18C0
1FC0
7F40
6758
6758
7F78
ENDCHAR
STARTCHAR 4E73
ENCODING 20083
SWIDTH 1040 0
DWIDTH 13 0
BBX 13 13 0 -2
BITMAP
0F40
FB40
DB40
6EC0
00C0
7F40
0EC0
18C0
1FC0
FF40
18D8
18D8
3878
ENDCHAR
STARTCHAR 4E7E
ENCODING 20094
SWIDTH 1040 0
DWIDTH 13 0
BBX 13 13 0 -2
BITMAP
3380
FE80
33F8
FF00
CEF0
FE30
CE60
FEC0
F280
3380
FF18
3718
33F8
ENDCHAR
STARTCHAR 4E80
ENCODING 20096
SWIDTH 1040 0
DWIDTH 13 0
BBX 13 13 0 -2
BITMAP
0E00
1FC0
3380
FFE0
3760
3FE0
3760
7FF0
6730
6730
7FF0
0718
03F8
ENDCHAR
STARTCHAR 4E82
ENCODING 20098
SWIDTH 1040 0
DWIDTH 13 0
BBX 13 13 0 -2
BITMAP
0FA0
FB60
6B60
DBA0
7F60
3660
FFA0
D6A0
D6A0
FEA0
D6A8
DBA8
D7B8
ENDCHAR
STARTCHAR 4E85
ENCODING 20101
SWIDTH 1040 0
DWIDTH 13 0
BBX 4 13 4 -2
BITMAP
70
70
70
70
70
70
70
70
70
70
70
70
F0
ENDCHAR
STARTCHAR 4E86
ENCODING 20102
SWIDTH 1040 0
DWIDTH 13 0
BBX 11 12 1 -2
BITMAP
FFE0
00C0
0180
0F00
0E00
0E00
0E00
0E00
0E00
0E00
0E00
1E00
ENDCHAR
STARTCHAR 4E88
ENCODING 20104
SWIDTH 1040 0
DWIDTH 13 0
BBX 13 12 0 -2
BITMAP
3FE0
00C0
1E80
0700
FFF8
0730
0760
0760
0700
0700
0700
0F00
ENDCHAR
STARTCHAR 4E89
ENCODING 20105
SWIDTH 1040 0
DWIDTH 13 0
BBX 13 13 0 -2
BITMAP
0E00
0FC0
38C0
0380
3FE0
0760
FFF8
0760
0760
3FE0
0700
0700
0F00
ENDCHAR
STARTCHAR 4E8A
ENCODING 20106
SWIDTH 1040 0
DWIDTH 13 0
BBX 13 13 0 -2
BITMAP
0700
FFF8
3760
1B40
7FF0
0730
FFF8
0730
0730
7FF0
0700
0700
0F00
ENDCHAR
STARTCHAR 4E8B
ENCODING 20107
SWIDTH 1040 0
DWIDTH 13 0
BBX 13 13 0 -2
BITMAP
0700
FFF8
3760
3FE0
0700
7FE0
0760
FFF8
FF60
0760
7FE0
0700
0F00
ENDCHAR
STARTCHAR 4E8C
ENCODING 20108
SWIDTH 1040 0
DWIDTH 13 0
BBX 13 9 0 0
BITMAP
7FF0
0000
0000
0000
0000
0000
0000
0000
FFF8
ENDCHAR
STARTCHAR 4E8E
ENCODING 20110
SWIDTH 1040 0
DWIDTH 13 0
BBX 13 12 0 -2
BITMAP
7FF0
0700
0700
0700
FFF8
0700
0700
0700
0700
0700
0700
0F00
ENDCHAR
STARTCHAR 4E91
ENCODING 20113
SWIDTH 1040 0
DWIDTH 13 0
BBX 13 12 0 -2
BITMAP
3FE0
0000
0000
FFF8
0700
0700
0EC0
0EE0
0E60
1BE0
7F30
0030
ENDCHAR
STARTCHAR 4E92
ENCODING 20114
SWIDTH 1040 0
DWIDTH 13 0
BBX 13 12 0 -2
BITMAP
7FF0
1800
1800
1FC0
18C0
30C0
30C0
3080
7F80
0380
0380
FFF8
ENDCHAR
STARTCHAR 4E94
ENCODING 20116
SWIDTH 1040 0
DWIDTH 13 0
BBX 12 12 1 -2
BITMAP
7FE0
0E00
0E00
0E00
7FC0
0EC0
0EC0
0CC0
1CC0
1CC0
1CC0
FFF0
ENDCHAR
STARTCHAR 4E95
ENCODING 20117
SWIDTH 1040 0
DWIDTH 13 0
BBX 12 13 1 -2
BITMAP
1CC0
1CC0
1CC0
FFF0
1CC0
1CC0
1CC0
FFF0
FCC0
1CC0
1CC0
30C0
60C0
ENDCHAR
STARTCHAR 4E98
ENCODING 20120
SWIDTH 1040 0
DWIDTH 13 0
BBX 13 12 0 -2
BITMAP
7FF0
0000
3FE0
3060
3060
3FE0
3060
3060
3060
3FE0
0000
FFF8
ENDCHAR
STARTCHAR 4E99
ENCODING 20121
SWIDTH 1040 0
DWIDTH 13 0
BBX 13 12 0 -2
BITMAP
FFF8
1800
1800
1FC0
1EC0
3740
38C0
2E80
6E80
6E80
0380
FFF8
ENDCHAR
STARTCHAR 4E9B
ENCODING 20123
SWIDTH 1040 0
DWIDTH 13 0
BBX 13 13 0 -2
BITMAP
1B80
6B80
6EB0
6BE0
6B98
6F98
F8F8
0000
3FE0
3FE0
0000
0000
FFF8
ENDCHAR
STARTCHAR 4E9C
ENCODING 20124
SWIDTH 1040 0
DWIDTH 13 0
BBX 12 12 1 -2
BITMAP
FFF0
1D80
1D80
7FE0
6DA0
6DA0
6DA0
6DA0
7FE0
1D80
1D80
FFF0
ENDCHAR
STARTCHAR 4E9E
ENCODING 20126
SWIDTH 1040 0
DWIDTH 13 0
BBX 13 12 0 -2
BITMAP
FFF8
0EC0
0EC0
7EF8
6018
6018
7EF8
7EC0
0EC0
0EC0
0EC0
FFF8
ENDCHAR
STARTCHAR 4E9F
ENCODING 20127
SWIDTH 1040 0
DWIDTH 13 0
BBX 13 12 0 -2
BITMAP
7FF0
0700
0E00
1FF8
FBD8
DBA8
DBB0
DBF0
DBD0
FB98
0F00
FFF8
ENDCHAR
STARTCHAR 4EA0
ENCODING 20128
SWIDTH 1040 0
DWIDTH 13 0
BBX 13 4 0 4
BITMAP
0700
0700
0700
FFF8
ENDCHAR
STARTCHAR 4EA1
ENCODING 20129
SWIDTH 1040 0
DWIDTH 13 0
BBX 13 12 0 -1
BITMAP
0700
0700
0700
FFF8
3000
3000
3000
3000
3000
3000
3000
1FF0
ENDCHAR
STARTCHAR 4EA2
ENCODING 20130
SWIDTH 1040 0
DWIDTH 13 0
BBX 13 13 0 -2
BITMAP
0700
0700
FFF8
0000
1F80
1B80
1B80
1B80
1B80
1B80
3398
3398
60F8
ENDCHAR
STARTCHAR 4EA4
ENCODING 20132
SWIDTH 1040 0
DWIDTH 13 0
BBX 13 13 0 -2
BITMAP
0700
0700
FFF8
18C0
1860
30D0
68C0
0E80
0F00
0700
0E80
38E0
E038
ENDCHAR
STARTCHAR 4EA5
ENCODING 20133
SWIDTH 1040 0
DWIDTH 13 0
BBX 13 13 0 -2
BITMAP
0700
FFF8
0E00
0E80
7B80
1B00
0F60
1EC0
1080
7380
0F40
3860
E030
ENDCHAR
STARTCHAR 4EA6
ENCODING 20134
SWIDTH 1040 0
DWIDTH 13 0
BBX 13 13 0 -2
BITMAP
0700
0700
7FF8
0EC0
0EC0
36D0
36D8
6ED8
4ED8
CED8
18C0
18C0
33C0
ENDCHAR
STARTCHAR 4EA8
ENCODING 20136
SWIDTH 1040 0
DWIDTH 13 0
BBX 13 13 0 -2
BITMAP
0700
FFF8
3FE0
3060
3FE0
0000
7FF0
00C0
0080
0780
0700
0700
0F00
ENDCHAR
STARTCHAR 4EAB
ENCODING 20139
SWIDTH 1040 0
DWIDTH 13 0
BBX 13 13 0 -2
BITMAP
0700
FFF8
3FE0
3060
3FE0
0000
3FE0
0380
03F8
FFF8
0700
0700
0F00
ENDCHAR
STARTCHAR 4EAC
ENCODING 20140
SWIDTH 1040 0
DWIDTH 13 0
BBX 13 13 0 -2
BITMAP
0700
FFF8
0000
3FE0
3060
3060
3FE0
0700
3760
3760
3730
6730
0F00
ENDCHAR
STARTCHAR 4EAD
ENCODING 20141
SWIDTH 1040 0
DWIDTH 13 0
BBX 13 13 0 -2
BITMAP
0700
FFF8
0000
3FE0
3060
FFF8
C018
7FF0
7F00
0700
0700
0700
0F00
ENDCHAR
STARTCHAR 4EAE
ENCODING 20142
SWIDTH 1040 0
DWIDTH 13 0
BBX 13 13 0 -2
BITMAP
0700
FFF8
0000
3FE0
3060
3FE0
0000
FFF8
CE98
CE98
0E80
1B98
70F8
ENDCHAR
STARTCHAR 4EB0
ENCODING 20144
SWIDTH 1040 0
DWIDTH 13 0
BBX 13 13 0 -2
BITMAP
0700
FFF8
0000
3FE0
3060
3FE0
3060
3FE0
3F40
0740
3760
6730
0F00
ENDCHAR
STARTCHAR 4EB3
ENCODING 20147
SWIDTH 1040 0
DWIDTH 13 0
BBX 13 13 0 -2
BITMAP
0700
FFF8
0000
3FE0
3060
FFF8
C3D8
3F00
3FF0
07F0
7F00
0718
03F8
ENDCHAR
STARTCHAR 4EB6
ENCODING 20150
SWIDTH 1040 0
DWIDTH 13 0
BBX 13 13 0 -2
BITMAP
0700
FFF8
37A0
36A0
37A0
3FE0
0000
1FC0
18C0
18C0
1FC0
18C0
FFF8
ENDCHAR
STARTCHAR 4EBA
ENCODING 20154
SWIDTH 1040 0
DWIDTH 13 0
BBX 13 13 0 -2
BITMAP
0700
0700
0700
0700
0700
0700
0E80
0E80
08C0
18C0
3060
6030
C018
ENDCHAR
STARTCHAR 4EC0
ENCODING 20160
SWIDTH 1040 0
DWIDTH 13 0
BBX 13 13 0 -2
BITMAP
18C0
18C0
18C0
30C0
3FF8
70C0
D0C0
30C0
30C0
30C0
30C0
30C0
30C0
ENDCHAR
STARTCHAR 4EC1
ENCODING 20161
SWIDTH 1040 0
DWIDTH 13 0
BBX 13 13 0 -2
BITMAP
1800
1800
37F0
3000
7000
D000
3000
3000
3000
3000
3000
37F8
3000
ENDCHAR
STARTCHAR 4EC2
ENCODING 20162
SWIDTH 1040 0
DWIDTH 13 0
BBX 13 13 0 -2
BITMAP
1B80
1B80
1B80
37F8
3398
7398
D398
3398
3398
3398
3718
3718
3670
ENDCHAR
STARTCHAR 4EC4
ENCODING 20164
SWIDTH 1040 0
DWIDTH 13 0
BBX 13 12 0 -2
BITMAP
3FF8
3380
3380
3380
3380
3380
3740
2740
6740
6E60
D830
3018
ENDCHAR
STARTCHAR 4EC6
ENCODING 20166
SWIDTH 1040 0
DWIDTH 13 0
BBX 13 13 0 -2
BITMAP
18C0
18C0
18C0
30C0
30E0
70D0
D0D8
30D8
30D8
30C0
30C0
30C0
30C0
ENDCHAR
STARTCHAR 4EC7
ENCODING 20167
SWIDTH 1040 0
DWIDTH 13 0
BBX 13 13 0 -2
BITMAP
3700
3700
3700
6FE0
6760
E760
6760
6760
6660
6E60
6E68
6868
7038
ENDCHAR
STARTCHAR 4ECA
ENCODING 20170
SWIDTH 1040 0
DWIDTH 13 0
BBX 13 13 0 -2
BITMAP
0700
0700
0E80
18C0
3FE0
E038
0000
3FE0
3FC0
00C0
0380
0380
0700
ENDCHAR
STARTCHAR 4ECB
ENCODING 20171
SWIDTH 1040 0
DWIDTH 13 0
BBX 13 13 0 -2
BITMAP
0700
0700
0E80
18C0
3060
E8D8
18C0
18C0
18C0
18C0
30C0
30C0
60C0
ENDCHAR
STARTCHAR 4ECD
ENCODING 20173
SWIDTH 1040 0
DWIDTH 13 0
BBX 13 13 0 -2
BITMAP
1800
1FE0
1B60
3760
3760
7778
D768
3718
3718
3718
3618
3618
3870
ENDCHAR
STARTCHAR 4ECE
ENCODING 20174
SWIDTH 1040 0
DWIDTH 13 0
BBX 13 13 0 -2
BITMAP
1860
1860
1860
1860
1860
1860
1860
36D0
36D0
36D0
6798
6398
C708
ENDCHAR
STARTCHAR 4ECF
ENCODING 20175
SWIDTH 1040 0
DWIDTH 13 0
BBX 13 13 0 -2
BITMAP
1B80
1B80
1B80
3380
3380
7380
D760
3730
3730
3730
36F8
3F98
3018
ENDCHAR
STARTCHAR 4ED4
ENCODING 20180
SWIDTH 1040 0
DWIDTH 13 0
BBX 13 13 0 -2
BITMAP
1800
1FF0
1830
3060
30C0
70C0
DFF8
30C0
30C0
30C0
30C0
30C0
33C0
ENDCHAR
STARTCHAR 4ED5
ENCODING 20181
SWIDTH 1040 0
DWIDTH 13 0
BBX 13 13 0 -2
BITMAP
18C0
18C0
18C0
30C0
3FF8
70C0
D0C0
30C0
30C0
30C0
30C0
37F0
3000
ENDCHAR
STARTCHAR 4ED6
ENCODING 20182
SWIDTH 1040 0
DWIDTH 13 0
BBX 13 13 0 -2
BITMAP
18C0
1B40
3740
3770
77D0
DF50
3750
3750
3760
3760
3718
3718
33F8
ENDCHAR
STARTCHAR 4ED7
ENCODING 20183
SWIDTH 1040 0
DWIDTH 13 0
BBX 13 13 0 -2
BITMAP
30C0
30C0
30C0
6FF8
60C0
EEC0
6EC0
6B40
6B80
6380
6740
6E60
6838
ENDCHAR
STARTCHAR 4ED8
ENCODING 20184
SWIDTH 1040 0
DWIDTH 13 0
BBX 13 13 0 -2
BITMAP
1860
1860
1860
37F8
3060
7660
D760
3760
3760
3060
3060
3060
30E0
ENDCHAR
STARTCHAR 4ED9
ENCODING 20185
SWIDTH 1040 0
DWIDTH 13 0
BBX 13 13 0 -2
BITMAP
18C0
18C0
18C0
36D8
36D8
76D8
D6D8
36D8
36D8
36D8
36D8
37F8
3618
ENDCHAR
STARTCHAR 4EDD
ENCODING 20189
SWIDTH 1040 0
DWIDTH 13 0
BBX 13 13 0 -2
BITMAP
0700
0700
0E80
18C0
3060
E038
3FE0
0700
0700
0700
0700
0700
FFF8
ENDCHAR
STARTCHAR 4EDE
ENCODING 20190
SWIDTH 1040 0
DWIDTH 13 0
BBX 13 13 0 -2
BITMAP
1800
1FF8
1B98
3398
3398
7698
D698
3B98
3398
3398
3718
3718
3670
ENDCHAR
STARTCHAR 4EDF
ENCODING 20191
SWIDTH 1040 0
DWIDTH 13 0
BBX 13 13 0 -2
BITMAP
1870
1FC0
18C0
30C0
30C0
7FF8
D0C0
30C0
30C0
30C0
30C0
30C0
30C0
ENDCHAR
STARTCHAR 4EE3
ENCODING 20195
SWIDTH 1040 0
DWIDTH 13 0
BBX 13 13 0 -2
BITMAP
1BA0
1BB0
1B80
33F8
3F80
70C0
D0C0
30C0
30E0
3060
3068
3038
3018
ENDCHAR
STARTCHAR 4EE4
ENCODING 20196
SWIDTH 1040 0
DWIDTH 13 0
BBX 13 13 0 -2
BITMAP
0700
0700
0E80
18C0
3FE0
E038
3FF0
0730
0730
0730
0760
0700
0700
ENDCHAR
STARTCHAR 4EE5
ENCODING 20197
SWIDTH 1040 0
DWIDTH 13 0
BBX 13 13 0 -2
BITMAP
3030
3030
3630
3730
3730
33B0
3030
3630
3E30
3870
6068
C3C8
0F00
ENDCHAR
STARTCHAR 4EED
ENCODING 20205
SWIDTH 1040 0
DWIDTH 13 0
BBX 13 13 0 -2
BITMAP
1800
1FF8
1B98
3398
3698
7798
D3D8
33B8
33B8
3398
3718
3718
3670
ENDCHAR
STARTCHAR 4EEE
ENCODING 20206
SWIDTH 1040 0
DWIDTH 13 0
BBX 13 13 0 -2
BITMAP
1800
1BF8
1B00
3700
37F0
77B0
D750
3760
3660
3660
36E0
3BB0
3718
ENDCHAR
STARTCHAR 4EF0
ENCODING 20208
SWIDTH 1040 0
DWIDTH 13 0
BBX 13 13 0 -2
BITMAP
33C0
3700
36F8
6ED8
6ED8
EED8
6ED8
6ED8
6ED8
6ED8
6F70
60C0
60C0
ENDCHAR
STARTCHAR 4EF2
ENCODING 20210
SWIDTH 1040 0
DWIDTH 13 0
BBX 13 13 0 -2
BITMAP
18C0
18C0
1FF8
36D8
36D8
76D8
D7F8
30C0
30C0
30C0
30C0
30C0
30C0
ENDCHAR
STARTCHAR 4EF6
ENCODING 20214
SWIDTH 1040 0
DWIDTH 13 0
BBX 13 13 0 -2
BITMAP
18C0
1B40
1B40
37F0
36C0
78C0
DFF8
30C0
30C0
30C0
30C0
30C0
30C0
ENDCHAR
STARTCHAR 4EF7
ENCODING 20215
SWIDTH 1040 0
DWIDTH 13 0
BBX 13 13 0 -2
BITMAP
1B80
1B80
1B40
3660
3830
7768
D768
3760
3760
3760
3660
3660
3860
ENDCHAR
STARTCHAR 4EFB
ENCODING 20219
SWIDTH 1040 0
DWIDTH 13 0
BBX 13 13 0 -2
BITMAP
1870
1FC0
18C0
30C0
30C0
7FF8
D0C0
30C0
30C0
30C0
30C0
37F8
3000
ENDCHAR
STARTCHAR 4F01
ENCODING 20225
SWIDTH 1040 0
DWIDTH 13 0
BBX 13 13 0 -2
BITMAP
0700
0700
0E80
18C0
3760
E738
0700
37E0
3700
3700
3700
3700
FFF8
ENDCHAR
STARTCHAR 4F09
ENCODING 20233
SWIDTH 1040 0
DWIDTH 13 0
BBX 13 13 0 -2
BITMAP
3380
3380
3FF8
6000
6FC0
EEC0
6EC0
6EC0
6EC0
6EC0
68D8
68D8
7078
ENDCHAR
STARTCHAR 4F0A
ENCODING 20234
SWIDTH 1040 0
DWIDTH 13 0
BBX 13 13 0 -2
BITMAP
1800
1FF0
1BB0
33B0
7FF8
D3B0
33B0
37F0
3780
3380
3380
3700
3600
ENDCHAR
STARTCHAR 4F0D
ENCODING 20237
SWIDTH 1040 0
DWIDTH 13 0
BBX 13 13 0 -2
BITMAP
1800
1FF8
1B80
3380
3380
77E0
D3A0
3760
3760
3760
3760
3760
3FF8
ENDCHAR
STARTCHAR 4F0E
ENCODING 20238
SWIDTH 1040 0
DWIDTH 13 0
BBX 13 13 0 -2
BITMAP
18C0
18C0
1FF8
30C0
30C0
77F8
D030
3730
37A0
33A0
30C0
37A0
3E38
ENDCHAR
STARTCHAR 4F0F
ENCODING 20239
SWIDTH 1040 0
DWIDTH 13 0
BBX 13 13 0 -2
BITMAP
1B80
1BA0
1BB0
3380
3FF8
7380
D380
3740
3740
3740
3660
3830
3018
ENDCHAR
STARTCHAR 4F10
ENCODING 20240
SWIDTH 1040 0
DWIDTH 13 0
BBX 13 13 0 -2
BITMAP
1BA0
1BB0
1B80
33F0
3F80
73A0
D3A0
30C0
30C0
33C0
3768
3E38
3018
ENDCHAR
STARTCHAR 4F11
ENCODING 20241
SWIDTH 1040 0
DWIDTH 13 0
BBX 13 13 0 -2
BITMAP
18C0
18C0
18C0
3FF8
30C0
73E0
D3E0
3750
3658
36D8
38C8
30C0
30C0
ENDCHAR
STARTCHAR 4F1A
ENCODING 20250
SWIDTH 1040 0
DWIDTH 13 0
BBX 13 13 0 -2
BITMAP
0700
0700
0E80
18C0
3FE0
E038
0000
7FF0
7E80
0E80
1BC0
7F60
0060
ENDCHAR
STARTCHAR 4F1C
ENCODING 20252
SWIDTH 1040 0
DWIDTH 13 0
BBX 13 13 0 -2
BITMAP
3380
3380
37E0
63A0
6768
EEB8
6B80
6FF8
6F80
6380
6380
6380
6380
ENDCHAR
STARTCHAR 4F1D
ENCODING 20253
SWIDTH 1040 0
DWIDTH 13 0
BBX 13 13 0 -2
BITMAP
1800
1BF0
1800
3000
37F8
7380
D380
33A0
3330
3730
3770
3798
3018
ENDCHAR
STARTCHAR 4F2F
ENCODING 20271
SWIDTH 1040 0
DWIDTH 13 0
BBX 13 13 0 -2
BITMAP
18C0
18C0
3380
37F8
7718
D718
37F8
3718
3718
3718
3718
3718
37F8
ENDCHAR
STARTCHAR 4F30
ENCODING 20272
SWIDTH 1040 0
DWIDTH 13 0
BBX 13 13 0 -2
BITMAP
18C0
18C0
1FF8
30C0
30C0
70C0
D7F0
3730
3730
3730
3730
3730
37F0
ENDCHAR
STARTCHAR 4F34
ENCODING 20276
SWIDTH 1040 0
DWIDTH 13 0
BBX 13 13 0 -2
BITMAP
3380
3BB0
36B0
6EA0
6FF0
E380
6380
6FF8
6F80
6380
6380
6380
6380
ENDCHAR
STARTCHAR 4F36
ENCODING 20278
SWIDTH 1040 0
DWIDTH 13 0
BBX 13 13 0 -2
BITMAP
1B80
1B80
3740
3760
77F0
D818
37F0
33B0
33B0
33B0
33E0
3380
3380
ENDCHAR
STARTCHAR 4F38
ENCODING 20280
SWIDTH 1040 0
DWIDTH 13 0
BBX 13 13 0 -2
BITMAP
18C0
18C0
1FF8
36D8
37F8
76D8
D6D8
37F8
37C0
30C0
30C0
30C0
30C0
ENDCHAR
STARTCHAR 4F3A
ENCODING 20282
SWIDTH 1040 0
DWIDTH 13 0
BBX 13 13 0 -2
BITMAP
1800
1FF8
1818
37E8
3018
77D8
D6D8
36D8
36D8
37D8
3018
3018
3038
ENDCHAR
STARTCHAR 4F3C
ENCODING 20284
SWIDTH 1040 0
DWIDTH 13 0
BBX 13 13 0 -2
BITMAP
3030
3630
3630
6EB0
6ED0
EE30
6E30
6E30
6EB0
6EB0
6F68
78C8
6380
ENDCHAR
STARTCHAR 4F3D
ENCODING 20285
SWIDTH 1040 0
DWIDTH 13 0
BBX 13 13 0 -2
BITMAP
3600
3600
3678
6FA8
6EA8
EEA8
6EA8
6EA8
6AA8
6BA8
6BA8
73B8
6F00
ENDCHAR
STARTCHAR 4F43
ENCODING 20291
SWIDTH 1040 0
DWIDTH 13 0
BBX 13 13 0 -2
BITMAP
1800
1BF8
3758
3758
7758
D7F8
3758
3758
3758
3758
3758
37F8
3000
ENDCHAR
STARTCHAR 4F46
ENCODING 20294
SWIDTH 1040 0
DWIDTH 13 0
BBX 13 13 0 -2
BITMAP
1800
1BF0
1B30
3730
37F0
7730
D730
3730
3730
37F0
3000
3000
37F8
ENDCHAR
STARTCHAR 4F47
ENCODING 20295
SWIDTH 1040 0
DWIDTH 13 0
BBX 13 13 0 -2
BITMAP
18C0
1FF8
1E18
3000
3FF8
70C0
D0C0
30C0
30C0
30C0
30C0
30C0
33C0
ENDCHAR
STARTCHAR 4F4D
ENCODING 20301
SWIDTH 1040 0
DWIDTH 13 0
BBX 13 13 0 -2
BITMAP
18C0
18C0
18C0
37F8
3030
7630
D730
3730
3720
3760
3760
30C0
3FF8
ENDCHAR
STARTCHAR 4F4E
ENCODING 20302
SWIDTH 1040 0
DWIDTH 13 0
BBX 13 13 0 -2
BITMAP
1870
1FC0
1EC0
36C0
37F8
76C0
D6C0
3660
36A0
37A0
3868
3038
37E8
ENDCHAR
STARTCHAR 4F4F
ENCODING 20303
SWIDTH 1040 0
DWIDTH 13 0
BBX 13 13 0 -2
BITMAP
1B80
18C0
1FF8
30C0
30C0
70C0
D7F0
30C0
30C0
30C0
30C0
30C0
37F8
ENDCHAR
STARTCHAR 4F50
ENCODING 20304
SWIDTH 1040 0
DWIDTH 13 0
BBX 13 13 0 -2
BITMAP
3380
3380
3380
6FF8
6380
E700
67F8
6EC0
68C0
68C0
60C0
6FF8
6000
ENDCHAR
STARTCHAR 4F51
ENCODING 20305
SWIDTH 1040 0
DWIDTH 13 0
BBX 13 13 0 -2
BITMAP
3380
3380
3380
7FF8
6380
E700
6700
6FF0
6B30
6B30
7730
6730
67F0
ENDCHAR
STARTCHAR 4F53
ENCODING 20307
SWIDTH 1040 0
DWIDTH 13 0
BBX 13 13 0 -2
BITMAP
18C0
18C0
18C0
3FF8
30C0
73E0
D3E0
3750
3758
36D8
3BF0
30C0
30C0
ENDCHAR
STARTCHAR 4F55
ENCODING 20309
SWIDTH 1040 0
DWIDTH 13 0
BBX 13 13 0 -2
BITMAP
1800
1FF8
1830
3030
37D0
76D0
D6D0
36D0
36D0
37D0
3030
3030
3070
ENDCHAR
STARTCHAR 4F57
ENCODING 20311
SWIDTH 1040 0
DWIDTH 13 0
BBX 13 13 0 -2
BITMAP
1B80
1FF8
1E18
3618
3700
7770
D7C0
3700
3700
3700
3718
3718
33F8
ENDCHAR
STARTCHAR 4F59
ENCODING 20313
SWIDTH 1040 0
DWIDTH 13 0
BBX 13 13 0 -2
BITMAP
0700
0700
0E80
38E0
EFD8
0700
7FF0
0700
3760
3760
3730
6730
0F00
ENDCHAR
STARTCHAR 4F5A
ENCODING 20314
SWIDTH 1040 0
DWIDTH 13 0
BBX 13 13 0 -2
BITMAP
3380
3680
3680
6FF0
6B80
E380
6FF8
6380
6340
6740
6740
6E60
6830
ENDCHAR
STARTCHAR 4F5B
ENCODING 20315
SWIDTH 1040 0
DWIDTH 13 0
BBX 13 13 0 -2
BITMAP
3740
3740
37F0
6750
6FF0
EB40
6FF8
6758
6758
6758
6ED0
6EC0
68C0
ENDCHAR
STARTCHAR 4F5C
ENCODING 20316
SWIDTH 1040 0
DWIDTH 13 0
BBX 13 13 0 -2
BITMAP
1B80
1B80
1BF8
3740
3740
76F8
D0C0
30C0
30F8
30F8
30C0
30C0
30C0
ENDCHAR
STARTCHAR 4F5D
ENCODING 20317
SWIDTH 1040 0
DWIDTH 13 0
BBX 13 13 0 -2
BITMAP
1B80
1B80
1BF8
3718
3618
7FD8
D6D8
36D8
36D8
37D8
3018
3018
3070
ENDCHAR
STARTCHAR 4F5E
ENCODING 20318
SWIDTH 1040 0
DWIDTH 13 0
BBX 13 13 0 -2
BITMAP
37F0
3000
37F8
6380
6380
EFF8
6760
6760
6740
6FC0
60E0
63B0
6F18
ENDCHAR
STARTCHAR 4F69
ENCODING 20329
SWIDTH 1040 0
DWIDTH 13 0
BBX 13 13 0 -2
BITMAP
3000
3FF0
3830
6FF0
6BB0
EBB0
6FF0
6EB0
6EB0
6EB0
76D0
7398
6388
ENDCHAR
STARTCHAR 4F6F
ENCODING 20335
SWIDTH 1040 0
DWIDTH 13 0
BBX 13 13 0 -2
BITMAP
1B30
1BA0
1FF8
30C0
30C0
77F0
D0C0
30C0
30F8
3FF8
30C0
30C0
30C0
ENDCHAR
STARTCHAR 4F70
ENCODING 20336
SWIDTH 1040 0
DWIDTH 13 0
BBX 13 13 0 -2
BITMAP
1800
1FF8
18C0
3380
37F0
7630
D630
37F0
3630
3630
3630
3630
37F0
ENDCHAR
STARTCHAR 4F73
ENCODING 20339
SWIDTH 1040 0
DWIDTH 13 0
BBX 13 13 0 -2
BITMAP
3380
3380
3FF0
6380
6380
EFF8
6380
6380
63F0
6FF0
6380
6380
7FF8
ENDCHAR
STARTCHAR 4F75
ENCODING 20341
SWIDTH 1040 0
DWIDTH 13 0
BBX 13 13 0 -2
BITMAP
1E30
1B30
3760
37F8
7760
D760
3FF8
3760
3760
3760
3660
3660
3860
ENDCHAR
STARTCHAR 4F76
ENCODING 20342
SWIDTH 1040 0
DWIDTH 13 0
BBX 13 13 0 -2
BITMAP
18C0
18C0
1FF8
30C0
30C0
77F0
D000
37F0
3630
3630
3630
3630
37F0
ENDCHAR
STARTCHAR 4F7B
ENCODING 20347
SWIDTH 1040 0
DWIDTH 13 0
BBX 13 13 0 -2
BITMAP
3740
3740
3750
6B50
6F60
E740
6F60
6B50
6B50
6740
6ED8
6ED8
6878
ENDCHAR
STARTCHAR 4F7C
ENCODING 20348
SWIDTH 1040 0
DWIDTH 13 0
BBX 13 13 0 -2
BITMAP
18C0
18C0
1FF8
33A0
3730
7768
D760
33A0
33E0
30C0
33A0
3730
3E18
ENDCHAR
STARTCHAR 4F7F
ENCODING 20351
SWIDTH 1040 0
DWIDTH 13 0
BBX 13 13 0 -2
BITMAP
18C0
1FF8
18C0
37F8
36D8
76D8
D7F8
36C0
3740
3740
33C0
3760
3E38
ENDCHAR
STARTCHAR 4F83
ENCODING 20355
SWIDTH 1040 0
DWIDTH 13 0
BBX 13 13 0 -2
BITMAP
1800
1FF0
1E30
3630
3630
77F0
D000
36A0
36A0
36A0
36A8
3BA8
3038
ENDCHAR
STARTCHAR 4F86
ENCODING 20358
SWIDTH 1040 0
DWIDTH 13 0
BBX 13 13 0 -2
BITMAP
0700
0700
FFF8
3760
3760
3B60
6FB0
C718
C798
0F80
3B60
E738
0700
ENDCHAR
STARTCHAR 4F88
ENCODING 20360
SWIDTH 1040 0
DWIDTH 13 0
BBX 13 13 0 -2
BITMAP
1B80
1BF0
1B30
3EA0
30C0
77A0
DEF8
3398
3350
3750
3060
33C0
3700
ENDCHAR
STARTCHAR 4F8B
ENCODING 20363
SWIDTH 1040 0
DWIDTH 13 0
BBX 13 13 0 -2
BITMAP
3018
3FE8
3668
6E68
6FA8
EBA8
6EA8
7768
6768
6768
6E18
6818
7038
ENDCHAR
STARTCHAR 4F8D
ENCODING 20365
SWIDTH 1040 0
DWIDTH 13 0
BBX 13 13 0 -2
BITMAP
1B80
1FF0
1B80
3380
3FF8
7060
DFF8
3660
3760
3760
3060
3060
30E0
ENDCHAR
STARTCHAR 4F8F
ENCODING 20367
SWIDTH 1040 0
DWIDTH 13 0
BBX 13 13 0 -2
BITMAP
30C0
36C0
37F8
6EC0
68C0
EFF8
60C0
63E0
6350
6750
6ED8
60C0
60C0
ENDCHAR
STARTCHAR 4F91
ENCODING 20369
SWIDTH 1040 0
DWIDTH 13 0
BBX 13 13 0 -2
BITMAP
1B80
1B80
1FF8
3380
37F0
7730
D7F0
3B30
3330
37F0
3730
3730
3770
ENDCHAR
STARTCHAR 4F96
ENCODING 20374
SWIDTH 1040 0
DWIDTH 13 0
BBX 13 13 0 -2
BITMAP
0700
0E80
38E0
EFD8
0000
7FF0
6EB0
6EB0
6EB0
7FF0
6EB0
6EB0
6EB0
ENDCHAR
STARTCHAR 4F98
ENCODING 20376
SWIDTH 1040 0
DWIDTH 13 0
BBX 13 13 0 -2
BITMAP
3380
3FF8
3818
6868
63C0
EF80
6380
63F8
6380
6F80
6380
6398
60F8
ENDCHAR
STARTCHAR 4F9B
ENCODING 20379
SWIDTH 1040 0
DWIDTH 13 0
BBX 13 13 0 -2
BITMAP
1BB0
1BB0
1BB0
37F8
33B0
73B0
D3B0
3FF8
3000
3000
33B0
3718
3618
ENDCHAR
STARTCHAR 4F9D
ENCODING 20381
SWIDTH 1040 0
DWIDTH 13 0
BBX 13 13 0 -2
BITMAP
18C0
18C0
1FF8
30C0
3398
7750
D760
3B40
3360
3760
3760
37D0
3718
ENDCHAR
STARTCHAR 4FA0
ENCODING 20384
SWIDTH 1040 0
DWIDTH 13 0
BBX 13 13 0 -2
BITMAP
3380
3380
3FF0
6BB0
6EA0
EE80
7FF8
6380
63C0
63C0
6760
6E30
7818
ENDCHAR
STARTCHAR 4FA1
ENCODING 20385
SWIDTH 1040 0
DWIDTH 13 0
BBX 13 13 0 -2
BITMAP
1800
1FF8
1BA0
33A0
37F8
76A8
D6A8
36A8
36A8
36A8
36A8
37F8
3600
ENDCHAR
STARTCHAR 4FAB
ENCODING 20395
SWIDTH 1040 0
DWIDTH 13 0
BBX 13 13 0 -2
BITMAP
30C0
30C0
37F8
6E00
6E00
E7F0
6700
6FF8
6F60
6760
6FA0
63E0
6F30
ENDCHAR
STARTCHAR 4FAD
ENCODING 20397
SWIDTH 1040 0
DWIDTH 13 0
BBX 13 13 0 -2
BITMAP
3000
37F8
3618
6FF8
6E60
EE60
6ED0
6E70
6878
6818
6B88
70C0
6060
ENDCHAR
STARTCHAR 4FAE
ENCODING 20398
SWIDTH 1040 0
DWIDTH 13 0
BBX 13 13 0 -2
BITMAP
3600
37F8
3600
6BF0
6B50
E750
6FF8
6ED0
6ED0
6ED0
6FF8
6830
60E0
ENDCHAR
STARTCHAR 4FAF
ENCODING 20399
SWIDTH 1040 0
DWIDTH 13 0
BBX 13 13 0 -2
BITMAP
1800
1BF0
1830
37F8
3700
77F8
D6C0
38C0
38F8
37F8
33A0
3730
3E18
ENDCHAR
STARTCHAR 4FB5
ENCODING 20405
SWIDTH 1040 0
DWIDTH 13 0
BBX 13 13 0 -2
BITMAP
1BF0
1830
1BF0
3030
3FF8
7808
DBF0
3030
37A0
37A0
30C0
33A0
3738
ENDCHAR
STARTCHAR 4FB6
ENCODING 20406
SWIDTH 1040 0
DWIDTH 13 0
BBX 13 13 0 -2
BITMAP
1800
1BF0
1B30
3730
37F0
7380
D700
37F8
3618
3618
3618
3618
37F8
ENDCHAR
STARTCHAR 4FBF
ENCODING 20415
SWIDTH 1040 0
DWIDTH 13 0
BBX 13 13 0 -2
BITMAP
1800
1FF8
18C0
37F8
36D8
77F8
D6D8
37F8
3740
3740
33C0
3760
3E38
ENDCHAR
STARTCHAR 4FC2
ENCODING 20418
SWIDTH 1040 0
DWIDTH 13 0
BBX 13 13 0 -2
BITMAP
1870
1FC0
1BB0
3760
33C0
73B0
D7E8
30C0
37D0
3750
3758
36D8
30C0
ENDCHAR
STARTCHAR 4FC3
ENCODING 20419
SWIDTH 1040 0
DWIDTH 13 0
BBX 13 13 0 -2
BITMAP
3000
37F0
3630
6E30
6FF0
E0C0
6EC0
6EF8
6EC0
6EC0
6F40
6BC0
7078
ENDCHAR
STARTCHAR 4FC4
ENCODING 20420
SWIDTH 1040 0
DWIDTH 13 0
BBX 13 13 0 -2
BITMAP
3740
3ED0
36D8
36C0
7FF8
6EC0
EF50
6ED0
6EE0
6E60
76E8
6EB8
6E18
ENDCHAR
STARTCHAR 4FCA
ENCODING 20426
SWIDTH 1040 0
DWIDTH 13 0
BBX 13 13 0 -2
BITMAP
18C0
1BB0
1FE8
33A0
33A8
7778
D680
33F0
33B0
37B0
36E0
37B0
3E18
ENDCHAR
STARTCHAR 4FCE
ENCODING 20430
SWIDTH 1040 0
DWIDTH 13 0
BBX 13 13 0 -2
BITMAP
37F0
3730
3730
6B30
6FF0
D730
3730
37F0
2B30
6B30
6F30
C730
1FF8
ENDCHAR
STARTCHAR 4FD0
ENCODING 20432
SWIDTH 1040 0
DWIDTH 13 0
BBX 13 13 0 -2
BITMAP
33D8
3F68
3768
6768
7FE8
EF68
6FA8
6B68
7B68
7768
6718
6718
6738
ENDCHAR
STARTCHAR 4FD1
ENCODING 20433
SWIDTH 1040 0
DWIDTH 13 0
BBX 13 13 0 -2
BITMAP
1800
1FF0
1BA0
30C0
37F8
76D8
D7F8
36D8
36D8
37F8
36D8
36D8
36D8
ENDCHAR
STARTCHAR 4FD4
ENCODING 20436
SWIDTH 1040 0
DWIDTH 13 0
BBX 13 13 0 -2
BITMAP
3000
37F0
3630
6FF0
6E30
EFF0
6E30
6FF0
6F40
6740
6740
6ED8
6878
ENDCHAR
STARTCHAR 4FD7
ENCODING 20439
SWIDTH 1040 0
DWIDTH 13 0
BBX 13 13 0 -2
BITMAP
1BA0
1BB0
1B58
36D8
33A0
7730
D618
3BF0
3B30
3730
3730
3730
37F0
ENDCHAR
STARTCHAR 4FD8
ENCODING 20440
SWIDTH 1040 0
DWIDTH 13 0
BBX 13 13 0 -2
BITMAP
3070
3FE0
3760
6BB0
7398
EFF0
60E0
6380
63F8
7FF8
6380
6380
6780
ENDCHAR
STARTCHAR 4FDA
ENCODING 20442
SWIDTH 1040 0
DWIDTH 13 0
BBX 13 13 0 -2
BITMAP
1800
1FF0
1EB0
37F0
36B0
76B0
D7F0
3380
33F0
37F0
3380
3380
3FF8
ENDCHAR
STARTCHAR 4FDB
ENCODING 20443
SWIDTH 1040 0
DWIDTH 13 0
BBX 13 13 0 -2
BITMAP
3700
37E0
3660
60C0
6FF0
EBB0
6BB0
6FF0
6F40
6740
6758
6ED8
6878
ENDCHAR
STARTCHAR 4FDD
ENCODING 20445
SWIDTH 1040 0
DWIDTH 13 0
BBX 13 13 0 -2
BITMAP
3000
37F0
3630
6E30
6FF0
E380
7FF8
67C0
66A0
6EA0
6BB0
7398
6380
ENDCHAR
STARTCHAR 4FDF
ENCODING 20447
SWIDTH 1040 0
DWIDTH 13 0
BBX 13 13 0 -2
BITMAP
3700
3740
3660
6FD0
6E00
EFF0
6B80
7380
73F8
7FF8
6740
6E60
7838
ENDCHAR
STARTCHAR 4FE1
ENCODING 20449
SWIDTH 1040 0
DWIDTH 13 0
BBX 13 13 0 -2
BITMAP
1BE0
1800
1FF8
3000
37F0
7000
D7F0
3000
37F0
37F0
3730
3730
37F0
ENDCHAR
STARTCHAR 4FE3
ENCODING 20451
SWIDTH 1040 0
DWIDTH 13 0
BBX 13 13 0 -2
BITMAP
3000
37F0
3630
6E30
6FF0
E000
6FF0
6380
63F8
6FF8
63C0
6760
6E38
ENDCHAR
STARTCHAR 4FE4
ENCODING 20452
SWIDTH 1040 0
DWIDTH 13 0
BBX 13 13 0 -2
BITMAP
3660
3740
3FF0
33B0
6FF0
6B80
EFF8
6798
6698
6E98
6B98
73B0
6380
ENDCHAR
STARTCHAR 4FE5
ENCODING 20453
SWIDTH 1040 0
DWIDTH 13 0
BBX 13 13 0 -2
BITMAP
30C0
3FF8
30C0
6FF8
6ED8
EFF8
6ED8
6FF8
6FC0
60C0
6FF8
60C0
60C0
ENDCHAR
STARTCHAR 4FEE
ENCODING 20462
SWIDTH 1040 0
DWIDTH 13 0
BBX 13 13 0 -2
BITMAP
3700
37F8
3730
6BA0
68E0
EFB0
68D8
6BA0
6BD8
68D8
6BB0
60E0
6F80
ENDCHAR
STARTCHAR 4FEF
ENCODING 20463
SWIDTH 1040 0
DWIDTH 13 0
BBX 13 13 0 -2
BITMAP
3380
3FF8
3BB0
6BB0
6BF8
EF30
6BB0
6B50
6B50
6B50
7730
7730
6770
ENDCHAR
STARTCHAR 4FF3
ENCODING 20467
SWIDTH 1040 0
DWIDTH 13 0
BBX 13 13 0 -2
BITMAP
3740
3740
3F78
6740
6740
EF78
6740
6740
6778
7F78
6EC0
6EC0
68C0
ENDCHAR
STARTCHAR 4FF5
ENCODING 20469
SWIDTH 1040 0
DWIDTH 13 0
BBX 13 13 0 -2
BITMAP
30C0
37F8
30C0
6FF8
60C0
EFF8
6380
6758
6750
6F50
6B60
67D0
6F18
ENDCHAR
STARTCHAR 4FF6
ENCODING 20470
SWIDTH 1040 0
DWIDTH 13 0
BBX 13 13 0 -2
BITMAP
3600
36F8
3798
6E68
7FE8
EE68
6F68
6EB0
6EB0
6EB0
7670
6ED8
6E98
ENDCHAR
STARTCHAR 4FF8
ENCODING 20472
SWIDTH 1040 0
DWIDTH 13 0
BBX 13 13 0 -2
BITMAP
30C0
37F8
30C0
67F0
63A0
EFF8
6750
6FE8
6FC8
60C0
6FF8
60C0
60C0
ENDCHAR
STARTCHAR 4FFA
ENCODING 20474
SWIDTH 1040 0
DWIDTH 13 0
BBX 13 13 0 -2
BITMAP
3380
3380
3FF8
6740
EEB0
6FE8
76A0
6FE0
6EA0
6EA0
6FE0
6398
60F8
ENDCHAR
STARTCHAR 4FFE
ENCODING 20478
SWIDTH 1040 0
DWIDTH 13 0
BBX 13 13 0 -2
BITMAP
3380
3700
3FF0
6BB0
6FF0
EBB0
6FF0
6EC0
6EF8
7FF8
60C0
60C0
60C0
ENDCHAR
STARTCHAR 5005
ENCODING 20485
SWIDTH 1040 0
DWIDTH 13 0
BBX 13 13 0 -2
BITMAP
3380
3380
3FF8
6E60
6E60
EB50
6B98
6380
63F8
7FF8
6380
6380
6380
ENDCHAR
STARTCHAR 5006
ENCODING 20486
SWIDTH 1040 0
DWIDTH 13 0
BBX 13 13 0 -2
BITMAP
3000
3FF8
30C0
6FF8
68C8
EF70
6B50
6B50
6F68
6EE8
68C8
68C8
68D8
ENDCHAR
STARTCHAR 5009
ENCODING 20489
SWIDTH 1040 0
DWIDTH 13 0
BBX 13 13 0 -2
BITMAP
0700
0E80
38E0
FFF8
3060
3FE0
3060
3FE0
3000
3000
3FF0
6830
DFF0
ENDCHAR
STARTCHAR 500B
ENCODING 20491
SWIDTH 1040 0
DWIDTH 13 0
BBX 13 13 0 -2
BITMAP
3000
3FF8
3B98
6B98
6FF8
EB98
6BE8
6B68
6B68
6B68
6BE8
6818
6FF8
ENDCHAR
STARTCHAR 500D
ENCODING 20493
SWIDTH 1040 0
DWIDTH 13 0
BBX 13 13 0 -2
BITMAP
18C0
18C0
1FF8
3730
33A0
7FF8
D000
37F0
3730
3730
3730
3730
37F0
ENDCHAR
STARTCHAR 500F
ENCODING 20495
SWIDTH 1040 0
DWIDTH 13 0
BBX 13 13 0 -2
BITMAP
3700
37F8
3730
6EE0
6BA0
EF38
68E0
68D0
68D8
6FF8
68C0
63A0
6F38
ENDCHAR
STARTCHAR 5011
ENCODING 20497
SWIDTH 1040 0
DWIDTH 13 0
BBX 13 13 0 -2
BITMAP
1800
1FB8
1EA8
37B8
36A8
77B8
D618
3618
3618
3618
3618
3618
3638
ENDCHAR
STARTCHAR 5012
ENCODING 20498
SWIDTH 1040 0
DWIDTH 13 0
BBX 13 13 0 -2
BITMAP
3018
3FD8
3768
6EA8
6F68
E768
6FE8
6768
6768
6768
67D8
6E18
6038
ENDCHAR
STARTCHAR 5014
ENCODING 20500
SWIDTH 1040 0
DWIDTH 13 0
BBX 13 13 0 -2
BITMAP
3000
37F8
3618
6FF8
6EC0
EF50
6F50
6BF0
6BC0
68C0
76D8
6ED8
6FF8
ENDCHAR
STARTCHAR 5016
ENCODING 20502
SWIDTH 1040 0
DWIDTH 13 0
BBX 13 13 0 -2
BITMAP
18C0
18C0
1FF0
30C0
3FF8
7730
D7F8
30C0
30F0
37F0
30C0
30C0
30C0
ENDCHAR
STARTCHAR 5019
ENCODING 20505
SWIDTH 1040 0
DWIDTH 13 0
BBX 13 13 0 -2
BITMAP
3000
37F0
3030
6FF8
6B00
EBF0
6EC0
68C0
68F8
6FF8
6BA0
6730
6E18
ENDCHAR
STARTCHAR 501A
ENCODING 20506
SWIDTH 1040 0
DWIDTH 13 0
BBX 13 13 0 -2
BITMAP
3380
3FF8
33C0
6760
6E30
FFF8
6030
6FD0
6ED0
6ED0
6FD0
6030
6070
ENDCHAR
STARTCHAR 501F
ENCODING 20511
SWIDTH 1040 0
DWIDTH 13 0
BBX 13 13 0 -2
BITMAP
1B60
1B60
1FF0
3760
3FF8
7000
D7F0
3630
3630
37F0
3630
3630
37F0
ENDCHAR
STARTCHAR 5021
ENCODING 20513
SWIDTH 1040 0
DWIDTH 13 0
BBX 13 13 0 -2
BITMAP
1BF0
1B30
1BF0
3730
37F0
7000
D7F8
3618
3618
37F8
3618
3618
37F8
ENDCHAR
STARTCHAR 5023
ENCODING 20515
SWIDTH 1040 0
DWIDTH 13 0
BBX 13 13 0 -2
BITMAP
36C0
36C0
36F8
7FD8
6ED8
EFA8
6EB0
6EB0
6AB0
6BB0
6BA8
73A8
6F48
ENDCHAR
STARTCHAR 5024
ENCODING 20516
SWIDTH 1040 0
DWIDTH 13 0
BBX 13 13 0 -2
BITMAP
30C0
37F8
30C0
67F0
6B30
EBF0
6B30
6BF0
6B30
6B30
6BF0
6800
6FF8
ENDCHAR
STARTCHAR 5025
ENCODING 20517
SWIDTH 1040 0
DWIDTH 13 0
BBX 13 13 0 -2
BITMAP
3380
3380
3FF8
6B58
6740
EEF8
6800
6FF0
6F80
6380
6380
6380
7FF8
ENDCHAR
STARTCHAR 5026
ENCODING 20518
SWIDTH 1040 0
DWIDTH 13 0
BBX 13 13 0 -2
BITMAP
33B0
36A0
3FF0
6380
6FF8
E740
6E60
6FD0
7FD8
70D8
6FC0
6E30
67F0
ENDCHAR
STARTCHAR 5028
ENCODING 20520
SWIDTH 1040 0
DWIDTH 13 0
BBX 13 13 0 -2
BITMAP
3000
37F8
3618
6FF8
6EC0
EFF8
6EC0
6EC0
6AF8
6BF8
6B18
7718
67F8
ENDCHAR
STARTCHAR 5029
ENCODING 20521
SWIDTH 1040 0
DWIDTH 13 0
BBX 13 13 0 -2
BITMAP
3380
3FF0
3380
6FE0
6380
FFF8
6BB0
6BB0
6BB0
6FF0
6830
6830
6870
ENDCHAR
STARTCHAR 502A
ENCODING 20522
SWIDTH 1040 0
DWIDTH 13 0
BBX 13 13 0 -2
BITMAP
3380
3770
3630
37B0
6E30
6E30
EFF0
6740
6740
6740
6758
6ED8
6878
ENDCHAR
STARTCHAR 502B
ENCODING 20523
SWIDTH 1040 0
DWIDTH 13 0
BBX 13 13 0 -2
BITMAP
3380
3380
3740
6E60
6FF0
F018
6FF0
6B50
6B50
6FF0
6B50
6B50
6870
ENDCHAR
STARTCHAR 502C
ENCODING 20524
SWIDTH 1040 0
DWIDTH 13 0
BBX 13 13 0 -2
BITMAP
3380
33F8
3380
6FF0
6830
EFF0
6830
6FF0
6F80
6380
7FF8
6380
6380
ENDCHAR
STARTCHAR 502D
ENCODING 20525
SWIDTH 1040 0
DWIDTH 13 0
BBX 13 13 0 -2
BITMAP
3070
37C0
3380
6FF8
67C0
EEA0
6BB8
6700
67F8
6FF8
6F60
63C0
6F70
ENDCHAR
STARTCHAR 5036
ENCODING 20534
SWIDTH 1040 0
DWIDTH 13 0
BBX 13 13 0 -2
BITMAP
1800
1FF0
1E30
3630
37F0
7630
D7F0
3630
3638
3FF8
33A0
3730
3E18
ENDCHAR
STARTCHAR 5039
ENCODING 20537
SWIDTH 1040 0
DWIDTH 13 0
BBX 13 13 0 -2
BITMAP
18C0
1BA0
1B30
36E8
38C8
77F8
D6D8
37F8
37C0
33C0
33A0
3730
3618
ENDCHAR
STARTCHAR 5043
ENCODING 20547
SWIDTH 1040 0
DWIDTH 13 0
BBX 13 13 0 -2
BITMAP
3000
3FF8
3BF0
6B30
6BF0
EB30
6FF8
6BB0
6BA0
6BA0
68E0
6BB0
6FF8
ENDCHAR
STARTCHAR 5047
ENCODING 20551
SWIDTH 1040 0
DWIDTH 13 0
BBX 13 13 0 -2
BITMAP
3000
3FB8
3B98
6B98
6FB8
E800
6FB8
68D8
68F8
6868
6FB0
6868
6BC8
ENDCHAR
STARTCHAR 5048
ENCODING 20552
SWIDTH 1040 0
DWIDTH 13 0
BBX 13 13 0 -2
BITMAP
3000
37F0
3630
6FF0
6E30
EFF0
6700
6FF8
6ED8
6ED8
76A8
6FE8
6070
ENDCHAR
STARTCHAR 5049
ENCODING 20553
SWIDTH 1040 0
DWIDTH 13 0
BBX 13 13 0 -2
BITMAP
1B80
1BF0
1BB0
3FF8
3730
77F0
D0C0
37F0
36C0
36C0
3FF8
30C0
30C0
ENDCHAR
STARTCHAR 504F
ENCODING 20559
SWIDTH 1040 0
DWIDTH 13 0
BBX 13 13 0 -2
BITMAP
37F0
3000
3FF0
6830
6FF0
E800
6FF8
6EA8
6EA8
6FF8
76A8
76A8
6E38
ENDCHAR
STARTCHAR 5050
ENCODING 20560
SWIDTH 1040 0
DWIDTH 13 0
BBX 13 13 0 -2
BITMAP
30C0
37F8
3730
63A0
6FF8
EE60
6ED0
6FA0
6ED8
6ED8
6BB0
68E0
7780
ENDCHAR
STARTCHAR 5055
ENCODING 20565
SWIDTH 1040 0
DWIDTH 13 0
BBX 13 13 0 -2
BITMAP
36C0
36C0
37D8
6EE0
6FD8
FE78
6000
6FF0
6E30
6E30
6FF0
6E30
6FF0
ENDCHAR
STARTCHAR 5056
ENCODING 20566
SWIDTH 1040 0
DWIDTH 13 0
BBX 13 13 0 -2
BITMAP
3380
3380
37F0
63A0
6FF8
E3C0
6760
6FF0
6B30
7B30
67F0
6730
67F0
ENDCHAR
STARTCHAR 505A
ENCODING 20570
SWIDTH 1040 0
DWIDTH 13 0
BBX 13 13 0 -2
BITMAP
3660
3660
3660
7FF8
6ED0
EED0
6F50
6B50
6B70
6B60
6F60
63B0
6718
ENDCHAR
STARTCHAR 505C
ENCODING 20572
SWIDTH 1040 0
DWIDTH 13 0
BBX 13 13 0 -2
BITMAP
18C0
1FF8
1800
37F0
3730
7FF8
D808
37F0
37C0
30C0
30C0
30C0
33C0
ENDCHAR
STARTCHAR 5065
ENCODING 20581
SWIDTH 1040 0
DWIDTH 13 0
BBX 13 13 0 -2
BITMAP
3060
33F8
3F68
67F8
6E68
EFF8
6760
6BF8
6B60
6F60
67F8
6EA0
68F8
ENDCHAR
STARTCHAR 506C
ENCODING 20588
SWIDTH 1040 0
DWIDTH 13 0
BBX 13 13 0 -2
BITMAP
3700
3700
37F8
6EA8
6BA8
F6E8
6398
6770
6F80
6B80
6B58
7730
63F0
ENDCHAR
STARTCHAR 5072
ENCODING 20594
SWIDTH 1040 0
DWIDTH 13 0
BBX 13 13 0 -2
BITMAP
3000
3FF0
3BB0
6FF0
6BB0
EBB0
6FF0
6380
6B50
6B50
6B58
7768
63E0
ENDCHAR
STARTCHAR 5074
ENCODING 20596
SWIDTH 1040 0
DWIDTH 13 0
BBX 13 13 0 -2
BITMAP
3018
3FA8
3BA8
6BA8
6FA8
6BA8
EFA8
6BA8
6BA8
6FA8
6718
6E98
6838
ENDCHAR
STARTCHAR 5075
ENCODING 20597
SWIDTH 1040 0
DWIDTH 13 0
BBX 13 13 0 -2
BITMAP
18C0
18F8
18C0
37F0
3630
77F0
D630
37F0
3630
3630
37F0
3730
3E18
ENDCHAR
STARTCHAR 5076
ENCODING 20598
SWIDTH 1040 0
DWIDTH 13 0
BBX 13 13 0 -2
BITMAP
3000
37F0
36B0
6FF0
6EB0
EFF0
6380
6FF8
6BA8
6BA8
6BE8
6F68
6838
ENDCHAR
STARTCHAR 5078
ENCODING 20600
SWIDTH 1040 0
DWIDTH 13 0
BBX 13 13 0 -2
BITMAP
3380
33C0
3760
6FD0
6818
FF68
6B68
6F50
6B50
6B50
6F50
6B68
6B68
ENDCHAR
STARTCHAR 507D
ENCODING 20605
SWIDTH 1040 0
DWIDTH 13 0
BBX 13 13 0 -2
BITMAP
36C0
3740
3380
6FE0
6760
E7F0
6E30
6FF8
7FF8
7018
6EA8
6B98
6070
ENDCHAR
STARTCHAR 5080
ENCODING 20608
SWIDTH 1040 0
DWIDTH 13 0
BBX 13 13 0 -2
BITMAP
3380
3700
3FF0
6BB0
6FF0
EBB0
6FF0
67A0
67A0
67A0
6ED8
6E98
68F8
ENDCHAR
STARTCHAR 5085
ENCODING 20613
SWIDTH 1040 0
DWIDTH 13 0
BBX 13 13 0 -2
BITMAP
33A0
3FF8
3380
6FF0
6BB0
EFF0
6BB0
6060
6078
7FF8
6E60
6760
60E0
ENDCHAR
STARTCHAR 508D
ENCODING 20621
SWIDTH 1040 0
DWIDTH 13 0
BBX 13 13 0 -2
BITMAP
30C0
3FF8
3760
6760
6FF8
EB98
6FF8
6380
63F0
63F0
6730
6E30
78E0
ENDCHAR
STARTCHAR 5091
ENCODING 20625
SWIDTH 1040 0
DWIDTH 13 0
BBX 13 13 0 -2
BITMAP
3630
3730
3B78
6F50
67F8
EE30
7BB0
6FF8
6FC0
67C0
6EA0
6BB8
6380
ENDCHAR
STARTCHAR 5098
ENCODING 20632
SWIDTH 1040 0
DWIDTH 13 0
BBX 13 13 0 -2
BITMAP
0700
0E80
38E0
E738
3760
6B50
3760
6B50
6B58
FFF8
0700
0700
0700
ENDCHAR
STARTCHAR 5099
ENCODING 20633
SWIDTH 1040 0
DWIDTH 13 0
BBX 13 13 0 -2
BITMAP
3760
37F8
3760
6FF8
6800
EBF8
6B58
6BF8
6B58
6B58
6BF8
7758
6758
ENDCHAR
STARTCHAR 509A
ENCODING 20634
SWIDTH 1040 0
DWIDTH 13 0
BBX 13 13 0 -2
BITMAP
3660
3660
3FF8
6B50
73B0
EB50
6B50
6E60
6F60
6F60
6BD0
73B0
6718
ENDCHAR
STARTCHAR 50AC
ENCODING 20652
SWIDTH 1040 0
DWIDTH 13 0
BBX 13 13 0 -2
BITMAP
18C0
1ED8
1FF8
3760
36C0
77F8
DEC0
37F0
36C0
36C0
37F0
36C0
37F8
ENDCHAR
STARTCHAR 50AD
ENCODING 20653
SWIDTH 1040 0
DWIDTH 13 0
BBX 13 13 0 -2
BITMAP
3380
3FF8
38C0
6BF0
68D0
EFF8
EB58
6BF8
6B58
6B58
6BF8
6B58
7758
ENDCHAR
STARTCHAR 50B2
ENCODING 20658
SWIDTH 1040 0
DWIDTH 13 0
BBX 13 13 0 -2
BITMAP
3660
3660
3FB8
6ED8
7FD8
EEA8
7FB0
6E30
6FB0
6FB0
6EA8
6BD8
7788
ENDCHAR
STARTCHAR 50B3
ENCODING 20659
SWIDTH 1040 0
DWIDTH 13 0
BBX 13 13 0 -2
BITMAP
33A0
3FF8
36B0
6FF0
6EB0
EFF0
63B0
6FD8
6FF8
6060
7FF8
6E60
60E0
ENDCHAR
STARTCHAR 50B4
ENCODING 20660
SWIDTH 1040 0
DWIDTH 13 0
BBX 13 13 0 -2
BITMAP
3000
3FF8
6BF0
6BB0
EBF0
6800
6BF8
6B68
6B68
6B68
6BF8
6800
6FF8
ENDCHAR
STARTCHAR 50B5
ENCODING 20661
SWIDTH 1040 0
DWIDTH 13 0
BBX 13 13 0 -2
BITMAP
18C0
1FF0
30C0
37F0
70C0
DFF8
3730
37F0
3730
3730
37F0
37B0
3E18
ENDCHAR
STARTCHAR 50B7
ENCODING 20663
SWIDTH 1040 0
DWIDTH 13 0
BBX 13 13 0 -2
BITMAP
1B00
1BF8
3730
3BF0
7730
DFF8
3700
37F8
3FA8
3BA8
3758
3398
3770
ENDCHAR
STARTCHAR 50BE
ENCODING 20670
SWIDTH 1040 0
DWIDTH 13 0
BBX 13 13 0 -2
BITMAP
3000
37F8
30C0
6BF0
6BB0
EEF0
6BB0
6BF0
6BB0
6BB0
6FF0
63D0
6F18
ENDCHAR
STARTCHAR 50C2
ENCODING 20674
SWIDTH 1040 0
DWIDTH 13 0
BBX 13 13 0 -2
BITMAP
3380
37F0
36B0
7FF8
6EB0
EFF0
6EB0
6FF8
6F60
6760
6F60
63C0
6F70
ENDCHAR
STARTCHAR 50C5
ENCODING 20677
SWIDTH 1040 0
DWIDTH 13 0
BBX 13 13 0 -2
BITMAP
33A0
37F8
33A0
6FF8
6ED8
EFF8
60C0
6FF8
6FC0
60C0
67F0
60C0
6FF8
ENDCHAR
STARTCHAR 50C9
ENCODING 20681
SWIDTH 1040 0
DWIDTH 13 0
BBX 13 13 0 -2
BITMAP
0700
0E80
38E0
EFD8
0000
7EF0
6EB0
7EF0
70E0
3060
3870
6ED8
C398
ENDCHAR
STARTCHAR 50CA
ENCODING 20682
SWIDTH 1040 0
DWIDTH 13 0
BBX 13 13 0 -2
BITMAP
3FF8
3740
3FF0
6B50
6FF0
E380
7FF8
6FF0
6E68
6E68
77E0
6E18
67F8
ENDCHAR
STARTCHAR 50CD
ENCODING 20685
SWIDTH 1040 0
DWIDTH 13 0
BBX 13 13 0 -2
BITMAP
37D0
3F30
3778
6FD0
6B50
EFD0
6B50
6FD0
6F50
6730
6FB0
67E8
6E68
ENDCHAR
STARTCHAR 50CF
ENCODING 20687
SWIDTH 1040 0
DWIDTH 13 0
BBX 13 13 0 -2
BITMAP
33E0
3740
3FF8
6ED8
6FF8
E3D8
6F50
67A0
66B0
6EF0
67A8
6E68
63C0
ENDCHAR
STARTCHAR 50D1
ENCODING 20689
SWIDTH 1040 0
DWIDTH 13 0
BBX 13 13 0 -2
BITMAP
1BF0
18C0
37F8
33A0
3738
73E0
D3A0
37F8
36E8
36E8
36A8
36E8
3638
ENDCHAR
STARTCHAR 50D5
ENCODING 20693
SWIDTH 1040 0
DWIDTH 13 0
BBX 13 13 0 -2
BITMAP
3740
3B50
3FF8
7740
6FF0
E380
6FF0
6380
63F8
6FF8
6740
6E60
7838
ENDCHAR
STARTCHAR 50D6
ENCODING 20694
SWIDTH 1040 0
DWIDTH 13 0
BBX 13 13 0 -2
BITMAP
3380
3FF8
3380
6FF0
6830
EFF0
6E60
7FF8
6000
6000
6FF0
6830
6FF0
ENDCHAR
STARTCHAR 50DA
ENCODING 20698
SWIDTH 1040 0
DWIDTH 13 0
BBX 13 13 0 -2
BITMAP
3380
3FF8
3380
6B50
6E60
EFF0
7668
6FE0
6FA0
63A0
6EB0
6BB0
6780
ENDCHAR
STARTCHAR 50DE
ENCODING 20702
SWIDTH 1040 0
DWIDTH 13 0
BBX 13 13 0 -2
BITMAP
3070
3FD0
36D8
6FE0
6E60
EFF0
6E30
6FF8
68D8
68D8
6B68
7698
6E70
ENDCHAR
STARTCHAR 50E3
ENCODING 20707
SWIDTH 1040 0
DWIDTH 13 0
BBX 13 13 0 -2
BITMAP
3760
3FF8
3760
6FF8
6760
EED0
68D8
6FF0
6E30
6E30
6FF0
6E30
6FF0
ENDCHAR
STARTCHAR 50E5
ENCODING 20709
SWIDTH 1040 0
DWIDTH 13 0
BBX 13 13 0 -2
BITMAP
3380
37F0
3380
7FF8
6E60
EF70
6E60
6F70
6F78
7FF8
6740
6ED8
6878
ENDCHAR
STARTCHAR 50E7
ENCODING 20711
SWIDTH 1040 0
DWIDTH 13 0
BBX 13 13 0 -2
BITMAP
1B30
1BA0
37F8
36D8
77F8
D6D8
37F8
37F0
3730
3730
37F0
3730
37F0
ENDCHAR
STARTCHAR 50ED
ENCODING 20717
SWIDTH 1040 0
DWIDTH 13 0
BBX 13 13 0 -2
BITMAP
3730
3FF8
3B50
6FF8
6F70
EB50
77B8
6FF0
6E30
6E30
6FF0
6E30
6FF0
ENDCHAR
STARTCHAR 50EE
ENCODING 20718
SWIDTH 1040 0
DWIDTH 13 0
BBX 13 13 0 -2
BITMAP
30C0
37F8
3730
6FF8
6ED8
EFF8
6ED8
6FF8
6FC0
60C0
6FF8
60C0
6FF8
ENDCHAR
STARTCHAR 50F5
ENCODING 20725
SWIDTH 1040 0
DWIDTH 13 0
BBX 13 13 0 -2
BITMAP
3000
3FF8
36B0
6FF0
6EB0
EFF8
6000
6FF0
6EB0
6EB0
6FF0
6EB0
6FF8
ENDCHAR
STARTCHAR 50F9
ENCODING 20729
SWIDTH 1040 0
DWIDTH 13 0
BBX 13 13 0 -2
BITMAP
3000
3FF8
3740
6FF8
6B58
EFF8
6E30
6FF0
6FF0
6FF0
6E30
6FF0
6E38
ENDCHAR
STARTCHAR 50FB
ENCODING 20731
SWIDTH 1040 0
DWIDTH 13 0
BBX 13 13 0 -2
BITMAP
3060
3F60
3BF8
6B50
6F50
EBF8
6F60
7B60
6B78
6BF8
6B60
6F60
6060
ENDCHAR
STARTCHAR 5100
ENCODING 20736
SWIDTH 1040 0
DWIDTH 13 0
BBX 13 13 0 -2
BITMAP
3760
3FF8
3380
6FF0
6380
FFF8
6F50
6FF8
6F50
6750
6F68
6758
6F18
ENDCHAR
STARTCHAR 5101
ENCODING 20737
SWIDTH 1040 0
DWIDTH 13 0
BBX 13 13 0 -2
BITMAP
3760
3740
37F8
6EC0
77F0
EEC0
6FF8
6000
6F78
6F78
6B58
6BD8
6838
ENDCHAR
STARTCHAR 5102
ENCODING 20738
SWIDTH 1040 0
DWIDTH 13 0
BBX 13 13 0 -2
BITMAP
33A0
37F8
36A8
6FF8
6EA8
EFF8
6800
6FF8
6B58
6B58
6B70
77D0
6F18
ENDCHAR
STARTCHAR 5104
ENCODING 20740
SWIDTH 1040 0
DWIDTH 13 0
BBX 13 13 0 -2
BITMAP
30C0
37F0
3760
3FF8
6E30
6FF0
EE30
6FF0
6B80
6B80
6B50
7768
63E0
ENDCHAR
STARTCHAR 5109
ENCODING 20745
SWIDTH 1040 0
DWIDTH 13 0
BBX 13 13 0 -2
BITMAP
3380
33C0
3760
6FF0
6818
EF70
6B50
6F70
6E60
6E60
6F70
68D8
7380
ENDCHAR
STARTCHAR 5112
ENCODING 20754
SWIDTH 1040 0
DWIDTH 13 0
BBX 13 13 0 -2
BITMAP
37F0
3380
3FF8
6B98
6BE8
E000
6FF8
6380
63F8
6FF8
6EA8
6EA8
6EB8
ENDCHAR
STARTCHAR 5114
ENCODING 20756
SWIDTH 1040 0
DWIDTH 13 0
BBX 13 13 0 -2
BITMAP
30C0
37F8
30C0
6FF8
6FE8
E380
6FF8
6030
6038
7FF8
6BB0
6F50
6070
ENDCHAR
STARTCHAR 5115
ENCODING 20757
SWIDTH 1040 0
DWIDTH 13 0
BBX 13 13 0 -2
BITMAP
30C0
37F8
33A8
6F78
6F50
EB68
7730
67F0
6730
6730
67F0
6E30
6830
ENDCHAR
STARTCHAR 5116
ENCODING 20758
SWIDTH 1040 0
DWIDTH 13 0
BBX 13 13 0 -2
BITMAP
3FA0
3B60
3FB8
6BC0
6F80
EB78
6FC0
6000
6FF0
6FF0
6B50
6B50
7FF8
ENDCHAR
STARTCHAR 5118
ENCODING 20760
SWIDTH 1040 0
DWIDTH 13 0
BBX 13 13 0 -2
BITMAP
3380
37F0
33B0
7FF8
6FF0
E380
7FF8
6BA8
6BB8
6FF0
6B50
6B50
7FF8
ENDCHAR
STARTCHAR 511A
ENCODING 20762
SWIDTH 1040 0
DWIDTH 13 0
BBX 13 13 0 -2
BITMAP
3760
3FF8
3760
6FF0
6B50
EFF0
6000
7FF8
77E8
77E8
6F60
63C0
6F00
ENDCHAR
STARTCHAR 511F
ENCODING 20767
SWIDTH 1040 0
DWIDTH 13 0
BBX 13 13 0 -2
BITMAP
36B0
3760
3FF8
6BE8
6B68
EFF0
6E30
6FF0
6E30
6E30
6FF0
6730
6E18
ENDCHAR
STARTCHAR 5121
ENCODING 20769
SWIDTH 1040 0
DWIDTH 13 0
BBX 13 13 0 -2
BITMAP
3000
37F0
36B0
6FF0
6EB0
EFF0
6000
7FF8
76A8
76A8
7FF8
76A8
7FF8
ENDCHAR
STARTCHAR 512A
ENCODING 20778
SWIDTH 1040 0
DWIDTH 13 0
BBX 13 13 0 -2
BITMAP
3FF8
3380
37E0
6760
6FF8
EBA8
6ED0
6BE8
6B68
6F60
6BC0
67A0
6E38
ENDCHAR
STARTCHAR 5132
ENCODING 20786
SWIDTH 1040 0
DWIDTH 13 0
BBX 13 13 0 -2
BITMAP
3760
30F8
3FA0
6060
6FF8
E0C0
6F78
60D8
60D8
6FF8
6B58
6B58
6F78
ENDCHAR
STARTCHAR 5137
ENCODING 20791
SWIDTH 1040 0
DWIDTH 13 0
BBX 13 13 0 -2
BITMAP
3F78
3000
3F78
76A8
6FF8
EFF0
6B50
6FF0
6EA8
6EA8
6F70
76A8
6F78
ENDCHAR
STARTCHAR 513A
ENCODING 20794
SWIDTH 1040 0
DWIDTH 13 0
BBX 13 13 0 -2
BITMAP
36A8
3FD0
36F8
6FD0
6B50
EFF8
6750
6FD0
6F58
6778
7FD0
6BD0
70F8
ENDCHAR
STARTCHAR 513B
ENCODING 20795
SWIDTH 1040 0
DWIDTH 13 0
BBX 13 13 0 -2
BITMAP
36B0
3FF8
3B68
67E0
6FF0
EF70
6ED0
6FF0
6FC0
60C0
6FF8
6EB0
6B58
ENDCHAR
STARTCHAR 513C
ENCODING 20796
SWIDTH 1040 0
DWIDTH 13 0
BBX 13 13 0 -2
BITMAP
37B8
36A8
3FF8
6BA0
6BA0
EFF8
6B68
6BE8
6B50
6B50
6FD0
6BA8
73C8
ENDCHAR
STARTCHAR 513F
ENCODING 20799
SWIDTH 1040 0
DWIDTH 13 0
BBX 13 13 0 -2
BITMAP
18C0
18C0
18C0
18C0
18C0
18C0
18C0
18C0
10C0
30C0
30D8
60D8
C078
ENDCHAR
STARTCHAR 5140
ENCODING 20800
SWIDTH 1040 0
DWIDTH 13 0
BBX 13 12 0 -2
BITMAP
FFF8
18C0
18C0
18C0
18C0
18C0
18C0
10C0
30C0
30D8
60D8
C078
ENDCHAR
STARTCHAR 5141
ENCODING 20801
SWIDTH 1040 0
DWIDTH 13 0
BBX 12 13 1 -2
BITMAP
1C00
1C00
3780
60E0
FFB0
1D00
1D00
1D00
1100
3700
3730
6730
C1F0
ENDCHAR
STARTCHAR 5143
ENCODING 20803
SWIDTH 1040 0
DWIDTH 13 0
BBX 12 12 1 -2
BITMAP
3FC0
0000
0000
FFF0
1D80
1D80
1D80
1180
3180
31B0
61B0
C0F0
ENDCHAR
STARTCHAR 5144
ENCODING 20804
SWIDTH 1040 0
DWIDTH 13 0
BBX 13 12 0 -2
BITMAP
3FE0
3060
3060
3060
3FE0
0E80
0E80
0E80
0E80
1B98
3398
E0F8
ENDCHAR
STARTCHAR 5145
ENCODING 20805
SWIDTH 1040 0
DWIDTH 13 0
BBX 13 13 0 -2
BITMAP
0E00
0E00
FFF8
0E80
18E0
7FB0
1B80
1B80
1B80
1B80
3398
6398
C0F8
ENDCHAR
STARTCHAR 5146
ENCODING 20806
SWIDTH 1040 0
DWIDTH 13 0
BBX 13 13 0 -2
BITMAP
0E80
0EB0
6EB0
36A0
36C0
0E80
1EC0
36B0
2EB0
EB80
1B98
3398
E0F8
ENDCHAR
STARTCHAR 5147
ENCODING 20807
SWIDTH 1040 0
DWIDTH 13 0
BBX 13 13 0 -2
BITMAP
0380
6EB0
6730
67B0
6ED0
6830
7FF0
0E80
0E80
0E80
1B98
3398
E0F8
ENDCHAR
STARTCHAR 5148
ENCODING 20808
SWIDTH 1040 0
DWIDTH 13 0
BBX 13 13 0 -2
BITMAP
0700
3700
3700
3FE0
3700
6700
FFF8
0E80
0E80
0E80
1B98
3398
E0F8
ENDCHAR
STARTCHAR 5149
ENCODING 20809
SWIDTH 1040 0
DWIDTH 13 0
BBX 13 13 0 -2
BITMAP
0700
6760
3760
3740
0700
7FF8
0E80
0E80
0880
1B80
1B98
3398
E0F8
ENDCHAR
STARTCHAR 514B
ENCODING 20811
SWIDTH 1040 0
DWIDTH 13 0
BBX 13 13 0 -2
BITMAP
0700
0700
FFF8
0700
3FE0
3060
3060
3FE0
3E80
0E80
0E98
1B98
F0F8
ENDCHAR
STARTCHAR 514C
ENCODING 20812
SWIDTH 1040 0
DWIDTH 13 0
BBX 13 13 0 -2
BITMAP
0EC0
18C0
3060
EFF8
3060
3060
3FE0
0E80
0E80
0E80
1B98
3398
E0F8
ENDCHAR
STARTCHAR 514D
ENCODING 20813
SWIDTH 1040 0
DWIDTH 13 0
BBX 13 13 0 -2
BITMAP
0E00
0FC0
1B80
3700
FFF0
3730
3730
3FF0
3E80
0E80
1B98
3398
E0F8
ENDCHAR
STARTCHAR 514E
ENCODING 20814
SWIDTH 1040 0
DWIDTH 13 0
BBX 13 13 0 -2
BITMAP
00F0
7F80
0700
7FF0
6730
6730
7FF0
0E80
0EC0
0EC0
1BA8
3398
E0F8
ENDCHAR
STARTCHAR 5150
ENCODING 20816
SWIDTH 1040 0
DWIDTH 13 0
BBX 13 13 0 -2
BITMAP
6FE0
6E60
6E60
6FE0
6E60
6E60
6FE0
6380
7B80
1B80
1B98
3398
E0F8
ENDCHAR
STARTCHAR 5152
ENCODING 20818
SWIDTH 1040 0
DWIDTH 13 0
BBX 12 13 1 -2
BITMAP
1C00
77C0
60C0
60C0
7DC0
60C0
60C0
7FC0
7D80
1D80
1DB0
31B0
E0F0
ENDCHAR
STARTCHAR 5154
ENCODING 20820
SWIDTH 1040 0
DWIDTH 13 0
BBX 13 13 0 -2
BITMAP
0E00
0FC0
1B80
3700
FFF0
6730
6730
7FF0
7EC0
0EC0
1BA8
3398
E0F8
ENDCHAR
STARTCHAR 515A
ENCODING 20826
SWIDTH 1040 0
DWIDTH 13 0
BBX 13 13 0 -2
BITMAP
3760
1B40
FFF8
C018
DFE8
3060
3060
3FE0
3E80
0E80
0E80
3B98
E0F8
ENDCHAR
STARTCHAR 515C
ENCODING 20828
SWIDTH 1040 0
DWIDTH 13 0
BBX 13 13 0 -2
BITMAP
1B00
77F0
6EB0
6FB0
6EB0
7EF0
6FB0
0000
0E80
0E80
1B98
3398
E0F8
ENDCHAR
STARTCHAR 5162
ENCODING 20834
SWIDTH 1040 0
DWIDTH 13 0
BBX 13 13 0 -2
BITMAP
1860
FFF8
1860
7EF0
6EB0
6EB0
7EF0
38E0
38E0
38E0
3BA8
6EA8
C738
ENDCHAR
STARTCHAR 5165
ENCODING 20837
SWIDTH 1040 0
DWIDTH 13 0
BBX 13 12 0 -2
BITMAP
1F00
0700
0700
0700
0700
0E80
0E80
08C0
18C0
3060
6030
C018
ENDCHAR
STARTCHAR 5168
ENCODING 20840
SWIDTH 1040 0
DWIDTH 13 0
BBX 13 13 0 -2
BITMAP
0700
0700
0E80
18C0
3060
FFF8
0700
0700
07E0
3FE0
0700
0700
FFF8
ENDCHAR
STARTCHAR 5169
ENCODING 20841
SWIDTH 1040 0
DWIDTH 13 0
BBX 13 12 0 -2
BITMAP
FFF8
0700
FFF8
C718
DB68
DB68
DB68
D348
D758
E798
C718
C738
ENDCHAR
STARTCHAR 516A
ENCODING 20842
SWIDTH 1040 0
DWIDTH 13 0
BBX 13 13 0 -2
BITMAP
1F00
0E80
18C0
37A0
E038
7ED0
76D0
6EA0
7EA0
76A0
6ED0
6ED0
6ED0
ENDCHAR
STARTCHAR 516B
ENCODING 20843
SWIDTH 1040 0
DWIDTH 13 0
BBX 13 12 0 -2
BITMAP
1FC0
00C0
00C0
18C0
18C0
18C0
1860
1060
3060
3030
6030
C018
ENDCHAR
STARTCHAR 516C
ENCODING 20844
SWIDTH 1040 0
DWIDTH 13 0
BBX 13 13 0 -2
BITMAP
18C0
18C0
18C0
3060
3730
6718
C700
0EC0
0EE0
0E60
1BE0
7E30
0030
ENDCHAR
STARTCHAR 516D
ENCODING 20845
SWIDTH 1040 0
DWIDTH 13 0
BBX 13 12 0 -1
BITMAP
0700
0700
0700
FFF8
0000
1B80
18C0
3060
3070
3030
6030
C030
ENDCHAR
STARTCHAR 516E
ENCODING 20846
SWIDTH 1040 0
DWIDTH 13 0
BBX 13 13 0 -2
BITMAP
1B80
1B80
30C0
6060
DFD8
0E00
0E00
1FC0
18C0
18C0
00C0
00C0
0780
ENDCHAR
STARTCHAR 5171
ENCODING 20849
SWIDTH 1040 0
DWIDTH 13 0
BBX 13 13 0 -2
BITMAP
18C0
18C0
18C0
7FF0
18C0
18C0
18C0
FFF8
FFC0
00C0
1860
3030
E030
ENDCHAR
STARTCHAR 5175
ENCODING 20853
SWIDTH 1040 0
DWIDTH 13 0
BBX 13 13 0 -2
BITMAP
03C0
3F00
3000
3000
3FF0
30C0
30C0
30C0
30F8
FFF8
1B80
30E0
E030
ENDCHAR
STARTCHAR 5176
ENCODING 20854
SWIDTH 1040 0
DWIDTH 13 0
BBX 13 13 0 -2
BITMAP
18C0
18C0
7FF0
18C0
1FC0
18C0
1FC0
18C0
18F8
FFF8
18C0
3070
E018
ENDCHAR
STARTCHAR 5177
ENCODING 20855
SWIDTH 1040 0
DWIDTH 13 0
BBX 13 13 0 -2
BITMAP
3FC0
30C0
3FC0
30C0
3FC0
30C0
3FC0
0000
FFF8
FFF8
1B80
30E0
E030
ENDCHAR
STARTCHAR 5178
ENCODING 20856
SWIDTH 1040 0
DWIDTH 13 0
BBX 13 13 0 -2
BITMAP
0E80
0E80
7FF0
6EB0
6EB0
7FF0
6EB0
6EB0
6EB8
FFF8
18C0
3070
E018
ENDCHAR
STARTCHAR 517C
ENCODING 20860
SWIDTH 1040 0
DWIDTH 13 0
BBX 13 13 0 -2
BITMAP
18C0
FFF8
0E80
7FF0
0EB0
FFF8
0EB0
7FF0
7EC0
1EC0
36A0
EEB8
0E80
ENDCHAR
STARTCHAR 5180
ENCODING 20864
SWIDTH 1040 0
DWIDTH 13 0
BBX 13 13 0 -2
BITMAP
1BB0
FBE0
1B98
3FF8
F760
3FE0
3760
7FF0
78C0
18C0
FFF8
3860
E030
ENDCHAR
STARTCHAR 5182
ENCODING 20866
SWIDTH 1040 0
DWIDTH 13 0
BBX 12 12 1 -2
BITMAP
FFF0
C030
C030
C030
C030
C030
C030
C030
C030
C030
C030
C070
ENDCHAR
STARTCHAR 5185
ENCODING 20869
SWIDTH 1040 0
DWIDTH 13 0
BBX 12 13 1 -2
BITMAP
0E00
0E00
FFF0
CE30
CE30
DD30
D1B0
E0D0
C0D0
C030
C030
C030
C070
ENDCHAR
STARTCHAR 5186
ENCODING 20870
SWIDTH 1040 0
DWIDTH 13 0
BBX 11 12 1 -2
BITMAP
FFE0
CE60
CE60
CE60
FFE0
C060
C060
C060
C060
C060
C060
C0E0
ENDCHAR
STARTCHAR 5189
ENCODING 20873
SWIDTH 1040 0
DWIDTH 13 0
BBX 13 13 0 -2
BITMAP
0700
0700
3FE0
3760
3760
3FE0
3760
3760
3778
FFF8
3060
3060
30E0
ENDCHAR
STARTCHAR 518A
ENCODING 20874
SWIDTH 1040 0
DWIDTH 13 0
BBX 13 12 0 -2
BITMAP
3FF0
36D0
36D0
36D0
36D0
FFF8
36D0
36D0
36D0
36D0
36D0
3070
ENDCHAR
STARTCHAR 518C
ENCODING 20876
SWIDTH 1040 0
DWIDTH 13 0
BBX 13 13 0 -2
BITMAP
7EF0
6EB0
6EB0
6EB0
6EB0
FFF8
6EB0
6EB0
6EB0
6EB0
6EB0
6EB0
DF70
ENDCHAR
STARTCHAR 518D
ENCODING 20877
SWIDTH 1040 0
DWIDTH 13 0
BBX 13 12 0 -2
BITMAP
7FF0
0700
3FE0
3760
3FE0
3760
3760
3778
FFF8
3060
3060
30E0
ENDCHAR
STARTCHAR 518F
ENCODING 20879
SWIDTH 1040 0
DWIDTH 13 0
BBX 12 12 1 -2
BITMAP
FFF0
DDB0
DDB0
D0F0
E030
DFB0
DDB0
DDB0
DDB0
DFB0
C030
C070
ENDCHAR
STARTCHAR 5190
ENCODING 20880
SWIDTH 1040 0
DWIDTH 13 0
BBX 12 13 1 -2
BITMAP
FFF0
C030
DFD0
C030
DFD0
0000
7FE0
6060
60A0
7FA0
6FE0
6060
60E0
ENDCHAR
STARTCHAR 5191
ENCODING 20881
SWIDTH 1040 0
DWIDTH 13 0
BBX 11 13 1 -2
BITMAP
0E00
FFE0
CE60
FFE0
CE60
FFE0
60C0
6F40
6F40
60C0
6F40
60C0
61C0
ENDCHAR
STARTCHAR 5192
ENCODING 20882
SWIDTH 1040 0
DWIDTH 13 0
BBX 11 12 1 -2
BITMAP
FFE0
C060
FFE0
C060
FFE0
60C0
7FC0
60C0
60C0
7FC0
60C0
7FC0
ENDCHAR
STARTCHAR 5193
ENCODING 20883
SWIDTH 1040 0
DWIDTH 13 0
BBX 13 13 0 -2
BITMAP
18C0
7FF0
18C0
7FF0
18C0
FFF8
3760
3FE0
3760
3760
FFF8
3060
30E0
ENDCHAR
STARTCHAR 5195
ENCODING 20885
SWIDTH 1040 0
DWIDTH 13 0
BBX 13 13 0 -2
BITMAP
7FF0
6030
6FD0
6030
6FD0
3B80
FFF0
6730
6730
7FF0
0E80
3B98
E0F8
ENDCHAR
STARTCHAR 5196
ENCODING 20886
SWIDTH 1040 0
DWIDTH 13 0
BBX 13 3 0 4
BITMAP
FFF8
C018
C018
ENDCHAR
STARTCHAR 5197
ENCODING 20887
SWIDTH 1040 0
DWIDTH 13 0
BBX 13 12 0 -2
BITMAP
FFF8
C018
C018
1F80
1B80
1B80
1B80
1B80
1B80
1B98
3398
E0F8
ENDCHAR
STARTCHAR 5199
ENCODING 20889
SWIDTH 1040 0
DWIDTH 13 0
BBX 13 12 0 -2
BITMAP
FFF8
D818
D818
1FE0
1800
1FC0
00C0
00F8
FFF8
00C0
00C0
0780
ENDCHAR
STARTCHAR 51A0
ENCODING 20896
SWIDTH 1040 0
DWIDTH 13 0
BBX 13 12 0 -2
BITMAP
FFF8
C068
FF68
03F8
FF60
36A0
36A0
36A0
3660
6EE8
6E18
C7F8
ENDCHAR
STARTCHAR 51A2
ENCODING 20898
SWIDTH 1040 0
DWIDTH 13 0
BBX 13 12 0 -2
BITMAP
FFF8
C018
DFE8
0F30
6BB0
F7E0
1EC0
1AA0
7BA0
1EB0
7380
0F00
ENDCHAR
STARTCHAR 51A4
ENCODING 20900
SWIDTH 1040 0
DWIDTH 13 0
BBX 13 12 0 -2
BITMAP
FFF8
C708
1FC0
F380
7FF0
6730
6730
6730
7FF0
0EC0
3BA8
E0F8
ENDCHAR
STARTCHAR 51A5
ENCODING 20901
SWIDTH 1040 0
DWIDTH 13 0
BBX 13 12 0 -2
BITMAP
FFF8
C018
DFE8
3060
3FE0
3060
3FE0
3F00
0700
FFF8
18E0
7030
ENDCHAR
STARTCHAR 51A6
ENCODING 20902
SWIDTH 1040 0
DWIDTH 13 0
BBX 13 12 0 -2
BITMAP
FFF8
C0D8
7EF0
00C0
FFF0
6B30
6BA0
6BA0
68E0
6BB0
DB18
CFF8
ENDCHAR
STARTCHAR 51A8
ENCODING 20904
SWIDTH 1040 0
DWIDTH 13 0
BBX 13 12 0 -2
BITMAP
FFF8
C018
DFE8
0000
3FE0
3060
7FF0
6730
6730
7FF0
6730
7FF0
ENDCHAR
STARTCHAR 51A9
ENCODING 20905
SWIDTH 1040 0
DWIDTH 13 0
BBX 13 12 0 -2
BITMAP
FFF8
CE18
DEE8
3060
3EE0
3060
3FE0
3E00
0E00
3FF8
EB58
3070
ENDCHAR
STARTCHAR 51AA
ENCODING 20906
SWIDTH 1040 0
DWIDTH 13 0
BBX 13 12 0 -2
BITMAP
FFF8
DB98
FFF8
30C0
3FC0
30C0
FFF8
F6C0
36C0
7FE0
D6D8
36C0
ENDCHAR
STARTCHAR 51AB
ENCODING 20907
SWIDTH 1040 0
DWIDTH 13 0
BBX 6 12 4 -1
BITMAP
E0
70
70
00
0C
38
70
70
60
E0
E0
E0
ENDCHAR
STARTCHAR 51AC
ENCODING 20908
SWIDTH 1040 0
DWIDTH 13 0
BBX 13 13 0 -2
BITMAP
0700
0FE0
1860
36C0
E780
0E80
38E0
EF38
EFB8
0380
1E00
0780
00C0
ENDCHAR
STARTCHAR 51B0
ENCODING 20912
SWIDTH 1040 0
DWIDTH 13 0
BBX 13 13 0 -2
BITMAP
00C0
C0C0
60C0
60C8
1F58
0770
0760
36D0
26D8
6ED8
68C8
C0C0
C3C0
ENDCHAR
STARTCHAR 51B1
ENCODING 20913
SWIDTH 1040 0
DWIDTH 13 0
BBX 13 12 0 -2
BITMAP
DFF8
6700
6700
07F0
0730
0E30
3660
2660
6FE0
6E60
C060
DFF8
ENDCHAR
STARTCHAR 51B2
ENCODING 20914
SWIDTH 1040 0
DWIDTH 13 0
BBX 13 13 0 -2
BITMAP
00C0
C0C0
60C0
6FF8
0EC8
0EC8
0EC8
37F8
26C0
6EC0
60C0
C0C0
C0C0
ENDCHAR
STARTCHAR 51B3
ENCODING 20915
SWIDTH 1040 0
DWIDTH 13 0
BBX 13 13 0 -2
BITMAP
00C0
C0C0
6FF8
60D8
00D8
00D8
3FF8
60C0
60C0
60C0
C3A0
C730
1E18
ENDCHAR
STARTCHAR 51B4
ENCODING 20916
SWIDTH 1040 0
DWIDTH 13 0
BBX 13 12 0 -2
BITMAP
CFF8
6760
6760
0760
1FF8
00E0
30E0
20A0
63A0
6F60
D860
C0E0
ENDCHAR
STARTCHAR 51B5
ENCODING 20917
SWIDTH 1040 0
DWIDTH 13 0
BBX 13 12 0 -2
BITMAP
CFF0
6E30
6E30
0E30
0FF0
3740
6740
6740
6740
CED8
D8D8
3078
ENDCHAR
STARTCHAR 51B6
ENCODING 20918
SWIDTH 1040 0
DWIDTH 13 0
BBX 13 13 0 -2
BITMAP
0380
C380
63A0
6730
0EF8
1F98
0000
37F0
3630
6E30
6E30
CE30
CFF0
ENDCHAR
STARTCHAR 51B7
ENCODING 20919
SWIDTH 1040 0
DWIDTH 13 0
BBX 13 13 0 -2
BITMAP
0380
C380
6740
6EE0
1FF0
3018
0FF0
33B0
23B0
63B0
63E0
C380
C380
ENDCHAR
STARTCHAR 51BD
ENCODING 20925
SWIDTH 1040 0
DWIDTH 13 0
BBX 13 13 0 -2
BITMAP
0018
DFA8
6E68
6E68
1FA8
1BA8
1EA8
77A8
67A8
6768
C718
CE18
1838
ENDCHAR
STARTCHAR 51C4
ENCODING 20932
SWIDTH 1040 0
DWIDTH 13 0
BBX 13 13 0 -2
BITMAP
0380
DFF8
6380
6FF0
03B0
1FF8
33B0
6FF8
6F60
6760
CFA0
C3E0
1F30
ENDCHAR
STARTCHAR 51C5
ENCODING 20933
SWIDTH 1040 0
DWIDTH 13 0
BBX 13 12 0 -2
BITMAP
DFF8
6B98
6FF8
1B98
1B98
3FE8
6E68
6E68
6E68
DFE8
D818
1FF8
ENDCHAR
STARTCHAR 51C6
ENCODING 20934
SWIDTH 1040 0
DWIDTH 13 0
BBX 13 13 0 -2
BITMAP
0730
C760
6FF8
6EC0
1EC0
37F0
36C0
6EC0
6EF0
6FF0
CEC0
CEC0
0FF8
ENDCHAR
STARTCHAR 51C9
ENCODING 20937
SWIDTH 1040 0
DWIDTH 13 0
BBX 13 13 0 -2
BITMAP
0380
DFF8
6000
6FF0
0E30
0E30
37F0
6380
62A0
6EA0
CEB0
DBB0
0780
ENDCHAR
STARTCHAR 51CB
ENCODING 20939
SWIDTH 1040 0
DWIDTH 13 0
BBX 13 12 0 -2
BITMAP
CFF8
6ED8
6EE8
0ED8
0FF8
3618
6EE8
6EA8
6EA8
CEE8
D818
3038
ENDCHAR
STARTCHAR 51CC
ENCODING 20940
SWIDTH 1040 0
DWIDTH 13 0
BBX 13 13 0 -2
BITMAP
0380
DFF0
6380
6FF8
0740
3EF8
0700
67E0
6660
6E60
C7C0
CF60
D838
ENDCHAR
STARTCHAR 51CD
ENCODING 20941
SWIDTH 1040 0
DWIDTH 13 0
BBX 13 13 0 -2
BITMAP
0380
DFF8
6380
6FF0
0EB0
0FF0
36B0
6FF0
6FC0
67C0
CEB0
DB98
0380
ENDCHAR
STARTCHAR 51D6
ENCODING 20950
SWIDTH 1040 0
DWIDTH 13 0
BBX 13 13 0 -2
BITMAP
0760
C740
6FF8
1EC0
0FF0
6EC0
CFF8
C700
C700
0700
FFF8
0700
0700
ENDCHAR
STARTCHAR 51DB
ENCODING 20955
SWIDTH 1040 0
DWIDTH 13 0
BBX 13 13 0 -2
BITMAP
00C0
DFF8
6EA8
6EE8
0E18
0FF8
37F0
6000
6FF8
6FF8
CED8
D8C8
03C0
ENDCHAR
STARTCHAR 51DC
ENCODING 20956
SWIDTH 1040 0
DWIDTH 13 0
BBX 13 13 0 -2
BITMAP
0380
DFF8
6830
1BD0
1B50
1FF0
00E0
3780
27F8
6FF8
6EA0
DBB0
C380
ENDCHAR
STARTCHAR 51DD
ENCODING 20957
SWIDTH 1040 0
DWIDTH 13 0
BBX 13 13 0 -2
BITMAP
33F8
3718
DED0
7760
1FF8
1868
1FA0
76B8
76A0
6FA0
CEA0
DB60
3738
ENDCHAR
STARTCHAR 51E0
ENCODING 20960
SWIDTH 1040 0
DWIDTH 13 0
BBX 13 13 0 -2
BITMAP
1FC0
18C0
18C0
18C0
18C0
18C0
18C0
18C0
10C0
30C0
30D8
60D8
C078
ENDCHAR
STARTCHAR 51E1
ENCODING 20961
SWIDTH 1040 0
DWIDTH 13 0
BBX 12 12 1 -2
BITMAP
3F80
3180
3180
3180
3D80
3680
3680
3680
3180
61B0
61B0
C0F0
ENDCHAR
STARTCHAR 51E6
ENCODING 20966
SWIDTH 1040 0
DWIDTH 13 0
BBX 13 13 0 -2
BITMAP
3000
33E0
3EA0
36A0
6EA0
6EA0
D6A8
1BA8
1B28
1B38
3600
6780
C0F8
ENDCHAR
STARTCHAR 51E7
ENCODING 20967
SWIDTH 1040 0
DWIDTH 13 0
BBX 13 12 0 -2
BITMAP
7FF0
6730
6730
6FD0
6B50
6B50
6B50
6B50
6B50
6BD0
C718
C708
ENDCHAR
STARTCHAR 51E9
ENCODING 20969
SWIDTH 1040 0
DWIDTH 13 0
BBX 13 12 0 -2
BITMAP
7FF0
6730
6730
7FF0
6730
6FB0
6F50
6B50
6B70
7730
C718
C708
ENDCHAR
STARTCHAR 51EA
ENCODING 20970
SWIDTH 1040 0
DWIDTH 13 0
BBX 13 12 0 -2
BITMAP
7FF0
6730
6730
6B30
6BD0
6B30
6B30
6B30
6B30
7FE8
6018
C008
ENDCHAR
STARTCHAR 51ED
ENCODING 20973
SWIDTH 1040 0
DWIDTH 13 0
BBX 13 13 0 -2
BITMAP
3070
37C0
60C0
EFF8
60C0
6FF0
6000
1FC0
18C0
18C0
18D8
30D8
6078
ENDCHAR
STARTCHAR 51F0
ENCODING 20976
SWIDTH 1040 0
DWIDTH 13 0
BBX 13 12 0 -2
BITMAP
7FF0
6730
6FD0
68D0
6FD0
68D0
6FD0
6F10
6730
6FD0
C718
DFE8
ENDCHAR
STARTCHAR 51F1
ENCODING 20977
SWIDTH 1040 0
DWIDTH 13 0
BBX 13 13 0 -2
BITMAP
3000
D6F0
FEB0
03B0
FEB0
03B0
FEB0
CEB0
CEB0
FEB0
6BB0
7F30
EE38
ENDCHAR
STARTCHAR 51F5
ENCODING 20981
SWIDTH 1040 0
DWIDTH 13 0
BBX 12 13 1 -2
BITMAP
C030
C030
C030
C030
C030
C030
C030
C030
C030
C030
C030
FFF0
C030
ENDCHAR
STARTCHAR 51F6
ENCODING 20982
SWIDTH 1040 0
DWIDTH 13 0
BBX 12 13 1 -2
BITMAP
00C0
C0D0
D0D0
DDB0
CEB0
C730
CEB0
DCD0
D0D0
F0D0
C030
FFF0
C000
ENDCHAR
STARTCHAR 51F8
ENCODING 20984
SWIDTH 1040 0
DWIDTH 13 0
BBX 13 11 0 -1
BITMAP
1FC0
18C0
18C0
18C0
F8F8
C018
C018
C018
C018
C018
FFF8
ENDCHAR
STARTCHAR 51F9
ENCODING 20985
SWIDTH 1040 0
DWIDTH 13 0
BBX 13 11 0 -1
BITMAP
F8F8
D8D8
D8D8
D8D8
D8D8
DFD8
C018
C018
C018
C018
FFF8
ENDCHAR
STARTCHAR 51FA
ENCODING 20986
SWIDTH 1040 0
DWIDTH 13 0
BBX 11 13 1 -2
BITMAP
0E00
0E00
6EC0
6EC0
6EC0
7FC0
0E00
CE60
CE60
CE60
CE60
CE60
FFE0
ENDCHAR
STARTCHAR 51FD
ENCODING 20989
SWIDTH 1040 0
DWIDTH 13 0
BBX 13 12 0 -2
BITMAP
7FF0
0700
C718
CFA8
D3A8
DBD8
CEA8
C8A8
DBB8
C798
C018
FFF8
ENDCHAR
STARTCHAR 51FE
ENCODING 20990
SWIDTH 1040 0
DWIDTH 13 0
BBX 13 12 0 -2
BITMAP
1FE0
00C0
C798
C718
DFF8
D758
D768
D768
DF58
C798
CF18
FFF8
ENDCHAR
STARTCHAR 5200
ENCODING 20992
SWIDTH 1040 0
DWIDTH 13 0
BBX 12 12 1 -2
BITMAP
FFF0
0730
0730
0730
0730
0E30
0E30
0C30
1C30
1C30
3030
60E0
ENDCHAR
STARTCHAR 5203
ENCODING 20995
SWIDTH 1040 0
DWIDTH 13 0
BBX 12 12 1 -2
BITMAP
FFF0
0E30
0E30
0E30
3E30
0F30
0EB0
0CB0
1C30
1C30
3030
60E0
ENDCHAR
STARTCHAR 5204
ENCODING 20996
SWIDTH 1040 0
DWIDTH 13 0
BBX 12 12 1 -2
BITMAP
FFE0
0E60
0E60
CE60
6E60
3660
1C60
1F60
1F60
31F0
6060
C1C0
ENDCHAR
STARTCHAR 5206
ENCODING 20998
SWIDTH 1040 0
DWIDTH 13 0
BBX 13 13 0 -2
BITMAP
0EC0
0EC0
0E60
1860
3030
6FE8
C768
0760
0760
0760
0E60
1860
33C0
ENDCHAR
STARTCHAR 5207
ENCODING 20999
SWIDTH 1040 0
DWIDTH 13 0
BBX 13 12 0 -2
BITMAP
6FF8
60D8
6F58
F8D8
60D8
60D8
6ED8
6E98
3E98
0398
0718
1E70
ENDCHAR
STARTCHAR 5208
ENCODING 21000
SWIDTH 1040 0
DWIDTH 13 0
BBX 13 13 0 -2
BITMAP
0018
0758
0758
0758
EED8
36D8
18D8
1ED8
17D8
3758
3718
6018
C038
ENDCHAR
STARTCHAR 520A
ENCODING 21002
SWIDTH 1040 0
DWIDTH 13 0
BBX 13 13 0 -2
BITMAP
0018
7F58
18D8
18D8
18D8
FF58
18D8
18D8
18D8
18D8
1818
1818
1838
ENDCHAR
STARTCHAR 520B
ENCODING 21003
SWIDTH 1040 0
DWIDTH 13 0
BBX 13 13 0 -2
BITMAP
1F18
F8D8
18D8
18D8
18D8
FFD8
18D8
18D8
18D8
18D8
1818
3018
6038
ENDCHAR
STARTCHAR 520E
ENCODING 21006
SWIDTH 1040 0
DWIDTH 13 0
BBX 13 13 0 -2
BITMAP
3018
3068
7FA8
6BA8
DBA8
37A8
36A8
6EA8
68A8
DBA8
3398
6398
0F38
ENDCHAR
STARTCHAR 5211
ENCODING 21009
SWIDTH 1040 0
DWIDTH 13 0
BBX 13 13 0 -2
BITMAP
0018
FF58
6ED8
6ED8
6ED8
FFD8
6ED8
6ED8
6ED8
6ED8
6E18
6E18
CE38
ENDCHAR
STARTCHAR 5214
ENCODING 21012
SWIDTH 1040 0
DWIDTH 13 0
BBX 13 13 0 -2
BITMAP
3018
30D8
7F58
3758
3758
3758
FFD8
30D8
38D8
38D8
3618
6E18
C038
ENDCHAR
STARTCHAR 5217
ENCODING 21015
SWIDTH 1040 0
DWIDTH 13 0
BBX 13 13 0 -2
BITMAP
0018
FF58
30D8
30D8
3F58
6758
7758
DED8
DED8
0ED8
1818
3018
6038
ENDCHAR
STARTCHAR 521D
ENCODING 21021
SWIDTH 1040 0
DWIDTH 13 0
BBX 13 13 0 -2
BITMAP
3000
37F8
FED8
0ED8
18D8
3758
3ED8
76D8
5698
D798
3398
3718
3670
ENDCHAR
STARTCHAR 5224
ENCODING 21028
SWIDTH 1040 0
DWIDTH 13 0
BBX 13 13 0 -2
BITMAP
1818
DB58
6B58
6ED8
7F58
18D8
18D8
FFD8
F8D8
18D8
1818
1818
1838
ENDCHAR
STARTCHAR 5225
ENCODING 21029
SWIDTH 1040 0
DWIDTH 13 0
BBX 13 13 0 -2
BITMAP
0018
7F58
6758
6758
7F58
30D8
3F58
3758
3758
3758
3718
6718
DE38
ENDCHAR
STARTCHAR 5227
ENCODING 21031
SWIDTH 1040 0
DWIDTH 13 0
BBX 13 13 0 -2
BITMAP
3000
37F8
FED8
30D8
30D8
FF58
30D8
30D8
28D8
68D8
6E98
FE98
0770
ENDCHAR
STARTCHAR 5229
ENCODING 21033
SWIDTH 1040 0
DWIDTH 13 0
BBX 13 13 0 -2
BITMAP
0F18
78D8
18D8
18D8
FF58
38D8
3ED8
6B58
6B58
6818
D818
1818
1838
ENDCHAR
STARTCHAR 522A
ENCODING 21034
SWIDTH 1040 0
DWIDTH 13 0
BBX 13 13 0 -2
BITMAP
0018
FFA8
D6A8
D6A8
D6A8
FFE8
D6A8
D6A8
D6A8
D6A8
D698
D698
C7B8
ENDCHAR
STARTCHAR 522E
ENCODING 21038
SWIDTH 1040 0
DWIDTH 13 0
BBX 13 13 0 -2
BITMAP
0798
7ED8
18D8
18D8
FFD8
18D8
18D8
7F58
6758
6758
6718
6718
7F38
ENDCHAR
STARTCHAR 5230
ENCODING 21040
SWIDTH 1040 0
DWIDTH 13 0
BBX 13 13 0 -2
BITMAP
0018
FFD8
18D8
36D8
FF58
1BD8
18D8
FF58
F858
18D8
1818
1F98
F038
ENDCHAR
STARTCHAR 5233
ENCODING 21043
SWIDTH 1040 0
DWIDTH 13 0
BBX 13 13 0 -2
BITMAP
1818
FFA8
3668
6768
DEA8
0068
FFA8
3068
3F68
3F68
6718
0718
1E38
ENDCHAR
STARTCHAR 5236
ENCODING 21046
SWIDTH 1040 0
DWIDTH 13 0
BBX 13 13 0 -2
BITMAP
6818
68D8
7F58
D8D8
FFD8
18D8
7F58
6B58
6B58
6B58
6B58
6E18
1838
ENDCHAR
STARTCHAR 5237
ENCODING 21047
SWIDTH 1040 0
DWIDTH 13 0
BBX 13 13 0 -2
BITMAP
7F18
6758
6758
7F58
68D8
7F58
6B58
6B58
6B58
EB58
EB18
6F18
1838
ENDCHAR
STARTCHAR 5238
ENCODING 21048
SWIDTH 1040 0
DWIDTH 13 0
BBX 13 13 0 -2
BITMAP
3760
1B60
1B40
7FF0
0E80
FFF8
18C0
3FE0
2ED8
EED8
0EC0
18C0
3780
ENDCHAR
STARTCHAR 5239
ENCODING 21049
SWIDTH 1040 0
DWIDTH 13 0
BBX 13 13 0 -2
BITMAP
0718
76D8
18D8
36D8
E758
18D8
FFD8
1ED8
1BD8
3B58
6818
D818
1838
ENDCHAR
STARTCHAR 523A
ENCODING 21050
SWIDTH 1040 0
DWIDTH 13 0
BBX 13 13 0 -2
BITMAP
1818
FFD8
18D8
7F58
6B58
6B58
6B58
3ED8
2BD8
6B58
D818
1818
1838
ENDCHAR
STARTCHAR 523B
ENCODING 21051
SWIDTH 1040 0
DWIDTH 13 0
BBX 13 13 0 -2
BITMAP
1818
18D8
FFD8
18D8
36D8
76D8
1B58
3758
3658
6E18
1E18
3718
E038
ENDCHAR
STARTCHAR 5243
ENCODING 21059
SWIDTH 1040 0
DWIDTH 13 0
BBX 13 13 0 -2
BITMAP
6718
36D8
FF58
1B58
7F58
D8D8
FF58
1B58
1B58
3B58
6F18
D818
1838
ENDCHAR
STARTCHAR 5244
ENCODING 21060
SWIDTH 1040 0
DWIDTH 13 0
BBX 13 13 0 -2
BITMAP
0018
FFD8
6B58
6B58
D6D8
6B58
6B58
00D8
FFD8
FF58
1818
1F98
F838
ENDCHAR
STARTCHAR 5247
ENCODING 21063
SWIDTH 1040 0
DWIDTH 13 0
BBX 13 13 0 -2
BITMAP
0018
7ED8
6ED8
7ED8
6ED8
7ED8
6ED8
6ED8
6ED8
7ED8
3618
6718
C038
ENDCHAR
STARTCHAR 524A
ENCODING 21066
SWIDTH 1040 0
DWIDTH 13 0
BBX 13 13 0 -2
BITMAP
1818
DB58
6ED8
7F58
6758
7F58
6758
7F58
6758
6758
6718
6718
6F38
ENDCHAR
STARTCHAR 524B
ENCODING 21067
SWIDTH 1040 0
DWIDTH 13 0
BBX 13 13 0 -2
BITMAP
1818
FF58
18D8
7F58
6758
6758
7F58
36D8
36D8
3618
6E38
6E08
C7F8
ENDCHAR
STARTCHAR 524C
ENCODING 21068
SWIDTH 1040 0
DWIDTH 13 0
BBX 13 13 0 -2
BITMAP
1818
18D8
FFD8
18D8
FF58
DB58
DB58
FF58
FF58
3ED8
6B18
D818
1838
ENDCHAR
STARTCHAR 524D
ENCODING 21069
SWIDTH 1040 0
DWIDTH 13 0
BBX 13 13 0 -2
BITMAP
30C0
1B80
FFF8
0000
7EB0
6EB0
7EB0
6EB0
6EB0
7EB0
6EB0
6E30
6E70
ENDCHAR
STARTCHAR 524F
ENCODING 21071
SWIDTH 1040 0
DWIDTH 13 0
BBX 13 13 0 -2
BITMAP
CE00
6EF8
6868
FE68
6BA8
68E8
FF78
6868
6868
68D8
68D8
DB98
DB70
ENDCHAR
STARTCHAR 5254
ENCODING 21076
SWIDTH 1040 0
DWIDTH 13 0
BBX 13 13 0 -2
BITMAP
0018
7F68
6768
7F68
6768
7F68
3068
7FA8
56A8
D6A8
6E98
DB98
3738
ENDCHAR
STARTCHAR 5256
ENCODING 21078
SWIDTH 1040 0
DWIDTH 13 0
BBX 13 13 0 -2
BITMAP
1818
18D8
FFD8
6758
36D8
FFD8
00D8
7F58
6758
6758
6718
7F18
6038
ENDCHAR
STARTCHAR 525B
ENCODING 21083
SWIDTH 1040 0
DWIDTH 13 0
BBX 13 13 0 -2
BITMAP
0018
FFA8
C3A8
E7A8
D6A8
FFA8
DBA8
EBA8
EBA8
EBA8
FF98
C398
C7B8
ENDCHAR
STARTCHAR 525E
ENCODING 21086
SWIDTH 1040 0
DWIDTH 13 0
BBX 13 13 0 -2
BITMAP
1818
FFD8
18D8
36D8
6758
FFD8
0758
7B58
6B58
6B58
7B18
0718
0F38
ENDCHAR
STARTCHAR 5263
ENCODING 21091
SWIDTH 1040 0
DWIDTH 13 0
BBX 13 13 0 -2
BITMAP
1818
36D8
6758
DED8
18D8
7F58
6B58
7F58
7E58
1ED8
1B18
3398
E038
ENDCHAR
STARTCHAR 5264
ENCODING 21092
SWIDTH 1040 0
DWIDTH 13 0
BBX 13 13 0 -2
BITMAP
1818
FFD8
6758
3ED8
36D8
E7D8
7F58
6758
6758
7F58
6718
6718
CF38
ENDCHAR
STARTCHAR 5265
ENCODING 21093
SWIDTH 1040 0
DWIDTH 13 0
BBX 13 13 0 -2
BITMAP
7E18
0ED8
3ED8
0ED8
FFD8
1BD8
6B58
3ED8
2ED8
6E18
DB98
1818
3838
ENDCHAR
STARTCHAR 5269
ENCODING 21097
SWIDTH 1040 0
DWIDTH 13 0
BBX 13 13 0 -2
BITMAP
0F18
7868
1868
FFE8
6B68
EBA8
6B68
EBA8
EFA8
3E68
6B18
D818
1838
ENDCHAR
STARTCHAR 526A
ENCODING 21098
SWIDTH 1040 0
DWIDTH 13 0
BBX 13 13 0 -2
BITMAP
3060
18C0
FFF8
76B0
6EB0
76B0
6EB0
6E70
6E70
FFF0
0730
1E30
F0E0
ENDCHAR
STARTCHAR 526F
ENCODING 21103
SWIDTH 1040 0
DWIDTH 13 0
BBX 13 13 0 -2
BITMAP
0018
FF58
00D8
7F58
6758
7F58
00D8
FF58
DB58
DB58
FF18
DB18
FF38
ENDCHAR
STARTCHAR 5270
ENCODING 21104
SWIDTH 1040 0
DWIDTH 13 0
BBX 13 13 0 -2
BITMAP
0F18
78D8
18D8
FFD8
6B58
FFD8
6B58
FFD8
FED8
3ED8
6B18
DB98
1838
ENDCHAR
STARTCHAR 5271
ENCODING 21105
SWIDTH 1040 0
DWIDTH 13 0
BBX 13 13 0 -2
BITMAP
3000
3BF8
6ED8
FB58
30D8
FED8
D6E8
FED8
F898
3B98
3698
6718
CE70
ENDCHAR
STARTCHAR 5272
ENCODING 21106
SWIDTH 1040 0
DWIDTH 13 0
BBX 13 13 0 -2
BITMAP
1818
FFD8
DBD8
7F58
18D8
7F58
18D8
FFD8
FFD8
00D8
7F18
6718
7F38
ENDCHAR
STARTCHAR 5273
ENCODING 21107
SWIDTH 1040 0
DWIDTH 13 0
BBX 13 13 0 -2
BITMAP
6718
FFA8
6768
1868
3668
6768
DFA8
0068
7F68
7F68
6718
6718
7F38
ENDCHAR
STARTCHAR 5274
ENCODING 21108
SWIDTH 1040 0
DWIDTH 13 0
BBX 13 13 0 -2
BITMAP
1818
6B58
7F58
00D8
FFD8
00D8
7F58
6758
6758
7F58
6E18
3F18
F038
ENDCHAR
STARTCHAR 5275
ENCODING 21109
SWIDTH 1040 0
DWIDTH 13 0
BBX 13 13 0 -2
BITMAP
1818
3618
6758
FF58
6758
7F58
6758
7F58
6158
60D8
DF18
D718
3F38
ENDCHAR
STARTCHAR 527D
ENCODING 21117
SWIDTH 1040 0
DWIDTH 13 0
BBX 13 13 0 -2
BITMAP
FFD8
3668
FFA8
D6A8
FFA8
0068
7F68
0068
FFE8
FFA8
6B18
DB98
3838
ENDCHAR
STARTCHAR 527F
ENCODING 21119
SWIDTH 1040 0
DWIDTH 13 0
BBX 13 13 0 -2
BITMAP
6B18
D6D8
6B58
7F58
6B58
7F58
6B58
FFD8
FED8
3ED8
6B18
DB98
1838
ENDCHAR
STARTCHAR 5283
ENCODING 21123
SWIDTH 1040 0
DWIDTH 13 0
BBX 13 13 0 -2
BITMAP
1818
7F58
1B58
FFD8
1B58
FFD8
6B58
7F58
6B58
6B58
7F18
1F98
F038
ENDCHAR
STARTCHAR 5287
ENCODING 21127
SWIDTH 1040 0
DWIDTH 13 0
BBX 13 13 0 -2
BITMAP
1F18
18D8
7F58
7758
7ED8
60D8
7F58
6BD8
7B58
7758
6F18
D698
1838
ENDCHAR
STARTCHAR 5288
ENCODING 21128
SWIDTH 1040 0
DWIDTH 13 0
BBX 13 13 0 -2
BITMAP
7E60
6FF8
7ED0
60D0
7FF8
EE60
7EF8
0060
0078
7FF8
0E18
1818
70F0
ENDCHAR
STARTCHAR 5289
ENCODING 21129
SWIDTH 1040 0
DWIDTH 13 0
BBX 13 13 0 -2
BITMAP
3018
EF98
D6D8
D6D8
FB58
36D8
FF58
18D8
1FD8
FF58
D818
6F18
F838
ENDCHAR
STARTCHAR 528D
ENCODING 21133
SWIDTH 1040 0
DWIDTH 13 0
BBX 13 13 0 -2
BITMAP
3018
38D8
6ED8
DB58
00D8
FF58
DB58
FF58
EE58
6ED8
7758
DB98
D838
ENDCHAR
STARTCHAR 5291
ENCODING 21137
SWIDTH 1040 0
DWIDTH 13 0
BBX 13 13 0 -2
BITMAP
1818
FFA8
3668
FBE8
6BA8
DB68
6768
7F68
6768
6768
7F18
6718
C738
ENDCHAR
STARTCHAR 5292
ENCODING 21138
SWIDTH 1040 0
DWIDTH 13 0
BBX 13 13 0 -2
BITMAP
3000
3BF8
6E68
FB68
00E8
FF68
DBA8
FF58
E858
68D8
6E98
D718
CE70
ENDCHAR
STARTCHAR 5294
ENCODING 21140
SWIDTH 1040 0
DWIDTH 13 0
BBX 13 13 0 -2
BITMAP
3000
3BF8
6E68
FBA8
03A8
FF68
DB68
FF58
E858
68D8
6E98
D718
CE70
ENDCHAR
STARTCHAR 529B
ENCODING 21147
SWIDTH 1040 0
DWIDTH 13 0
BBX 11 13 1 -2
BITMAP
0E00
0E00
0E00
FFE0
0E60
0E60
0E60
1C60
1C60
1C60
3060
6060
C1C0
ENDCHAR
STARTCHAR 529F
ENCODING 21151
SWIDTH 1040 0
DWIDTH 13 0
BBX 13 13 0 -2
BITMAP
00C0
00C0
F8C0
37F8
30D8
30D8
30D8
36D8
3E98
3B98
E398
0718
0E70
ENDCHAR
STARTCHAR 52A0
ENCODING 21152
SWIDTH 1040 0
DWIDTH 13 0
BBX 13 13 0 -2
BITMAP
3000
3000
30F8
FF58
3758
3758
3758
3758
3758
3758
6758
6778
DE00
ENDCHAR
STARTCHAR 52A3
ENCODING 21155
SWIDTH 1040 0
DWIDTH 13 0
BBX 13 13 0 -2
BITMAP
0700
3760
3730
6F58
C798
1E00
F700
7FF0
7F30
0730
0E30
1830
70E0
ENDCHAR
STARTCHAR 52A9
ENCODING 21161
SWIDTH 1040 0
DWIDTH 13 0
BBX 13 13 0 -2
BITMAP
00C0
7EC0
6EC0
6FF8
7ED8
6ED8
6ED8
7ED8
6ED8
6ED8
6F98
F398
0770
ENDCHAR
STARTCHAR 52AA
ENCODING 21162
SWIDTH 1040 0
DWIDTH 13 0
BBX 13 13 0 -2
BITMAP
1800
FEF0
3630
6EA0
38C0
37A0
E738
7FF0
7F30
0730
0730
1E30
70E0
ENDCHAR
STARTCHAR 52AB
ENCODING 21163
SWIDTH 1040 0
DWIDTH 13 0
BBX 13 13 0 -2
BITMAP
1860
1860
7F60
1BF8
1868
FFA8
1868
18D8
16D8
36D8
3F58
E398
0770
ENDCHAR
STARTCHAR 52AC
ENCODING 21164
SWIDTH 1040 0
DWIDTH 13 0
BBX 13 13 0 -2
BITMAP
30C0
30C0
3F40
67F8
6758
FB58
6B58
6B58
6B58
7B58
0798
0718
1E70
ENDCHAR
STARTCHAR 52AD
ENCODING 21165
SWIDTH 1040 0
DWIDTH 13 0
BBX 13 13 0 -2
BITMAP
00C0
FEC0
36C0
37F8
6ED8
6ED8
C0D8
7ED8
6E98
6E98
6E98
6F18
7E70
ENDCHAR
STARTCHAR 52B1
ENCODING 21169
SWIDTH 1040 0
DWIDTH 13 0
BBX 13 13 0 -2
BITMAP
0F60
7860
6060
7FF8
6868
6F68
6B68
6B68
6B68
6B58
6B58
D798
EF70
ENDCHAR
STARTCHAR 52B4
ENCODING 21172
SWIDTH 1040 0
DWIDTH 13 0
BBX 13 13 0 -2
BITMAP
6E30
3730
1B60
FFF8
CE18
CE18
7FE0
0E60
0E60
0E60
1860
3060
63C0
ENDCHAR
STARTCHAR 52B5
ENCODING 21173
SWIDTH 1040 0
DWIDTH 13 0
BBX 13 13 0 -2
BITMAP
0700
1B40
1B60
3FF0
0E80
FFF8
18C0
3660
3658
FFD8
0EC0
18C0
3780
ENDCHAR
STARTCHAR 52B9
ENCODING 21177
SWIDTH 1040 0
DWIDTH 13 0
BBX 13 13 0 -2
BITMAP
18C0
18C0
FF40
37F8
6ED8
CF58
36D8
18D8
1898
1B98
3698
6718
CE70
ENDCHAR
STARTCHAR 52BC
ENCODING 21180
SWIDTH 1040 0
DWIDTH 13 0
BBX 13 13 0 -2
BITMAP
30C0
30C0
FF40
37F8
30D8
FED8
00D8
7ED8
6E98
6E98
6E98
6F18
7E70
ENDCHAR
STARTCHAR 52BE
ENCODING 21182
SWIDTH 1040 0
DWIDTH 13 0
BBX 13 13 0 -2
BITMAP
18C0
18C0
FF40
37F8
68D8
E8D8
36D8
6ED8
6898
DB98
3698
6718
CE70
ENDCHAR
STARTCHAR 52C1
ENCODING 21185
SWIDTH 1040 0
DWIDTH 13 0
BBX 13 13 0 -2
BITMAP
00C0
FF40
6B40
6BF8
D6D8
6B58
00D8
FF58
F858
18D8
1B98
1E98
F770
ENDCHAR
STARTCHAR 52C3
ENCODING 21187
SWIDTH 1040 0
DWIDTH 13 0
BBX 13 13 0 -2
BITMAP
30C0
FF40
30C0
FFF8
C758
7ED8
18D8
1F58
1858
F8D8
1B98
1B98
3B70
ENDCHAR
STARTCHAR 52C5
ENCODING 21189
SWIDTH 1040 0
DWIDTH 13 0
BBX 13 13 0 -2
BITMAP
18C0
7F40
18C0
7FF8
6B58
6B58
7F58
3ED8
3958
3B58
6B98
DB98
1B70
ENDCHAR
STARTCHAR 52C7
ENCODING 21191
SWIDTH 1040 0
DWIDTH 13 0
BBX 13 13 0 -2
BITMAP
3FE0
0EC0
3FF0
3730
3FF0
3730
3FF0
0700
07F8
7FF8
0E18
3818
E070
ENDCHAR
STARTCHAR 52C9
ENCODING 21193
SWIDTH 1040 0
DWIDTH 13 0
BBX 13 13 0 -2
BITMAP
3060
3F60
6E60
FFF8
6B68
6B68
7F68
1ED8
16D8
36D8
36B0
6E08
C7F8
ENDCHAR
STARTCHAR 52CD
ENCODING 21197
SWIDTH 1040 0
DWIDTH 13 0
BBX 13 13 0 -2
BITMAP
18C0
FF40
00C0
7FF8
6ED8
6ED8
7ED8
18D8
2ED8
6ED8
6B98
DB98
3B70
ENDCHAR
STARTCHAR 52D2
ENCODING 21202
SWIDTH 1040 0
DWIDTH 13 0
BBX 13 13 0 -2
BITMAP
68C0
FEC0
68C0
7BF8
30D8
FED8
D6D8
FED8
F298
3398
FE98
3718
3670
ENDCHAR
STARTCHAR 52D5
ENCODING 21205
SWIDTH 1040 0
DWIDTH 13 0
BBX 13 13 0 -2
BITMAP
1F40
F8C0
1BF8
FF58
6B58
7F58
6B58
7F58
7958
18D8
7E98
1F98
F770
ENDCHAR
STARTCHAR 52D7
ENCODING 21207
SWIDTH 1040 0
DWIDTH 13 0
BBX 13 13 0 -2
BITMAP
3FE0
3060
3FE0
3060
3FE0
7EC0
6FF8
7ED8
6ED8
6ED8
7ED8
6E98
F770
ENDCHAR
STARTCHAR 52D8
ENCODING 21208
SWIDTH 1040 0
DWIDTH 13 0
BBX 13 13 0 -2
BITMAP
6EC0
FF40
6EC0
7FF8
6ED8
7ED8
6ED8
FF58
D658
D6D8
EF58
C398
7F70
ENDCHAR
STARTCHAR 52D9
ENCODING 21209
SWIDTH 1040 0
DWIDTH 13 0
BBX 13 13 0 -2
BITMAP
0380
FEF8
0F60
6BA0
30E0
FFB8
36C0
37F0
37D0
70D0
D3B0
3730
76E0
ENDCHAR
STARTCHAR 52DD
ENCODING 21213
SWIDTH 1040 0
DWIDTH 13 0
BBX 13 13 0 -2
BITMAP
00C0
7B50
6FF8
68C0
7FF8
6BA0
6B50
7FF8
6BB0
6BB0
6BB0
6B30
DEE0
ENDCHAR
STARTCHAR 52DE
ENCODING 21214
SWIDTH 1040 0
DWIDTH 13 0
BBX 13 13 0 -2
BITMAP
18C0
6B50
36A0
6730
FFF8
CE18
0E00
7FF0
7E30
0E30
0E30
1830
70E0
ENDCHAR
STARTCHAR 52DF
ENCODING 21215
SWIDTH 1040 0
DWIDTH 13 0
BBX 13 13 0 -2
BITMAP
18C0
FFF8
18C0
3FE0
3060
3FE0
3060
FFF8
F760
3760
7FF0
CE68
3BC0
ENDCHAR
STARTCHAR 52E0
ENCODING 21216
SWIDTH 1040 0
DWIDTH 13 0
BBX 13 13 0 -2
BITMAP
F7A0
77A0
D6A0
77F8
D6A8
1868
3668
E768
E968
38D8
EED8
3B98
E770
ENDCHAR
STARTCHAR 52E2
ENCODING 21218
SWIDTH 1040 0
DWIDTH 13 0
BBX 13 13 0 -2
BITMAP
18C0
7EC0
1BF0
FF50
6EF0
DB58
7F98
0700
07F0
7FF0
0730
0E30
38E0
ENDCHAR
STARTCHAR 52E3
ENCODING 21219
SWIDTH 1040 0
DWIDTH 13 0
BBX 13 13 0 -2
BITMAP
30C0
FEC0
30C0
7FF8
30D8
FF58
6ED8
7ED8
6ED8
6ED8
7E98
3698
E770
ENDCHAR
STARTCHAR 52E4
ENCODING 21220
SWIDTH 1040 0
DWIDTH 13 0
BBX 13 13 0 -2
BITMAP
36C0
FF40
36C0
7FF8
6B58
7F58
18D8
7F58
7958
18D8
7ED8
1F98
FB70
ENDCHAR
STARTCHAR 52E6
ENCODING 21222
SWIDTH 1040 0
DWIDTH 13 0
BBX 13 13 0 -2
BITMAP
6B40
D6C0
6B40
7FF8
6B58
7F58
6B58
7F58
7F58
1ED8
3B58
6B98
DB70
ENDCHAR
STARTCHAR 52E7
ENCODING 21223
SWIDTH 1040 0
DWIDTH 13 0
BBX 13 13 0 -2
BITMAP
60C0
7F40
6EC0
7FF8
D8D8
7F58
E8D8
7F58
6858
68D8
7F58
6B98
7F70
ENDCHAR
STARTCHAR 52F2
ENCODING 21234
SWIDTH 1040 0
DWIDTH 13 0
BBX 13 13 0 -2
BITMAP
7F40
18C0
FFF8
6B58
7F58
6B58
7F58
1B98
1B10
FF70
6060
6BB0
CED8
ENDCHAR
STARTCHAR 52F3
ENCODING 21235
SWIDTH 1040 0
DWIDTH 13 0
BBX 13 13 0 -2
BITMAP
0F40
F8C0
18C0
FFF8
EB58
EF58
DB58
FF58
F958
18D8
FF98
6E98
DB70
ENDCHAR
STARTCHAR 52F5
ENCODING 21237
SWIDTH 1040 0
DWIDTH 13 0
BBX 13 13 0 -2
BITMAP
0060
7FA0
6B60
7FF8
7FA8
76A8
7FA8
6E68
6FE8
7FA8
D6D8
DF98
37B0
ENDCHAR
STARTCHAR 52F8
ENCODING 21240
SWIDTH 1040 0
DWIDTH 13 0
BBX 13 13 0 -2
BITMAP
6E60
FFA0
6E60
F7F8
D6A8
F7A8
6868
FF68
E868
68D8
7F58
6B98
7F70
ENDCHAR
STARTCHAR 52F9
ENCODING 21241
SWIDTH 1040 0
DWIDTH 13 0
BBX 13 13 0 -2
BITMAP
1800
1800
3FF8
3018
6018
C018
0018
0018
0018
0018
0018
0030
00E0
ENDCHAR
STARTCHAR 52FA
ENCODING 21242
SWIDTH 1040 0
DWIDTH 13 0
BBX 12 13 0 -2
BITMAP
1800
1800
1FF0
3030
6030
D830
0E30
0730
0730
0730
0030
0030
00E0
ENDCHAR
STARTCHAR 52FE
ENCODING 21246
SWIDTH 1040 0
DWIDTH 13 0
BBX 13 13 0 -2
BITMAP
3000
3000
3FF8
3718
6718
6718
CE98
0ED8
0AE8
1BE8
7E68
0018
0070
ENDCHAR
STARTCHAR 52FF
ENCODING 21247
SWIDTH 1040 0
DWIDTH 13 0
BBX 13 13 0 -2
BITMAP
3000
3000
3FF8
36D8
6ED8
CED8
18D8
1B98
1398
3398
6718
0E18
1870
ENDCHAR
STARTCHAR 5301
ENCODING 21249
SWIDTH 1040 0
DWIDTH 13 0
BBX 13 13 0 -2
BITMAP
1800
1800
1FF0
1BB0
33B0
6BB0
CF30
07B0
06B0
0EF0
1838
3030
00E0
ENDCHAR
STARTCHAR 5302
ENCODING 21250
SWIDTH 1040 0
DWIDTH 13 0
BBX 13 13 0 -2
BITMAP
1800
1800
1FF8
3018
3818
6BD8
DF18
1818
18D8
18D8
0FD8
0018
0070
ENDCHAR
STARTCHAR 5305
ENCODING 21253
SWIDTH 1040 0
DWIDTH 13 0
BBX 13 13 0 -2
BITMAP
1800
1800
1FF0
3030
EFB0
03B0
03B0
3FB0
30A0
3060
3018
3018
1FF8
ENDCHAR
STARTCHAR 5306
ENCODING 21254
SWIDTH 1040 0
DWIDTH 13 0
BBX 13 13 0 -2
BITMAP
1800
1800
3FF8
36D8
6ED8
DED8
1BD8
1BA8
13A8
3398
6718
0E30
00E0
ENDCHAR
STARTCHAR 5308
ENCODING 21256
SWIDTH 1040 0
DWIDTH 13 0
BBX 13 13 0 -2
BITMAP
1800
1800
3FF8
3018
6398
DEA8
3768
36A8
38A8
3868
3FE8
0030
00E0
ENDCHAR
STARTCHAR 530D
ENCODING 21261
SWIDTH 1040 0
DWIDTH 13 0
BBX 13 13 0 -2
BITMAP
1800
1FF8
3758
7FE8
C718
3FE8
3768
3FE8
3768
3768
3FE8
3768
00F0
ENDCHAR
STARTCHAR 530F
ENCODING 21263
SWIDTH 1040 0
DWIDTH 13 0
BBX 13 13 0 -2
BITMAP
30C0
30C0
FEF8
3398
6BE8
F6A8
FEA8
33F0
3280
3E80
6E98
0E98
38F8
ENDCHAR
STARTCHAR 5310
ENCODING 21264
SWIDTH 1040 0
DWIDTH 13 0
BBX 13 13 0 -2
BITMAP
1800
1FF8
3018
7FE8
DFD8
18D8
3FE8
3768
3768
3FE8
3768
3FE8
00F0
ENDCHAR
STARTCHAR 5315
ENCODING 21269
SWIDTH 1040 0
DWIDTH 13 0
BBX 12 13 0 -2
BITMAP
3000
3000
3000
30C0
3380
3700
3E00
F000
F000
3000
3030
3030
1FF0
ENDCHAR
STARTCHAR 5316
ENCODING 21270
SWIDTH 1040 0
DWIDTH 13 0
BBX 13 13 0 -2
BITMAP
1B80
1B80
1BB0
33B0
33A0
73C0
D380
3380
3380
3380
3398
3398
30F8
ENDCHAR
STARTCHAR 5317
ENCODING 21271
SWIDTH 1040 0
DWIDTH 13 0
BBX 13 13 0 -2
BITMAP
1B80
1B80
1B80
1BB8
FBE0
1B80
1B80
1B80
1B80
3B80
EB98
1B98
18F8
ENDCHAR
STARTCHAR 5319
ENCODING 21273
SWIDTH 1040 0
DWIDTH 13 0
BBX 13 13 0 -2
BITMAP
7E80
6E80
7E80
6EB8
7EE0
0380
FE80
1B98
2B98
6F98
78F8
6F00
C3F8
ENDCHAR
STARTCHAR 531A
ENCODING 21274
SWIDTH 1040 0
DWIDTH 13 0
BBX 12 12 1 -2
BITMAP
FFF0
C000
C000
C000
C000
C000
C000
C000
C000
C000
FFF0
C000
ENDCHAR
STARTCHAR 531D
ENCODING 21277
SWIDTH 1040 0
DWIDTH 13 0
BBX 12 12 1 -2
BITMAP
FFF0
C700
C700
DFE0
D760
D760
D760
D740
D740
C700
C700
FFF0
ENDCHAR
STARTCHAR 5320
ENCODING 21280
SWIDTH 1040 0
DWIDTH 13 0
BBX 12 12 1 -2
BITMAP
FFF0
C1C0
DF00
DC00
DFE0
DD80
DD80
D180
D180
E180
C180
FFF0
ENDCHAR
STARTCHAR 5321
ENCODING 21281
SWIDTH 1040 0
DWIDTH 13 0
BBX 13 12 0 -2
BITMAP
FFF8
C000
DFF0
C700
C700
DFE0
C700
C700
C700
DFF0
C000
FFF8
ENDCHAR
STARTCHAR 5323
ENCODING 21283
SWIDTH 1040 0
DWIDTH 13 0
BBX 12 12 1 -2
BITMAP
FFF0
C000
DFE0
D760
DFE0
D760
DFE0
DF00
C700
C700
C700
FFF0
ENDCHAR
STARTCHAR 532A
ENCODING 21290
SWIDTH 1040 0
DWIDTH 13 0
BBX 13 12 0 -2
BITMAP
FFF8
CE80
CE80
DEF0
CE80
DEF0
CE80
CEF8
FEF8
DB80
D380
FFF8
ENDCHAR
STARTCHAR 532F
ENCODING 21295
SWIDTH 1040 0
DWIDTH 13 0
BBX 13 12 0 -2
BITMAP
FFF8
D3A0
DBF8
EF40
D7F0
C740
DBF0
DB40
DB40
D7F8
D000
FFF8
ENDCHAR
STARTCHAR 5331
ENCODING 21297
SWIDTH 1040 0
DWIDTH 13 0
BBX 13 12 0 -2
BITMAP
FFF8
C700
DFE0
DB60
FFF8
D860
DFE0
D860
D860
DFE0
D830
FFF8
ENDCHAR
STARTCHAR 5333
ENCODING 21299
SWIDTH 1040 0
DWIDTH 13 0
BBX 13 12 0 -2
BITMAP
FFF8
C780
CEC0
D870
FEE0
D6A0
DEE0
D8C0
D8C0
DEA0
D730
FFF8
ENDCHAR
STARTCHAR 5338
ENCODING 21304
SWIDTH 1040 0
DWIDTH 13 0
BBX 13 12 0 -2
BITMAP
FFF8
3000
3000
3000
3000
3000
3000
3000
3000
3000
1800
0FF0
ENDCHAR
STARTCHAR 5339
ENCODING 21305
SWIDTH 1040 0
DWIDTH 13 0
BBX 13 11 0 -1
BITMAP
FFF8
DB80
DB80
DBB0
D3B0
E0F0
C000
C000
C000
FFF8
C000
ENDCHAR
STARTCHAR 533A
ENCODING 21306
SWIDTH 1040 0
DWIDTH 13 0
BBX 12 12 1 -2
BITMAP
FFF0
C0C0
C0C0
DD80
CE80
C700
CE80
CCC0
DCC0
D000
FFF0
C000
ENDCHAR
STARTCHAR 533B
ENCODING 21307
SWIDTH 1040 0
DWIDTH 13 0
BBX 12 12 1 -2
BITMAP
FFF0
DC00
DFC0
D700
E700
DFE0
C700
C680
CE80
DCC0
D000
FFF0
ENDCHAR
STARTCHAR 533F
ENCODING 21311
SWIDTH 1040 0
DWIDTH 13 0
BBX 13 12 0 -2
BITMAP
FFF8
CEC0
DFF0
CEC0
FFF0
CE00
DFE0
D660
D660
EFE0
C000
FFF8
ENDCHAR
STARTCHAR 5340
ENCODING 21312
SWIDTH 1040 0
DWIDTH 13 0
BBX 13 12 0 -2
BITMAP
FFF8
6000
6FE0
6E60
6FE0
6000
7F78
7758
7758
7F78
6000
7FF8
ENDCHAR
STARTCHAR 5341
ENCODING 21313
SWIDTH 1040 0
DWIDTH 13 0
BBX 13 13 0 -2
BITMAP
0700
0700
0700
0700
FFF8
0700
0700
0700
0700
0700
0700
0700
0700
ENDCHAR
STARTCHAR 5343
ENCODING 21315
SWIDTH 1040 0
DWIDTH 13 0
BBX 13 13 0 -2
BITMAP
0060
07C0
7F00
0700
0700
FFF8
0700
0700
0700
0700
0700
0700
0700
ENDCHAR
STARTCHAR 5345
ENCODING 21317
SWIDTH 1040 0
DWIDTH 13 0
BBX 13 13 0 -2
BITMAP
3730
3730
3730
3730
3730
FFF8
3730
3730
3730
3730
6730
6730
C030
ENDCHAR
STARTCHAR 5346
ENCODING 21318
SWIDTH 1040 0
DWIDTH 13 0
BBX 13 13 0 -2
BITMAP
0E00
0E00
7FC0
18C0
18C0
30D8
6778
0700
07F8
FFF8
0700
0700
0700
ENDCHAR
STARTCHAR 5347
ENCODING 21319
SWIDTH 1040 0
DWIDTH 13 0
BBX 13 13 0 -2
BITMAP
00C0
0F40
78C0
18C0
18C0
FFF8
18C0
18C0
18C0
18C0
30C0
30C0
60C0
ENDCHAR
STARTCHAR 5348
ENCODING 21320
SWIDTH 1040 0
DWIDTH 13 0
BBX 13 13 0 -2
BITMAP
1800
1800
1FF0
3380
6380
0380
FFF8
0380
0380
0380
0380
0380
0380
ENDCHAR
STARTCHAR 5349
ENCODING 21321
SWIDTH 1040 0
DWIDTH 13 0
BBX 13 13 0 -2
BITMAP
0700
0700
7FF0
0700
1B60
1B60
1860
FFF8
F860
1860
3060
3060
6060
ENDCHAR
STARTCHAR 534A
ENCODING 21322
SWIDTH 1040 0
DWIDTH 13 0
BBX 13 13 0 -2
BITMAP
0700
3760
1B60
1B40
7FF0
0700
0700
FFF8
FF00
0700
0700
0700
0700
ENDCHAR
STARTCHAR 534D
ENCODING 21325
SWIDTH 1040 0
DWIDTH 13 0
BBX 12 12 1 -2
BITMAP
FE30
0E30
0E30
0E30
0E30
FFF0
CE00
CE00
CE00
CE00
CE00
CFF0
ENDCHAR
STARTCHAR 5351
ENCODING 21329
SWIDTH 1040 0
DWIDTH 13 0
BBX 13 13 0 -2
BITMAP
0E00
3FF0
3730
3FF0
3730
3FF0
1B80
3380
33F8
FFF8
0380
0380
0380
ENDCHAR
STARTCHAR 5352
ENCODING 21330
SWIDTH 1040 0
DWIDTH 13 0
BBX 13 13 0 -2
BITMAP
0700
0700
7FF0
18C0
18C0
36A0
6730
FFF8
FF00
0700
0700
0700
0700
ENDCHAR
STARTCHAR 5353
ENCODING 21331
SWIDTH 1040 0
DWIDTH 13 0
BBX 13 13 0 -2
BITMAP
0700
07F0
0700
3FE0
3060
3FE0
3060
3FE0
3F00
0700
FFF8
0700
0700
ENDCHAR
STARTCHAR 5354
ENCODING 21332
SWIDTH 1040 0
DWIDTH 13 0
BBX 13 13 0 -2
BITMAP
6380
6FF0
63B0
FBB0
6730
6EE0
6E60
7FF8
6B68
6B68
6B68
7758
6FB8
ENDCHAR
STARTCHAR 5357
ENCODING 21335
SWIDTH 1040 0
DWIDTH 13 0
BBX 13 13 0 -2
BITMAP
0700
FFF8
0700
0700
7FF0
68D0
6EB0
6FD0
6F50
6730
6FD0
6730
6770
ENDCHAR
STARTCHAR 5358
ENCODING 21336
SWIDTH 1040 0
DWIDTH 13 0
BBX 13 13 0 -2
BITMAP
3730
1BA0
3FE0
3760
3FE0
3760
3FE0
0700
07F8
FFF8
0700
0700
0700
ENDCHAR
STARTCHAR 535A
ENCODING 21338
SWIDTH 1040 0
DWIDTH 13 0
BBX 13 13 0 -2
BITMAP
63B0
6FF8
6380
6FF0
FBB0
6FF0
6BB0
7FF8
6060
6060
6E60
6760
60E0
ENDCHAR
STARTCHAR 535C
ENCODING 21340
SWIDTH 1040 0
DWIDTH 13 0
BBX 7 13 4 -2
BITMAP
E0
E0
E0
F0
E8
EC
E6
E6
E6
E0
E0
E0
E0
ENDCHAR
STARTCHAR 535E
ENCODING 21342
SWIDTH 1040 0
DWIDTH 13 0
BBX 13 13 0 -2
BITMAP
0700
0700
FFF8
0700
0780
0740
0760
0760
0760
0700
0700
0700
0700
ENDCHAR
STARTCHAR 5360
ENCODING 21344
SWIDTH 1040 0
DWIDTH 13 0
BBX 11 13 2 -2
BITMAP
1C00
1C00
1C00
1FE0
1C00
1C00
1C00
FF80
C180
C180
C180
C180
FF80
ENDCHAR
STARTCHAR 5366
ENCODING 21350
SWIDTH 1040 0
DWIDTH 13 0
BBX 13 13 0 -2
BITMAP
18C0
18C0
7F40
18C0
FF60
18D0
18D8
7F58
7958
18C0
1FC0
F0C0
00C0
ENDCHAR
STARTCHAR 5369
ENCODING 21353
SWIDTH 1040 0
DWIDTH 13 0
BBX 9 12 3 -2
BITMAP
FF80
C180
C180
C180
C180
C180
C180
C100
DF00
C000
C000
C000
ENDCHAR
STARTCHAR 536E
ENCODING 21358
SWIDTH 1040 0
DWIDTH 13 0
BBX 13 13 0 -2
BITMAP
00F0
3F80
3000
3FF8
3000
37E0
3660
3660
3640
36C0
6E00
6E18
C7F8
ENDCHAR
STARTCHAR 536F
ENCODING 21359
SWIDTH 1040 0
DWIDTH 13 0
BBX 13 13 0 -2
BITMAP
0F00
78F8
60D8
6ED8
6ED8
6ED8
6ED8
6ED8
7ED0
F6F0
0EC0
18C0
30C0
ENDCHAR
STARTCHAR 5370
ENCODING 21360
SWIDTH 1040 0
DWIDTH 13 0
BBX 12 13 1 -2
BITMAP
1C00
F7F0
C730
C730
FD30
C730
C730
C730
FF20
FD60
C700
0700
0700
ENDCHAR
STARTCHAR 5371
ENCODING 21361
SWIDTH 1040 0
DWIDTH 13 0
BBX 13 13 0 -2
BITMAP
0E00
1FC0
7380
0700
3FF8
3000
37E0
3660
2660
6E60
6EE8
CE18
07F8
ENDCHAR
STARTCHAR 5373
ENCODING 21363
SWIDTH 1040 0
DWIDTH 13 0
BBX 13 12 0 -2
BITMAP
7F78
6758
7F58
6758
6758
7F58
68D8
6ED0
6EF0
7B40
E740
00C0
ENDCHAR
STARTCHAR 5374
ENCODING 21364
SWIDTH 1040 0
DWIDTH 13 0
BBX 13 13 0 -2
BITMAP
3000
30F8
FF58
30D8
30D8
FF58
30D8
36D8
37D0
6F70
7B40
E740
00C0
ENDCHAR
STARTCHAR 5375
ENCODING 21365
SWIDTH 1040 0
DWIDTH 13 0
BBX 13 13 0 -2
BITMAP
0F00
78F8
6758
7758
6B68
6758
6758
6ED8
7ED0
F6F0
0EC0
18C0
30C0
ENDCHAR
STARTCHAR 5377
ENCODING 21367
SWIDTH 1040 0
DWIDTH 13 0
BBX 13 13 0 -2
BITMAP
0700
3760
3730
7FF0
0E80
FFF8
18C0
3FE0
28D8
E8D8
1BC0
1830
0FF0
ENDCHAR
STARTCHAR 5378
ENCODING 21368
SWIDTH 1040 0
DWIDTH 13 0
BBX 13 13 0 -2
BITMAP
3000
3F78
68D8
D8D8
7FD8
18D8
6F58
68D8
68D0
68F0
6F40
F0C0
00C0
ENDCHAR
STARTCHAR 537B
ENCODING 21371
SWIDTH 1040 0
DWIDTH 13 0
BBX 13 13 0 -2
BITMAP
1800
36F8
3758
6B58
D8D8
36D8
6758
FED8
EED0
6EF0
6EC0
6EC0
7EC0
ENDCHAR
STARTCHAR 537F
ENCODING 21375
SWIDTH 1040 0
DWIDTH 13 0
BBX 13 13 0 -2
BITMAP
3000
EFB8
CEA8
D7A8
D6A8
D6A8
D7A8
D668
D768
F778
36A0
6F60
C060
ENDCHAR
STARTCHAR 5382
ENCODING 21378
SWIDTH 1040 0
DWIDTH 13 0
BBX 13 12 0 -2
BITMAP
3FF8
3000
3000
3000
3000
3000
3000
3000
3000
6000
6000
C000
ENDCHAR
STARTCHAR 5384
ENCODING 21380
SWIDTH 1040 0
DWIDTH 13 0
BBX 13 12 0 -2
BITMAP
3FF8
3000
3000
37E0
3660
3660
3660
3640
36C0
6E18
6E18
C7F8
ENDCHAR
STARTCHAR 5396
ENCODING 21398
SWIDTH 1040 0
DWIDTH 13 0
BBX 13 12 0 -2
BITMAP
7FF8
6EA0
6E60
7FD0
6EB0
6F68
6F58
6F50
6F30
6B60
DB58
D3F8
ENDCHAR
STARTCHAR 5398
ENCODING 21400
SWIDTH 1040 0
DWIDTH 13 0
BBX 13 12 0 -2
BITMAP
7FF8
6000
6FF0
6BB0
6FF0
6BB0
6FF0
6F80
6380
DFF0
C380
7FF8
ENDCHAR
STARTCHAR 539A
ENCODING 21402
SWIDTH 1040 0
DWIDTH 13 0
BBX 13 12 0 -2
BITMAP
7FF8
6860
6FE0
6860
6FE0
6000
6FE0
6FC0
60C0
7FF8
C380
0780
ENDCHAR
STARTCHAR 539F
ENCODING 21407
SWIDTH 1040 0
DWIDTH 13 0
BBX 13 12 0 -2
BITMAP
3FF8
3380
37F0
3630
37F0
3630
37F0
27A0
63A0
6BB0
D398
0780
ENDCHAR
STARTCHAR 53A0
ENCODING 21408
SWIDTH 1040 0
DWIDTH 13 0
BBX 13 12 0 -2
BITMAP
7FF8
6000
6F98
6BA8
6FA8
6BA8
6FA8
6BA8
6BA8
6FA8
DB18
D3B8
ENDCHAR
STARTCHAR 53A5
ENCODING 21413
SWIDTH 1040 0
DWIDTH 13 0
BBX 13 12 0 -2
BITMAP
7FF8
7740
6E80
7FF8
6EA8
76B0
76A0
76B0
7FB0
6ED0
CED8
DB88
ENDCHAR
STARTCHAR 53A6
ENCODING 21414
SWIDTH 1040 0
DWIDTH 13 0
BBX 13 12 0 -2
BITMAP
7FF8
6000
7FF0
6700
6FE0
6FE0
6860
6860
6FE0
7660
C7C0
DE78
ENDCHAR
STARTCHAR 53A8
ENCODING 21416
SWIDTH 1040 0
DWIDTH 13 0
BBX 13 12 0 -2
BITMAP
7FF8
6000
7FB0
6030
7FF8
7730
7FB0
7770
7750
6E30
CFB0
D870
ENDCHAR
STARTCHAR 53A9
ENCODING 21417
SWIDTH 1040 0
DWIDTH 13 0
BBX 13 13 0 -2
BITMAP
7FF8
6000
6F78
6B50
6F50
6BF8
6F60
68E0
6EE0
6EE0
6BA0
DEA8
3B38
ENDCHAR
STARTCHAR 53AD
ENCODING 21421
SWIDTH 1040 0
DWIDTH 13 0
BBX 13 12 0 -2
BITMAP
7FF8
6B70
6F68
6060
6FF8
6B60
6F60
6B50
6B50
6F50
DB50
DB98
ENDCHAR
STARTCHAR 53AE
ENCODING 21422
SWIDTH 1040 0
DWIDTH 13 0
BBX 13 12 0 -2
BITMAP
7FF8
6B30
7FE0
6B40
6F78
6B50
6F50
6B50
6B50
7FD0
DEB0
3730
ENDCHAR
STARTCHAR 53B0
ENCODING 21424
SWIDTH 1040 0
DWIDTH 13 0
BBX 13 12 0 -2
BITMAP
7FF8
6EC0
7B40
68F8
7FB0
7750
7F60
7760
7760
7F60
D7B0
3718
ENDCHAR
STARTCHAR 53B3
ENCODING 21427
SWIDTH 1040 0
DWIDTH 13 0
BBX 13 13 0 -2
BITMAP
3730
1BA0
7FF8
60C0
6FC0
6EF8
7FB0
6B50
6BB0
6FA0
6B70
DF58
0798
ENDCHAR
STARTCHAR 53B6
ENCODING 21430
SWIDTH 1040 0
DWIDTH 13 0
BBX 13 13 0 -2
BITMAP
0700
0700
0700
0700
0E00
0E00
0EC0
1860
1870
1830
33F8
FF18
0018
ENDCHAR
STARTCHAR 53BB
ENCODING 21435
SWIDTH 1040 0
DWIDTH 13 0
BBX 13 13 0 -2
BITMAP
0700
0700
7FF0
0700
0700
FFF8
0700
0EC0
0EE0
0E60
1BE0
7F30
0030
ENDCHAR
STARTCHAR 53C2
ENCODING 21442
SWIDTH 1040 0
DWIDTH 13 0
BBX 13 13 0 -2
BITMAP
0E80
18C0
7FA0
0700
FFF8
1BC0
3760
7BD0
4B68
CF68
38C0
0780
3E00
ENDCHAR
STARTCHAR 53C3
ENCODING 21443
SWIDTH 1040 0
DWIDTH 13 0
BBX 13 13 0 -2
BITMAP
0E00
18C0
7FF0
3060
68D8
FB78
0F80
3EE0
26B8
E7B8
1EC0
0780
7E00
ENDCHAR
STARTCHAR 53C8
ENCODING 21448
SWIDTH 1040 0
DWIDTH 13 0
BBX 13 12 0 -2
BITMAP
3FE0
0060
1860
1860
0EC0
0EC0
0780
0780
0780
0EC0
3860
E038
ENDCHAR
STARTCHAR 53C9
ENCODING 21449
SWIDTH 1040 0
DWIDTH 13 0
BBX 13 12 0 -2
BITMAP
7FF0
0E30
0760
1B60
18C0
0EC0
0E80
0F00
0700
0E80
38E0
E038
ENDCHAR
STARTCHAR 53CA
ENCODING 21450
SWIDTH 1040 0
DWIDTH 13 0
BBX 13 12 0 -2
BITMAP
3FE0
0E60
0EC0
0EF0
1B30
1B30
1BA0
13A0
30E0
30E0
67B0
DE18
ENDCHAR
STARTCHAR 53CB
ENCODING 21451
SWIDTH 1040 0
DWIDTH 13 0
BBX 13 13 0 -2
BITMAP
0E00
0E00
FFF8
0E00
0E00
1FE0
1860
1B40
13C0
3380
67C0
DE60
7038
ENDCHAR
STARTCHAR 53CC
ENCODING 21452
SWIDTH 1040 0
DWIDTH 13 0
BBX 13 12 0 -2
BITMAP
FEF8
0E18
0E98
6ED0
36D0
1860
1E60
1750
3750
33B0
6718
CE08
ENDCHAR
STARTCHAR 53CD
ENCODING 21453
SWIDTH 1040 0
DWIDTH 13 0
BBX 12 12 0 -2
BITMAP
3FF0
3000
3000
3FE0
3060
36C0
36C0
2680
6780
6780
DEC0
7070
ENDCHAR
STARTCHAR 53CE
ENCODING 21454
SWIDTH 1040 0
DWIDTH 13 0
BBX 13 13 0 -2
BITMAP
0E00
6FF0
6E30
6F30
6F30
6EA0
6EA0
6EC0
6EC0
7EC0
EEA0
0F30
0E18
ENDCHAR
STARTCHAR 53D4
ENCODING 21460
SWIDTH 1040 0
DWIDTH 13 0
BBX 13 13 0 -2
BITMAP
3000
37F0
3E30
3730
33A0
FEA0
30C0
38C0
56A0
D6A0
D6A0
D730
7618
ENDCHAR
STARTCHAR 53D6
ENCODING 21462
SWIDTH 1040 0
DWIDTH 13 0
BBX 13 12 0 -2
BITMAP
FF00
6EF8
6E18
7E98
6ED0
7ED0
6E60
6E60
7EE0
EEB0
0F18
0E08
ENDCHAR
STARTCHAR 53D7
ENCODING 21463
SWIDTH 1040 0
DWIDTH 13 0
BBX 13 13 0 -2
BITMAP
00F0
7FB0
3730
1BA0
FFF8
C018
DFD8
18C0
1E80
0E80
0780
1EC0
7070
ENDCHAR
STARTCHAR 53D9
ENCODING 21465
SWIDTH 1040 0
DWIDTH 13 0
BBX 13 13 0 -2
BITMAP
1800
1BF8
3618
6E98
7F98
D750
30D0
FE60
F060
3060
D6D0
D698
7708
ENDCHAR
STARTCHAR 53DB
ENCODING 21467
SWIDTH 1040 0
DWIDTH 13 0
BBX 13 13 0 -2
BITMAP
3000
D6F8
7680
7B80
FFF8
3398
3EB0
F750
E770
6760
6E60
CED0
0798
ENDCHAR
STARTCHAR 53DF
ENCODING 21471
SWIDTH 1040 0
DWIDTH 13 0
BBX 13 13 0 -2
BITMAP
1B00
F778
C718
FB78
C718
FFF8
0700
7FF0
7EE0
1EE0
0780
1EC0
7070
ENDCHAR
STARTCHAR 53E1
ENCODING 21473
SWIDTH 1040 0
DWIDTH 13 0
BBX 13 13 0 -2
BITMAP
3E00
33F8
FF18
D758
78D0
CF50
3060
7E60
6F70
EF70
7ED0
6E98
7F08
ENDCHAR
STARTCHAR 53E2
ENCODING 21474
SWIDTH 1040 0
DWIDTH 13 0
BBX 13 13 0 -2
BITMAP
0E80
36A0
FFF8
18C0
7FF0
0700
FFF8
6FE0
6EA0
7EA0
6EC0
FEA0
0F38
ENDCHAR
STARTCHAR 53E3
ENCODING 21475
SWIDTH 1040 0
DWIDTH 13 0
BBX 12 11 1 -2
BITMAP
FFF0
C030
C030
C030
C030
C030
C030
C030
C030
FFF0
C030
ENDCHAR
STARTCHAR 53E4
ENCODING 21476
SWIDTH 1040 0
DWIDTH 13 0
BBX 13 13 0 -2
BITMAP
0700
0700
0700
FFF8
0700
0700
0700
3FE0
3060
3060
3060
3060
3FE0
ENDCHAR
STARTCHAR 53E5
ENCODING 21477
SWIDTH 1040 0
DWIDTH 13 0
BBX 13 13 0 -2
BITMAP
1800
1800
3FF8
3018
6FD8
D8D8
18D8
18D8
18D8
1FD8
0018
0018
0070
ENDCHAR
STARTCHAR 53E8
ENCODING 21480
SWIDTH 1040 0
DWIDTH 13 0
BBX 13 12 0 -2
BITMAP
0FF8
F8D8
D8D8
D8D8
D8D8
D8D8
D8D8
D898
DB98
FB98
0718
0E70
ENDCHAR
STARTCHAR 53E9
ENCODING 21481
SWIDTH 1040 0
DWIDTH 13 0
BBX 12 12 1 -2
BITMAP
07F0
FD30
DD30
DD30
DD30
DD30
DD30
DD30
FD30
C760
0700
0700
ENDCHAR
STARTCHAR 53EA
ENCODING 21482
SWIDTH 1040 0
DWIDTH 13 0
BBX 12 12 0 -2
BITMAP
7FE0
6060
6060
6060
6060
7FE0
0000
18C0
18C0
1860
3030
E030
ENDCHAR
STARTCHAR 53EB
ENCODING 21483
SWIDTH 1040 0
DWIDTH 13 0
BBX 13 13 0 -2
BITMAP
0060
FB60
DB60
DB60
DB60
DB60
DB60
DB78
DB60
FBE0
CF60
0060
0060
ENDCHAR
STARTCHAR 53EC
ENCODING 21484
SWIDTH 1040 0
DWIDTH 13 0
BBX 11 12 1 -2
BITMAP
FFE0
1C60
1C60
3060
61C0
C000
7FC0
60C0
60C0
60C0
60C0
7FC0
ENDCHAR
STARTCHAR 53ED
ENCODING 21485
SWIDTH 1040 0
DWIDTH 13 0
BBX 13 13 0 -2
BITMAP
07E0
F860
DB60
DB60
DB60
DB60
DB60
DB60
DF60
FE60
0E30
1830
3018
ENDCHAR
STARTCHAR 53EE
ENCODING 21486
SWIDTH 1040 0
DWIDTH 13 0
BBX 13 12 0 -2
BITMAP
0FF8
F8C0
D8C0
D8C0
D8C0
D8C0
D8C0
D8C0
D8C0
F8C0
00C0
03C0
ENDCHAR
STARTCHAR 53EF
ENCODING 21487
SWIDTH 1040 0
DWIDTH 13 0
BBX 13 12 0 -2
BITMAP
FFF8
0060
3FA0
33A0
33A0
33A0
3FA0
3020
3060
0060
0060
00E0
ENDCHAR
STARTCHAR 53F0
ENCODING 21488
SWIDTH 1040 0
DWIDTH 13 0
BBX 13 13 0 -2
BITMAP
0700
0700
0E60
1830
33F0
FF18
0018
3FF0
3030
3030
3030
3030
3FF0
ENDCHAR
STARTCHAR 53F1
ENCODING 21489
SWIDTH 1040 0
DWIDTH 13 0
BBX 13 13 0 -2
BITMAP
0700
0700
FB30
DB30
DB60
DB40
DB80
DF00
DB00
DB00
FB18
0718
03F8
ENDCHAR
STARTCHAR 53F2
ENCODING 21490
SWIDTH 1040 0
DWIDTH 13 0
BBX 13 13 0 -2
BITMAP
0700
0700
7FF0
6730
6730
7FF0
3700
1B00
1B00
0F00
0E80
38E0
E038
ENDCHAR
STARTCHAR 53F3
ENCODING 21491
SWIDTH 1040 0
DWIDTH 13 0
BBX 13 13 0 -2
BITMAP
0E00
0E00
0E00
FFF8
0E00
0E00
1800
1FF0
1830
3830
6830
D830
1FF0
ENDCHAR
STARTCHAR 53F6
ENCODING 21494
SWIDTH 1040 0
DWIDTH 13 0
BBX 13 13 0 -2
BITMAP
00C0
00C0
F8C0
D8C0
DFF8
D8C0
D8C0
D8C0
D8C0
D8C0
F8C0
00C0
00C0
ENDCHAR
STARTCHAR 53F7
ENCODING 21495
SWIDTH 1040 0
DWIDTH 13 0
BBX 13 12 0 -2
BITMAP
3FE0
3060
3FE0
0000
FFF8
1800
1FE0
1060
3060
0060
0060
03C0
ENDCHAR
STARTCHAR 53F8
ENCODING 21496
SWIDTH 1040 0
DWIDTH 13 0
BBX 12 12 1 -2
BITMAP
FFF0
0030
7FD0
0030
3FB0
31B0
31B0
31B0
3FB0
0030
0030
00E0
ENDCHAR
STARTCHAR 53FA
ENCODING 21498
SWIDTH 1040 0
DWIDTH 13 0
BBX 13 13 0 -2
BITMAP
03C0
00C0
F8C0
D8C0
D8C0
D8C0
DBC0
DBA0
DBA0
FB60
0730
0E30
3818
ENDCHAR
STARTCHAR 5401
ENCODING 21505
SWIDTH 1040 0
DWIDTH 13 0
BBX 13 12 0 -2
BITMAP
0FF0
F8C0
D8C0
D8C0
DFF8
D8C0
D8C0
D8C0
F8C0
00C0
00C0
03C0
ENDCHAR
STARTCHAR 5403
ENCODING 21507
SWIDTH 1040 0
DWIDTH 13 0
BBX 13 13 0 -2
BITMAP
0700
0700
FBF8
DE00
D800
DFF0
D860
DBC0
DB00
FB00
0E18
0E18
07F8
ENDCHAR
STARTCHAR 5404
ENCODING 21508
SWIDTH 1040 0
DWIDTH 13 0
BBX 13 13 0 -2
BITMAP
0E00
0FE0
1860
36C0
6780
0EC0
1860
3FF0
2868
E868
1860
1860
1FE0
ENDCHAR
STARTCHAR 5408
ENCODING 21512
SWIDTH 1040 0
DWIDTH 13 0
BBX 13 13 0 -2
BITMAP
0700
0700
0E80
18C0
3FE0
E038
0000
3FE0
3060
3060
3060
3060
3FE0
ENDCHAR
STARTCHAR 5409
ENCODING 21513
SWIDTH 1040 0
DWIDTH 13 0
BBX 13 13 0 -2
BITMAP
0700
0700
FFF8
0700
0700
7FF0
0000
3FE0
3060
3060
3060
3060
3FE0
ENDCHAR
STARTCHAR 540A
ENCODING 21514
SWIDTH 1040 0
DWIDTH 13 0
BBX 11 12 1 -2
BITMAP
7FC0
60C0
60C0
7FC0
0E00
FFE0
CE60
CE60
CE60
CE60
CEC0
0E00
ENDCHAR
STARTCHAR 540B
ENCODING 21515
SWIDTH 1040 0
DWIDTH 13 0
BBX 13 13 0 -2
BITMAP
0060
0060
F860
DFF8
D860
DB60
DBA0
DBA0
DBA0
D860
F860
0060
00E0
ENDCHAR
STARTCHAR 540C
ENCODING 21516
SWIDTH 1040 0
DWIDTH 13 0
BBX 12 12 1 -2
BITMAP
FFF0
C030
C030
DFD0
C030
DFD0
D0D0
D0D0
D0D0
DFD0
C030
C070
ENDCHAR
STARTCHAR 540D
ENCODING 21517
SWIDTH 1040 0
DWIDTH 13 0
BBX 13 13 0 -2
BITMAP
0700
0700
0FE0
1860
36C0
6780
0700
0FF8
0E18
3E18
EE18
0E18
0FF8
ENDCHAR
STARTCHAR 540E
ENCODING 21518
SWIDTH 1040 0
DWIDTH 13 0
BBX 13 13 0 -2
BITMAP
00F0
3F80
3000
3000
3FF8
3000
3000
37F0
2630
6E30
6E30
CE30
0FF0
ENDCHAR
STARTCHAR 540F
ENCODING 21519
SWIDTH 1040 0
DWIDTH 13 0
BBX 13 13 0 -2
BITMAP
0700
7FF8
0700
3FF0
3730
3730
3FF0
1B00
1B00
0F00
0E80
38E0
E038
ENDCHAR
STARTCHAR 5410
ENCODING 21520
SWIDTH 1040 0
DWIDTH 13 0
BBX 13 12 0 -1
BITMAP
00C0
00C0
F8C0
D8C0
DFF8
D8C0
D8C0
D8C0
D8C0
F8C0
00C0
1FF8
ENDCHAR
STARTCHAR 5411
ENCODING 21521
SWIDTH 1040 0
DWIDTH 13 0
BBX 12 13 1 -2
BITMAP
0E00
1C00
3000
FFF0
C030
C030
DFB0
DDB0
DDB0
DDB0
DFB0
C030
C070
ENDCHAR
STARTCHAR 541B
ENCODING 21531
SWIDTH 1040 0
DWIDTH 13 0
BBX 13 12 0 -2
BITMAP
7FE0
0E60
FFF8
0E60
0E60
7FE0
1800
1FE0
3FE0
6860
D860
1FE0
ENDCHAR
STARTCHAR 541D
ENCODING 21533
SWIDTH 1040 0
DWIDTH 13 0
BBX 13 13 0 -2
BITMAP
0700
FFF8
30C0
1B80
0F00
0E80
38E0
E038
E020
3FE0
3060
3060
3FE0
ENDCHAR
STARTCHAR 541F
ENCODING 21535
SWIDTH 1040 0
DWIDTH 13 0
BBX 13 13 0 -2
BITMAP
0380
03C0
F740
D760
D7F0
D818
D000
D7F0
D7E0
D060
F060
00C0
0380
ENDCHAR
STARTCHAR 5420
ENCODING 21536
SWIDTH 1040 0
DWIDTH 13 0
BBX 13 13 0 -2
BITMAP
0380
F3A0
D3B0
D380
DFF8
D380
D380
D740
D740
F740
0E60
1830
7018
ENDCHAR
STARTCHAR 5426
ENCODING 21542
SWIDTH 1040 0
DWIDTH 13 0
BBX 13 12 0 -2
BITMAP
7FF8
0780
0F60
3B30
E718
0700
3FF0
3030
3030
3030
3030
3FF0
ENDCHAR
STARTCHAR 5429
ENCODING 21545
SWIDTH 1040 0
DWIDTH 13 0
BBX 13 13 0 -2
BITMAP
03C0
0EC0
F6C0
D660
D830
DFE8
D760
D760
D760
F760
0E60
0E60
1BC0
ENDCHAR
STARTCHAR 542B
ENCODING 21547
SWIDTH 1040 0
DWIDTH 13 0
BBX 13 13 0 -2
BITMAP
0700
0E80
18C0
37A0
E038
7FE0
0380
0700
07E0
3FE0
3060
3060
3FE0
ENDCHAR
STARTCHAR 542C
ENCODING 21548
SWIDTH 1040 0
DWIDTH 13 0
BBX 13 13 0 -2
BITMAP
0070
FBC0
DB00
DB00
DBF8
DB60
DB60
DB60
DB60
FB60
0E60
0E60
1860
ENDCHAR
STARTCHAR 542D
ENCODING 21549
SWIDTH 1040 0
DWIDTH 13 0
BBX 13 13 0 -2
BITMAP
0380
FB80
DFF8
D800
DBE0
DB60
DB60
DB60
DB60
FB60
0768
0E68
1838
ENDCHAR
STARTCHAR 542E
ENCODING 21550
SWIDTH 1040 0
DWIDTH 13 0
BBX 13 13 0 -2
BITMAP
0380
03A0
FBB0
DB38
DFE8
DBA0
DBA0
DBA0
DB20
DB60
FB68
0E68
1838
ENDCHAR
STARTCHAR 5436
ENCODING 21558
SWIDTH 1040 0
DWIDTH 13 0
BBX 13 13 0 -2
BITMAP
00C0
00C0
F7F8
D6D8
D6D8
D6D8
D6A8
D738
D638
F618
0E18
0E18
0E38
ENDCHAR
STARTCHAR 5438
ENCODING 21560
SWIDTH 1040 0
DWIDTH 13 0
BBX 13 12 0 -2
BITMAP
0FF0
FBB0
DBA0
DBB8
DB98
DBD8
DB50
DB60
FB60
0770
0ED8
1B88
ENDCHAR
STARTCHAR 5439
ENCODING 21561
SWIDTH 1040 0
DWIDTH 13 0
BBX 13 13 0 -2
BITMAP
0380
0380
FBF8
DB18
DB50
DEC0
D8C0
D8C0
D8A0
FBA0
03A0
0730
1E18
ENDCHAR
STARTCHAR 543B
ENCODING 21563
SWIDTH 1040 0
DWIDTH 13 0
BBX 13 13 0 -2
BITMAP
0700
0700
F7F8
D7A8
D6A8
D6A8
DBA8
D758
D758
D758
F6D8
0398
0770
ENDCHAR
STARTCHAR 543C
ENCODING 21564
SWIDTH 1040 0
DWIDTH 13 0
BBX 13 13 0 -2
BITMAP
0060
1FE0
F3A0
D760
D760
D7E0
DF60
D760
D760
D760
F768
0768
0F38
ENDCHAR
STARTCHAR 543D
ENCODING 21565
SWIDTH 1040 0
DWIDTH 13 0
BBX 13 13 0 -2
BITMAP
00C0
0740
F740
D7F8
D6C0
D8C0
DFF8
D0C0
D0C0
D0C0
F0C0
00C0
00C0
ENDCHAR
STARTCHAR 543E
ENCODING 21566
SWIDTH 1040 0
DWIDTH 13 0
BBX 13 13 0 -2
BITMAP
7FF0
0E00
0E00
7FE0
1860
1860
FFF8
0000
3FE0
3FE0
3060
3060
3FE0
ENDCHAR
STARTCHAR 5440
ENCODING 21568
SWIDTH 1040 0
DWIDTH 13 0
BBX 13 12 0 -2
BITMAP
0FF8
FB60
DB60
DB60
DFF8
DBA0
DBA0
DB20
FB60
0E60
1860
00E0
ENDCHAR
STARTCHAR 5442
ENCODING 21570
SWIDTH 1040 0
DWIDTH 13 0
BBX 11 12 1 -2
BITMAP
7FC0
60C0
60C0
7FC0
0E00
1C00
FFE0
C060
C060
C060
C060
FFE0
ENDCHAR
STARTCHAR 5446
ENCODING 21574
SWIDTH 1040 0
DWIDTH 13 0
BBX 13 12 0 -2
BITMAP
3FE0
3060
3060
3FE0
0700
FFF8
0F80
0B60
3B60
E738
0700
0700
ENDCHAR
STARTCHAR 5448
ENCODING 21576
SWIDTH 1040 0
DWIDTH 13 0
BBX 13 12 0 -2
BITMAP
3FE0
3060
3060
3FE0
0000
7FF0
0700
07E0
3FE0
0700
0700
FFF8
ENDCHAR
STARTCHAR 5449
ENCODING 21577
SWIDTH 1040 0
DWIDTH 13 0
BBX 13 13 0 -2
BITMAP
1FE0
6860
6860
6FE0
6000
7FE0
6060
0060
0078
FFF8
1B80
30E0
E030
ENDCHAR
STARTCHAR 544A
ENCODING 21578
SWIDTH 1040 0
DWIDTH 13 0
BBX 13 13 0 -2
BITMAP
0700
3700
3700
3FF0
3700
6700
FFF8
0000
3FE0
3FE0
3060
3060
3FE0
ENDCHAR
STARTCHAR 544E
ENCODING 21582
SWIDTH 1040 0
DWIDTH 13 0
BBX 13 12 0 -2
BITMAP
07F8
FB18
DB18
DBF8
DB80
DB40
DB40
DA60
FE60
0E60
1830
3018
ENDCHAR
STARTCHAR 5451
ENCODING 21585
SWIDTH 1040 0
DWIDTH 13 0
BBX 13 13 0 -2
BITMAP
00F0
7F80
0700
0700
FFF8
0E80
18C0
3FE0
28D8
E8D8
18C0
18C0
1FC0
ENDCHAR
STARTCHAR 545F
ENCODING 21599
SWIDTH 1040 0
DWIDTH 13 0
BBX 13 13 0 -2
BITMAP
00C0
00C0
F7F8
D0C0
D0C0
D6B0
D730
D3A0
D3F0
D0D0
F798
1FF8
0018
ENDCHAR
STARTCHAR 5468
ENCODING 21608
SWIDTH 1040 0
DWIDTH 13 0
BBX 12 12 0 -2
BITMAP
7FF0
6730
6FD0
6730
7FF0
6030
6FD0
68D0
68D0
6FD0
C030
C070
ENDCHAR
STARTCHAR 546A
ENCODING 21610
SWIDTH 1040 0
DWIDTH 13 0
BBX 13 12 0 -2
BITMAP
07F0
FB30
DB30
DB30
DBF0
DBA0
DBA0
DB20
FB60
0768
0E68
3838
ENDCHAR
STARTCHAR 5470
ENCODING 21616
SWIDTH 1040 0
DWIDTH 13 0
BBX 13 13 0 -2
BITMAP
1B80
6BB8
6FE0
6B80
6B98
6F98
F0F8
0000
3FE0
3FE0
3060
3060
3FE0
ENDCHAR
STARTCHAR 5471
ENCODING 21617
SWIDTH 1040 0
DWIDTH 13 0
BBX 13 13 0 -2
BITMAP
0070
0FC0
F6A0
D6A0
D6A0
D6A0
D6A0
D6A0
D6D0
F6D0
1BB0
1FE8
3068
ENDCHAR
STARTCHAR 5473
ENCODING 21619
SWIDTH 1040 0
DWIDTH 13 0
BBX 13 13 0 -2
BITMAP
0380
0380
F7F0
D380
D380
DFF8
D380
D7C0
D6A0
D6A0
FBB8
0380
0380
ENDCHAR
STARTCHAR 5475
ENCODING 21621
SWIDTH 1040 0
DWIDTH 13 0
BBX 13 12 0 -2
BITMAP
1FF8
F030
D7D0
D6D0
D6D0
D6D0
D7D0
D610
D630
F030
0030
0070
ENDCHAR
STARTCHAR 5476
ENCODING 21622
SWIDTH 1040 0
DWIDTH 13 0
BBX 13 13 0 -2
BITMAP
0700
0778
F718
DFD8
D6A8
D6A8
D6A8
DEB0
D7B0
D730
F6A8
18D8
3388
ENDCHAR
STARTCHAR 5477
ENCODING 21623
SWIDTH 1040 0
DWIDTH 13 0
BBX 13 12 0 -2
BITMAP
0FF8
F6D8
D7F8
D6D8
D6D8
D7F8
D6C0
D6C0
F0C0
C0C0
00C0
00C0
ENDCHAR
STARTCHAR 547B
ENCODING 21627
SWIDTH 1040 0
DWIDTH 13 0
BBX 13 13 0 -2
BITMAP
00C0
00C0
F7F8
D6D8
D7F8
D6D8
D6D8
D7F8
D6C0
F6C0
C0C0
00C0
00C0
ENDCHAR
STARTCHAR 547C
ENCODING 21628
SWIDTH 1040 0
DWIDTH 13 0
BBX 13 13 0 -2
BITMAP
0070
1FC0
F3B0
DBB0
D6A0
D680
DFF8
D380
D380
F380
0380
0380
0780
ENDCHAR
STARTCHAR 547D
ENCODING 21629
SWIDTH 1040 0
DWIDTH 13 0
BBX 13 13 0 -2
BITMAP
0700
0E80
18C0
3FA0
E038
7EF0
6EB0
6EB0
6EB0
6EB0
7EE0
0380
0380
ENDCHAR
STARTCHAR 5480
ENCODING 21632
SWIDTH 1040 0
DWIDTH 13 0
BBX 13 12 0 -2
BITMAP
07F0
FB30
DB30
DBF0
DB30
DB30
DBF0
DB30
FB30
C730
0730
1FF8
ENDCHAR
STARTCHAR 5484
ENCODING 21636
SWIDTH 1040 0
DWIDTH 13 0
BBX 13 13 0 -2
BITMAP
00C0
0ED8
F6D8
D6D8
D6D8
D7F8
D0C0
D6D8
D6D8
D6D8
F6D8
0ED8
0FF8
ENDCHAR
STARTCHAR 5486
ENCODING 21638
SWIDTH 1040 0
DWIDTH 13 0
BBX 13 13 0 -2
BITMAP
0700
0700
F7F8
D618
D7E8
DB68
D768
D7E8
D738
D730
F700
0718
03F8
ENDCHAR
STARTCHAR 548B
ENCODING 21643
SWIDTH 1040 0
DWIDTH 13 0
BBX 13 13 0 -2
BITMAP
0380
0380
FBF8
DB40
DB40
DEF8
D8C0
D8C0
D8F8
D8F8
F8C0
00C0
00C0
ENDCHAR
STARTCHAR 548C
ENCODING 21644
SWIDTH 1040 0
DWIDTH 13 0
BBX 13 13 0 -2
BITMAP
0F00
7800
1BF8
1B98
FF98
1B98
3E98
3B98
2B98
6B98
6B98
DBF8
1800
ENDCHAR
STARTCHAR 548E
ENCODING 21646
SWIDTH 1040 0
DWIDTH 13 0
BBX 13 13 0 -2
BITMAP
3060
3E60
3660
76E0
DBB0
3718
63F8
C000
FFE0
3FE0
3060
3060
3FE0
ENDCHAR
STARTCHAR 548F
ENCODING 21647
SWIDTH 1040 0
DWIDTH 13 0
BBX 13 13 0 -2
BITMAP
00C0
0060
F7C0
D0D8
D0D0
DFE0
D3E0
D3D0
D358
D758
F6C8
18C0
03C0
ENDCHAR
STARTCHAR 5490
ENCODING 21648
SWIDTH 1040 0
DWIDTH 13 0
BBX 13 13 0 -2
BITMAP
0730
0730
F730
D6F8
D630
DEB0
D6D0
D6D0
D6D0
D630
F630
0E30
0E70
ENDCHAR
STARTCHAR 5492
ENCODING 21650
SWIDTH 1040 0
DWIDTH 13 0
BBX 12 12 1 -2
BITMAP
FDE0
DD60
DD60
FDE0
0000
3F00
3700
3700
3700
3730
6730
C1F0
ENDCHAR
STARTCHAR 54A2
ENCODING 21666
SWIDTH 1040 0
DWIDTH 13 0
BBX 13 13 0 -2
BITMAP
7EF0
6EB0
6EB0
7EF0
0000
3FE0
0000
FFF8
FE00
0E00
1FE0
3060
07C0
ENDCHAR
STARTCHAR 54A4
ENCODING 21668
SWIDTH 1040 0
DWIDTH 13 0
BBX 13 13 0 -2
BITMAP
0380
1FF8
F818
D8E8
D780
D380
D3F8
DF80
D380
D380
F380
0398
00F8
ENDCHAR
STARTCHAR 54A5
ENCODING 21669
SWIDTH 1040 0
DWIDTH 13 0
BBX 13 12 0 -2
BITMAP
1FF8
F380
D760
DFF0
D3B0
D380
DFF0
D380
D380
F380
0380
3FF8
ENDCHAR
STARTCHAR 54A8
ENCODING 21672
SWIDTH 1040 0
DWIDTH 13 0
BBX 13 13 0 -2
BITMAP
0700
0700
F7F8
0ED0
18C0
3BA0
E730
0E18
0E20
3FE0
3060
3060
3FE0
ENDCHAR
STARTCHAR 54AB
ENCODING 21675
SWIDTH 1040 0
DWIDTH 13 0
BBX 13 12 0 -2
BITMAP
7EF8
6E98
6E98
7E98
73F8
7060
68D0
68D8
68D8
6E98
C780
C0F8
ENDCHAR
STARTCHAR 54AC
ENCODING 21676
SWIDTH 1040 0
DWIDTH 13 0
BBX 13 13 0 -2
BITMAP
0380
0380
FFF8
D760
D760
D630
DB68
D740
D7C0
F380
C740
0E60
3838
ENDCHAR
STARTCHAR 54AF
ENCODING 21679
SWIDTH 1040 0
DWIDTH 13 0
BBX 13 13 0 -2
BITMAP
00C0
00F0
FBB0
DBB0
DEE0
D8D0
DB98
DBF0
DFB0
DEB0
FBB0
03B0
03F0
ENDCHAR
STARTCHAR 54B2
ENCODING 21682
SWIDTH 1040 0
DWIDTH 13 0
BBX 13 13 0 -2
BITMAP
0E60
0760
F740
D7F0
D380
D380
DFF8
D380
D3C0
F3C0
0760
0E30
3818
ENDCHAR
STARTCHAR 54B3
ENCODING 21683
SWIDTH 1040 0
DWIDTH 13 0
BBX 13 13 0 -2
BITMAP
00C0
00C0
FFF8
D8C0
DBB0
DBA0
D8C0
DBB0
DBA0
DF60
FBE0
07B0
1E18
ENDCHAR
STARTCHAR 54B8
ENCODING 21688
SWIDTH 1040 0
DWIDTH 13 0
BBX 13 13 0 -2
BITMAP
00E0
00D0
7FF8
60C0
6F58
60D8
6F50
6B50
6B70
6B60
6F68
C0D8
C398
ENDCHAR
STARTCHAR 54BC
ENCODING 21692
SWIDTH 1040 0
DWIDTH 13 0
BBX 12 12 1 -2
BITMAP
3FC0
30C0
37C0
36C0
FFF0
C030
DFD0
D0D0
D0D0
DFD0
D030
C070
ENDCHAR
STARTCHAR 54BD
ENCODING 21693
SWIDTH 1040 0
DWIDTH 13 0
BBX 13 12 0 -2
BITMAP
0FF8
F6D8
D6D8
D7F8
D6D8
D6D8
D6E8
D6A8
D6B8
F6B8
0F18
0FF8
ENDCHAR
STARTCHAR 54BE
ENCODING 21694
SWIDTH 1040 0
DWIDTH 13 0
BBX 13 13 0 -2
BITMAP
0380
0380
F7F0
D3B0
D3A0
DFF8
D380
D770
D740
DFC0
F700
0730
03F0
ENDCHAR
STARTCHAR 54C0
ENCODING 21696
SWIDTH 1040 0
DWIDTH 13 0
BBX 13 13 0 -2
BITMAP
0700
FFF8
0000
3FE0
3060
3060
3FE0
0E30
0B20
3B60
EB80
1F60
7838
ENDCHAR
STARTCHAR 54C1
ENCODING 21697
SWIDTH 1040 0
DWIDTH 13 0
BBX 13 12 0 -2
BITMAP
3FC0
30C0
30C0
30C0
3FC0
0000
FEF8
CE98
CE98
CE98
CE98
FEF8
ENDCHAR
STARTCHAR 54C2
ENCODING 21698
SWIDTH 1040 0
DWIDTH 13 0
BBX 13 12 0 -2
BITMAP
0FF8
F3A0
D3A0
D7F8
D6A8
D6A8
D778
D678
F618
CE18
0FF8
0E00
ENDCHAR
STARTCHAR 54C4
ENCODING 21700
SWIDTH 1040 0
DWIDTH 13 0
BBX 13 13 0 -2
BITMAP
0760
0760
F760
D7F0
D760
D760
D760
DFF8
D740
D740
F760
0E30
1830
ENDCHAR
STARTCHAR 54C7
ENCODING 21703
SWIDTH 1040 0
DWIDTH 13 0
BBX 13 13 0 -2
BITMAP
00C0
00C0
F7F0
D0C0
D0C0
DFF8
D0C0
D0C0
D0F0
D7F0
F0C0
00C0
1FF8
ENDCHAR
STARTCHAR 54C8
ENCODING 21704
SWIDTH 1040 0
DWIDTH 13 0
BBX 13 13 0 -2
BITMAP
00C0
00C0
FBA0
DBA0
DB30
DEE8
D800
DBF0
DB30
FB30
0730
0730
07F0
ENDCHAR
STARTCHAR 54C9
ENCODING 21705
SWIDTH 1040 0
DWIDTH 13 0
BBX 13 13 0 -2
BITMAP
18C0
7F60
18D0
18C0
FFF8
00C0
7ED0
6ED0
6EE0
6E60
6EE8
7EB8
0718
ENDCHAR
STARTCHAR 54D8
ENCODING 21720
SWIDTH 1040 0
DWIDTH 13 0
BBX 13 13 0 -2
BITMAP
0700
0778
F600
DB00
D778
D630
DE30
D630
D630
D630
F630
0E30
0E70
ENDCHAR
STARTCHAR 54E1
ENCODING 21729
SWIDTH 1040 0
DWIDTH 13 0
BBX 12 13 1 -2
BITMAP
3FC0
30C0
3FC0
7FE0
6060
7FE0
6060
7FE0
6060
6060
7FE0
3DC0
E070
ENDCHAR
STARTCHAR 54E2
ENCODING 21730
SWIDTH 1040 0
DWIDTH 13 0
BBX 13 12 0 -2
BITMAP
1FF8
F0C0
D7F0
D0C0
DFF8
D760
D760
D778
DFF8
F760
0E60
1860
ENDCHAR
STARTCHAR 54E5
ENCODING 21733
SWIDTH 1040 0
DWIDTH 13 0
BBX 13 12 0 -2
BITMAP
7FF0
3FA0
33A0
3FA0
0060
FFF8
0060
00A0
3FA0
33A0
3FA0
00E0
ENDCHAR
STARTCHAR 54E6
ENCODING 21734
SWIDTH 1040 0
DWIDTH 13 0
BBX 13 13 0 -2
BITMAP
03A0
1F70
F768
D760
DFF8
D768
D7A8
D770
DF60
DB60
F768
07B8
0F18
ENDCHAR
STARTCHAR 54E8
ENCODING 21736
SWIDTH 1040 0
DWIDTH 13 0
BBX 12 13 0 -2
BITMAP
0380
1BB0
F6A0
D7F0
D630
D630
D7F0
D630
D630
D7F0
F630
0E30
0E70
ENDCHAR
STARTCHAR 54E9
ENCODING 21737
SWIDTH 1040 0
DWIDTH 13 0
BBX 13 12 0 -2
BITMAP
F7F8
D6D8
D7F8
D6D8
D6D8
D7F8
D0C0
D0F8
F7F8
C0C0
00C0
1FF8
ENDCHAR
STARTCHAR 54ED
ENCODING 21741
SWIDTH 1040 0
DWIDTH 13 0
BBX 13 12 0 -2
BITMAP
FEF8
CE98
CE98
FEF8
0760
0730
FFF8
FF00
0700
0E80
38E0
E038
ENDCHAR
STARTCHAR 54EE
ENCODING 21742
SWIDTH 1040 0
DWIDTH 13 0
BBX 13 13 0 -2
BITMAP
0380
03A0
FFF0
D3A0
DFF8
D380
D7F0
D6E0
D8C0
D8C0
F7F8
00C0
03C0
ENDCHAR
STARTCHAR 54F2
ENCODING 21746
SWIDTH 1040 0
DWIDTH 13 0
BBX 13 13 0 -2
BITMAP
3038
37E0
FB00
37F8
3B60
F760
3660
7060
7060
3FE0
3060
3060
3FE0
ENDCHAR
STARTCHAR 54FA
ENCODING 21754
SWIDTH 1040 0
DWIDTH 13 0
BBX 13 13 0 -2
BITMAP
00D0
00D8
FFF8
D0C0
D7F8
D6D8
D7F8
D6D8
D6D8
D7F8
F6D8
0ED8
0ED8
ENDCHAR
STARTCHAR 54FD
ENCODING 21757
SWIDTH 1040 0
DWIDTH 13 0
BBX 13 12 0 -2
BITMAP
1FF8
F0C0
D7F0
D6D0
D7F0
D6D0
D7F0
D740
D740
F380
0F60
3838
ENDCHAR
STARTCHAR 5504
ENCODING 21764
SWIDTH 1040 0
DWIDTH 13 0
BBX 13 12 0 -2
BITMAP
07F0
FB30
DB30
DBF0
DB30
DBF0
DB30
DB30
DB30
FBF0
03B0
0F18
ENDCHAR
STARTCHAR 5506
ENCODING 21766
SWIDTH 1040 0
DWIDTH 13 0
BBX 13 13 0 -2
BITMAP
00C0
03B0
FFE8
DBA0
DBA8
DB78
DE80
DBF0
DBB0
DBB0
FEE0
07B0
1E18
ENDCHAR
STARTCHAR 5507
ENCODING 21767
SWIDTH 1040 0
DWIDTH 13 0
BBX 13 12 0 -2
BITMAP
7FF8
6000
6FF8
6EB0
6EE0
6EA0
DF38
DF30
3FF0
3030
3030
3FF0
ENDCHAR
STARTCHAR 550F
ENCODING 21775
SWIDTH 1040 0
DWIDTH 13 0
BBX 13 13 0 -2
BITMAP
07B0
00E0
F7B0
D0C0
DFF8
D740
D7F8
D758
DF58
FB58
3758
0758
00C0
ENDCHAR
STARTCHAR 5510
ENCODING 21776
SWIDTH 1040 0
DWIDTH 13 0
BBX 13 13 0 -2
BITMAP
0380
7FF8
6380
6FF0
63B0
7FF8
63B0
6FF0
6FF0
6000
6FF0
D830
1FF0
ENDCHAR
STARTCHAR 5514
ENCODING 21780
SWIDTH 1040 0
DWIDTH 13 0
BBX 13 12 0 -2
BITMAP
0FF8
F8C0
DBF0
DBB0
DBB0
DFF8
D800
DBF0
DBF0
FB30
0730
07F0
ENDCHAR
STARTCHAR 5516
ENCODING 21782
SWIDTH 1040 0
DWIDTH 13 0
BBX 13 12 0 -2
BITMAP
1FF8
F3A0
D3A0
D7F8
D6A8
D6A8
D6A8
D6A8
D7F8
F3A0
03A0
1FF8
ENDCHAR
STARTCHAR 552E
ENCODING 21806
SWIDTH 1040 0
DWIDTH 13 0
BBX 13 13 0 -2
BITMAP
18C0
1B80
3FF8
7380
DFF0
3380
3FF0
3380
33F8
3FF8
3030
3030
3FF0
ENDCHAR
STARTCHAR 552F
ENCODING 21807
SWIDTH 1040 0
DWIDTH 13 0
BBX 13 13 0 -2
BITMAP
0760
F6C0
D7F8
DEC0
D6C0
D7F0
D6C0
D6C0
D6F0
D7F0
F6C0
0EC0
0FF8
ENDCHAR
STARTCHAR 5531
ENCODING 21809
SWIDTH 1040 0
DWIDTH 13 0
BBX 13 12 0 -2
BITMAP
07F0
F730
D7F0
D730
D7F0
D000
D7F8
D618
F618
0FF8
0E18
0FF8
ENDCHAR
STARTCHAR 5533
ENCODING 21811
SWIDTH 1040 0
DWIDTH 13 0
BBX 13 12 0 -2
BITMAP
1FF8
F000
D7F8
D618
D7F8
D6C0
D7F8
D8C0
F8C0
1BA0
3730
1E18
ENDCHAR
STARTCHAR 5538
ENCODING 21816
SWIDTH 1040 0
DWIDTH 13 0
BBX 13 13 0 -2
BITMAP
0380
F3C0
D760
D7D0
D818
D7F0
D060
D3C0
DB40
FB40
1B30
3768
03E0
ENDCHAR
STARTCHAR 5539
ENCODING 21817
SWIDTH 1040 0
DWIDTH 13 0
BBX 13 13 0 -2
BITMAP
0E60
0E60
FFB0
D670
D6D8
D7A8
D6B0
D698
D6B8
F6A0
1BB0
3398
0F18
ENDCHAR
STARTCHAR 553E
ENCODING 21822
SWIDTH 1040 0
DWIDTH 13 0
BBX 13 13 0 -2
BITMAP
0070
0FC0
F0C0
D7F8
D750
DFF8
D750
D750
D758
D7F8
F0C0
00C0
1FF8
ENDCHAR
STARTCHAR 5540
ENCODING 21824
SWIDTH 1040 0
DWIDTH 13 0
BBX 13 12 0 -2
BITMAP
0FF8
F660
D6F0
D660
D7F8
D660
D660
D670
F6F0
1860
1860
37F8
ENDCHAR
STARTCHAR 5544
ENCODING 21828
SWIDTH 1040 0
DWIDTH 13 0
BBX 13 12 0 -2
BITMAP
1FF8
F380
D780
DED8
D3B0
D760
DEF0
D0A8
F3A8
CF68
3860
03C0
ENDCHAR
STARTCHAR 5545
ENCODING 21829
SWIDTH 1040 0
DWIDTH 13 0
BBX 13 13 0 -2
BITMAP
0380
03F8
F380
D7F0
D630
D7F0
D630
D7F0
D780
D380
FFF8
0380
0380
ENDCHAR
STARTCHAR 5546
ENCODING 21830
SWIDTH 1040 0
DWIDTH 13 0
BBX 13 13 0 -2
BITMAP
0700
FFF8
1860
0EC0
7FF8
6ED8
68D8
77F8
66D8
6ED8
6ED8
6FD8
6038
ENDCHAR
STARTCHAR 554C
ENCODING 21836
SWIDTH 1040 0
DWIDTH 13 0
BBX 13 13 0 -2
BITMAP
0380
1FF8
FB58
DB58
D740
D678
D800
D7F0
D780
D380
F380
0380
1FF8
ENDCHAR
STARTCHAR 554F
ENCODING 21839
SWIDTH 1040 0
DWIDTH 13 0
BBX 13 13 0 -2
BITMAP
FEF8
CE98
FEF8
CE98
FEF8
C018
DFD8
D8D8
D8D8
D8D8
DFD8
C018
C038
ENDCHAR
STARTCHAR 5553
ENCODING 21843
SWIDTH 1040 0
DWIDTH 13 0
BBX 13 13 0 -2
BITMAP
FE80
03F8
7EB0
6F50
7E60
60D0
6798
C000
FFE0
3FE0
3060
3060
3FE0
ENDCHAR
STARTCHAR 5556
ENCODING 21846
SWIDTH 1040 0
DWIDTH 13 0
BBX 13 13 0 -2
BITMAP
0380
03B0
F6A0
DBC0
D760
DEB8
D380
D3B0
D7A0
F6A0
1BC0
0F60
3838
ENDCHAR
STARTCHAR 5557
ENCODING 21847
SWIDTH 1040 0
DWIDTH 13 0
BBX 13 13 0 -2
BITMAP
0380
03F8
FB98
DB18
DE70
D8C0
DBB8
DB18
DBD8
DBD8
FB18
0718
07F8
ENDCHAR
STARTCHAR 555C
ENCODING 21852
SWIDTH 1040 0
DWIDTH 13 0
BBX 13 12 0 -2
BITMAP
1FF8
F6A8
D7B0
D768
D6C8
D7F8
D0D8
D6E8
D6A8
F730
0EA8
18C8
ENDCHAR
STARTCHAR 555D
ENCODING 21853
SWIDTH 1040 0
DWIDTH 13 0
BBX 13 13 0 -2
BITMAP
03C0
1F00
F778
D768
DFE8
D768
D7A8
D7B8
DF20
FB60
3738
0700
0700
ENDCHAR
STARTCHAR 5563
ENCODING 21859
SWIDTH 1040 0
DWIDTH 13 0
BBX 13 13 0 -2
BITMAP
0E00
0E78
F7E8
DBA8
D7E8
D3A8
D6E8
D6A8
D6A8
D6A8
F6F0
1F60
0060
ENDCHAR
STARTCHAR 557B
ENCODING 21883
SWIDTH 1040 0
DWIDTH 13 0
BBX 13 13 0 -2
BITMAP
0700
7FF0
18C0
FFF8
C718
3FE0
3760
37C0
3700
0700
7FF0
6030
7FF0
ENDCHAR
STARTCHAR 557C
ENCODING 21884
SWIDTH 1040 0
DWIDTH 13 0
BBX 13 13 0 -2
BITMAP
0380
1FF0
F660
D740
DFF8
DB98
DFF8
D6B0
D6B0
D6B0
F6B0
0EB0
0380
ENDCHAR
STARTCHAR 557E
ENCODING 21886
SWIDTH 1040 0
DWIDTH 13 0
BBX 13 13 0 -2
BITMAP
07A0
1F60
F768
DFE8
D770
D7A0
D760
DB60
D350
D750
F750
0798
0708
ENDCHAR
STARTCHAR 5580
ENCODING 21888
SWIDTH 1040 0
DWIDTH 13 0
BBX 13 13 0 -2
BITMAP
00C0
1FF8
FB98
DBE8
D760
D6C0
D3A0
D730
D738
DFF8
F730
0730
07F0
ENDCHAR
STARTCHAR 5583
ENCODING 21891
SWIDTH 1040 0
DWIDTH 13 0
BBX 13 13 0 -2
BITMAP
00C0
00C0
FFF8
D0C0
D7F8
D768
D6D8
D7F8
D6D8
D6D8
F7F8
0ED8
0ED8
ENDCHAR
STARTCHAR 5584
ENCODING 21892
SWIDTH 1040 0
DWIDTH 13 0
BBX 13 13 0 -2
BITMAP
18C0
7FF0
0700
3FE0
0700
7FF0
3760
FFF8
FFF8
0000
3FE0
3060
3FE0
ENDCHAR
STARTCHAR 5587
ENCODING 21895
SWIDTH 1040 0
DWIDTH 13 0
BBX 13 13 0 -2
BITMAP
0E18
0E18
FFA8
D668
DFA8
D6A8
D6A8
DFA8
D728
F768
DE98
3618
0E38
ENDCHAR
STARTCHAR 5589
ENCODING 21897
SWIDTH 1040 0
DWIDTH 13 0
BBX 13 13 0 -2
BITMAP
0700
07F0
F730
D7F8
D6C0
DEF8
D6A0
D760
D778
D7F8
F6E0
0EB0
0F18
ENDCHAR
STARTCHAR 558A
ENCODING 21898
SWIDTH 1040 0
DWIDTH 13 0
BBX 13 13 0 -2
BITMAP
0070
0068
F7F8
D660
D7E8
D668
D7E8
D6F0
D6D0
F7D0
1878
18D8
3398
ENDCHAR
STARTCHAR 558B
ENCODING 21899
SWIDTH 1040 0
DWIDTH 13 0
BBX 13 13 0 -2
BITMAP
0EA0
0EA0
FFF8
D6A0
D6E0
D600
D7F8
D380
D3F8
FFF8
0FA0
3BB8
0380
ENDCHAR
STARTCHAR 5598
ENCODING 21912
SWIDTH 1040 0
DWIDTH 13 0
BBX 13 13 0 -2
BITMAP
00C0
0ED8
F6D8
D7F8
D000
DFF8
D380
D7F8
D6A8
D6A8
F6A8
0EA8
0E38
ENDCHAR
STARTCHAR 5599
ENCODING 21913
SWIDTH 1040 0
DWIDTH 13 0
BBX 13 13 0 -2
BITMAP
07F8
F730
D7F0
D0C0
D7F8
D3C0
D760
D3A8
D338
F770
C3A8
0F68
00C0
ENDCHAR
STARTCHAR 559A
ENCODING 21914
SWIDTH 1040 0
DWIDTH 13 0
BBX 13 13 0 -2
BITMAP
0380
03F0
F760
D7F8
D6A8
D6A8
D778
D6D8
D6D8
FFF8
03A0
0738
1E08
ENDCHAR
STARTCHAR 559C
ENCODING 21916
SWIDTH 1040 0
DWIDTH 13 0
BBX 13 13 0 -2
BITMAP
0700
FFF8
0700
7FF0
3060
3FE0
18C0
FFF8
FFF8
0000
3FE0
3060
3FE0
ENDCHAR
STARTCHAR 559D
ENCODING 21917
SWIDTH 1040 0
DWIDTH 13 0
BBX 13 13 0 -2
BITMAP
0FF0
F630
D7F0
D630
D7F0
D700
D7F8
F6D8
F698
1F98
3668
07E8
0070
ENDCHAR
STARTCHAR 559E
ENCODING 21918
SWIDTH 1040 0
DWIDTH 13 0
BBX 13 13 0 -2
BITMAP
0700
0778
F7E8
D6E8
D7E8
D6E8
D7E8
D668
D6A8
D7A8
F670
0FA0
0E60
ENDCHAR
STARTCHAR 559F
ENCODING 21919
SWIDTH 1040 0
DWIDTH 13 0
BBX 13 12 0 -2
BITMAP
0FF8
F6D8
D7F8
D6D8
D7F8
D730
D7F0
D730
D730
F7F0
0730
0770
ENDCHAR
STARTCHAR 55A7
ENCODING 21927
SWIDTH 1040 0
DWIDTH 13 0
BBX 13 13 0 -2
BITMAP
00C0
FFF8
D818
D7F0
D000
D7F0
D630
D7F0
D630
F630
0FF0
0000
1FF8
ENDCHAR
STARTCHAR 55A8
ENCODING 21928
SWIDTH 1040 0
DWIDTH 13 0
BBX 13 13 0 -2
BITMAP
00C0
1FF8
F000
D7E0
D760
D7E0
DFF8
D818
D758
F740
0740
0ED8
3878
ENDCHAR
STARTCHAR 55A9
ENCODING 21929
SWIDTH 1040 0
DWIDTH 13 0
BBX 13 13 0 -2
BITMAP
0380
03C0
F760
DED8
D000
D7A8
D6A8
D7D0
D6D0
D6D0
F7D0
CEA8
0EA8
ENDCHAR
STARTCHAR 55AA
ENCODING 21930
SWIDTH 1040 0
DWIDTH 13 0
BBX 13 13 0 -2
BITMAP
0700
FFF8
0700
7B70
6B50
7B70
0700
FFF8
F630
3630
3760
33C0
FE70
ENDCHAR
STARTCHAR 55AB
ENCODING 21931
SWIDTH 1040 0
DWIDTH 13 0
BBX 13 13 0 -2
BITMAP
0700
FFF8
D768
DFA8
D758
DFB0
D7E0
D380
D3F8
FFF8
0740
0E60
3838
ENDCHAR
STARTCHAR 55AC
ENCODING 21932
SWIDTH 1040 0
DWIDTH 13 0
BBX 13 13 0 -2
BITMAP
03E0
3F00
0700
FFF0
1FC0
38E0
EFD8
7FF0
6FD0
6FD0
68D0
6FD0
6070
ENDCHAR
STARTCHAR 55AE
ENCODING 21934
SWIDTH 1040 0
DWIDTH 13 0
BBX 13 13 0 -2
BITMAP
7EF0
6EB0
7EF0
3FE0
3760
3FE0
3760
3FE0
3F00
0700
FFF8
0700
0700
ENDCHAR
STARTCHAR 55B0
ENCODING 21936
SWIDTH 1040 0
DWIDTH 13 0
BBX 13 13 0 -2
BITMAP
0380
0740
F7E0
D830
D7E8
D660
D7E0
D7E0
D6B0
D6B0
F6E0
0F70
3E18
ENDCHAR
STARTCHAR 55B6
ENCODING 21942
SWIDTH 1040 0
DWIDTH 13 0
BBX 13 13 0 -2
BITMAP
3660
1B40
FFF8
C018
DFD8
30C0
3FC0
0E00
0FE0
7FE0
6060
6060
7FE0
ENDCHAR
STARTCHAR 55C4
ENCODING 21956
SWIDTH 1040 0
DWIDTH 13 0
BBX 13 12 0 -2
BITMAP
1FF8
F380
D7F0
D630
D7F0
D630
D7F0
D7F0
D3F0
F760
07E0
3E38
ENDCHAR
STARTCHAR 55C5
ENCODING 21957
SWIDTH 1040 0
DWIDTH 13 0
BBX 13 13 0 -2
BITMAP
0380
F7F0
D630
D7F0
D630
D7F0
D630
D7F0
D7D0
F0D0
3FF8
07A0
1E38
ENDCHAR
STARTCHAR 55C7
ENCODING 21959
SWIDTH 1040 0
DWIDTH 13 0
BBX 13 13 0 -2
BITMAP
0700
7FF0
3760
3760
6B50
FFF8
0000
7FF0
68D0
68D0
6FD0
6030
7FF0
ENDCHAR
STARTCHAR 55D4
ENCODING 21972
SWIDTH 1040 0
DWIDTH 13 0
BBX 13 13 0 -2
BITMAP
0738
07E0
F718
D3F8
D6B0
D6F0
D6B0
D6F0
D6B0
D6B0
F7F8
0730
1E18
ENDCHAR
STARTCHAR 55DA
ENCODING 21978
SWIDTH 1040 0
DWIDTH 13 0
BBX 13 13 0 -2
BITMAP
0380
F7E0
D660
D660
D7E0
D600
D7F8
F600
F7F8
0FF8
1B58
1BA8
3070
ENDCHAR
STARTCHAR 55DC
ENCODING 21980
SWIDTH 1040 0
DWIDTH 13 0
BBX 13 13 0 -2
BITMAP
00C0
0FF8
F0D0
DFF8
D3B0
D7E0
DE98
D7F8
D630
D630
F7F0
0E30
0FF0
ENDCHAR
STARTCHAR 55DF
ENCODING 21983
SWIDTH 1040 0
DWIDTH 13 0
BBX 13 13 0 -2
BITMAP
0730
03A0
F7F8
D0C0
D7F0
D0C0
DFF8
D700
D7F0
F7F0
18C0
30C0
0FF8
ENDCHAR
STARTCHAR 55E3
ENCODING 21987
SWIDTH 1040 0
DWIDTH 13 0
BBX 13 12 0 -2
BITMAP
FFF8
CE18
FEE8
0018
FEE8
D6A8
D6A8
D6A8
FEA8
D6E8
D618
D638
ENDCHAR
STARTCHAR 55E4
ENCODING 21988
SWIDTH 1040 0
DWIDTH 13 0
BBX 13 13 0 -2
BITMAP
0380
1BB0
FFF0
D700
DFF8
D380
D7F0
D6B0
D6B0
D7F0
F3A0
03F0
1F18
ENDCHAR
STARTCHAR 55F7
ENCODING 22007
SWIDTH 1040 0
DWIDTH 13 0
BBX 13 13 0 -2
BITMAP
0760
0760
FFA0
D778
DFD8
D758
DFA8
D668
D7F8
D7B0
F6B0
1BD8
3788
ENDCHAR
STARTCHAR 55F9
ENCODING 22009
SWIDTH 1040 0
DWIDTH 13 0
BBX 13 13 0 -2
BITMAP
1860
0EF8
F060
DBF8
D6A8
D3F8
DEA8
D6F8
D6E0
D660
F6F8
1BA0
30F8
ENDCHAR
STARTCHAR 55FD
ENCODING 22013
SWIDTH 1040 0
DWIDTH 13 0
BBX 13 13 0 -2
BITMAP
0EC0
1FC0
F6F0
DFD0
D6B0
D6A0
DFA0
D760
D760
FEE0
36D0
6EB0
0F18
ENDCHAR
STARTCHAR 55FE
ENCODING 22014
SWIDTH 1040 0
DWIDTH 13 0
BBX 13 13 0 -2
BITMAP
0760
0760
FFB8
D6D0
D6B8
D7D0
D6B0
D6F8
D6B0
F6B0
1BB0
33A8
0F48
ENDCHAR
STARTCHAR 5606
ENCODING 22022
SWIDTH 1040 0
DWIDTH 13 0
BBX 13 13 0 -2
BITMAP
0760
1FF8
F760
D7F8
D6D8
D7F8
D0C0
D7F8
D7C0
F0C0
CFF8
07B0
1E18
ENDCHAR
STARTCHAR 5609
ENCODING 22025
SWIDTH 1040 0
DWIDTH 13 0
BBX 13 13 0 -2
BITMAP
0700
FFF8
0700
3FE0
3060
7FF0
0EC0
FFF8
F800
1800
FEF8
3698
EEF8
ENDCHAR
STARTCHAR 5614
ENCODING 22036
SWIDTH 1040 0
DWIDTH 13 0
BBX 13 12 0 -2
BITMAP
0FF8
F600
D6F0
D6B0
D6F0
D600
D7F8
D768
D768
F7F8
0E00
0FF8
ENDCHAR
STARTCHAR 5616
ENCODING 22038
SWIDTH 1040 0
DWIDTH 13 0
BBX 13 13 0 -2
BITMAP
0380
1FF0
F380
D7F0
D380
DFF8
D660
D7E0
D660
D660
F7E0
0760
1E30
ENDCHAR
STARTCHAR 5617
ENCODING 22039
SWIDTH 1040 0
DWIDTH 13 0
BBX 13 13 0 -2
BITMAP
3760
1B40
FFF8
D8D8
EFE8
7F80
6018
3FF8
3060
3060
3FE0
3060
3FE0
ENDCHAR
STARTCHAR 5618
ENCODING 22040
SWIDTH 1040 0
DWIDTH 13 0
BBX 13 13 0 -2
BITMAP
0380
03F0
F380
D7F8
D680
D7F8
D6B0
D6F0
D6A8
D6A8
F6B0
1BA0
37F8
ENDCHAR
STARTCHAR 561B
ENCODING 22043
SWIDTH 1040 0
DWIDTH 13 0
BBX 13 13 0 -2
BITMAP
0380
3FF8
F000
D660
DFF8
D660
D6A8
F6A8
F6A8
36A8
6EA8
7660
CE60
ENDCHAR
STARTCHAR 5629
ENCODING 22057
SWIDTH 1040 0
DWIDTH 13 0
BBX 13 13 0 -2
BITMAP
0E60
3FF8
F660
DFF0
D6A0
DFF8
D6A0
DFF0
D380
F380
3FF8
0380
0380
ENDCHAR
STARTCHAR 562F
ENCODING 22063
SWIDTH 1040 0
DWIDTH 13 0
BBX 13 13 0 -2
BITMAP
0380
0FF0
F3B0
D7F8
D3B0
D7F0
D6A8
DEB8
DEB8
FFF8
1B98
1EB8
36A8
ENDCHAR
STARTCHAR 5631
ENCODING 22065
SWIDTH 1040 0
DWIDTH 13 0
BBX 13 12 0 -2
BITMAP
0FF8
F608
D7F8
D678
D6F8
D6A8
D7F8
D750
F750
1B70
1BD0
3738
ENDCHAR
STARTCHAR 5632
ENCODING 22066
SWIDTH 1040 0
DWIDTH 13 0
BBX 13 13 0 -2
BITMAP
0700
FFF8
D768
D7E8
D6F8
D7E8
D6E8
D7F8
D768
F768
DFD8
0758
07B8
ENDCHAR
STARTCHAR 5634
ENCODING 22068
SWIDTH 1040 0
DWIDTH 13 0
BBX 13 13 0 -2
BITMAP
0740
1BF8
FB40
DFB8
D3F0
D760
D7F8
D6D8
D6D8
D7F8
F6D8
0FF8
1818
ENDCHAR
STARTCHAR 5636
ENCODING 22070
SWIDTH 1040 0
DWIDTH 13 0
BBX 13 13 0 -2
BITMAP
0E98
0EB0
FFE0
D6A0
D7B8
D6A8
D7A8
D6A8
D6A8
DFE8
F7A8
0ED8
1B98
ENDCHAR
STARTCHAR 5638
ENCODING 22072
SWIDTH 1040 0
DWIDTH 13 0
BBX 13 13 0 -2
BITMAP
0E00
0E00
F7F8
DED0
D6D0
DFF8
D6D0
D6D0
D6D8
DFF8
F000
1B50
3768
ENDCHAR
STARTCHAR 5642
ENCODING 22082
SWIDTH 1040 0
DWIDTH 13 0
BBX 13 13 0 -2
BITMAP
0E60
1FF8
F740
DFF0
DB50
DEF0
DFF0
D060
D078
DFF8
F660
0760
00E0
ENDCHAR
STARTCHAR 564C
ENCODING 22092
SWIDTH 1040 0
DWIDTH 13 0
BBX 13 13 0 -2
BITMAP
0730
03A0
F7F8
D6D8
D7F8
D6D8
D7F8
D730
D730
F7F0
0730
0730
07F0
ENDCHAR
STARTCHAR 564E
ENCODING 22094
SWIDTH 1040 0
DWIDTH 13 0
BBX 13 13 0 -2
BITMAP
0380
0FF0
F380
DFF8
D818
D7F0
D000
D7F0
D630
D630
F7F0
0760
1FF8
ENDCHAR
STARTCHAR 5650
ENCODING 22096
SWIDTH 1040 0
DWIDTH 13 0
BBX 13 12 0 -2
BITMAP
7EF0
6EB0
7EF0
0000
7FF0
0700
FFF8
FFF8
0000
7EF0
6EB0
7EF0
ENDCHAR
STARTCHAR 565B
ENCODING 22107
SWIDTH 1040 0
DWIDTH 13 0
BBX 13 13 0 -2
BITMAP
00C0
0778
F740
DFF8
D6D8
D758
D6E8
D7F8
D6D8
F6D8
CEE8
0F58
0FF8
ENDCHAR
STARTCHAR 5664
ENCODING 22116
SWIDTH 1040 0
DWIDTH 13 0
BBX 13 13 0 -2
BITMAP
0760
1FF8
F760
D7B0
DB68
D768
D7F0
D000
DFF8
DFF8
F6D0
18D8
03C0
ENDCHAR
STARTCHAR 5668
ENCODING 22120
SWIDTH 1040 0
DWIDTH 13 0
BBX 13 12 0 -2
BITMAP
7EF0
6EB0
7EF0
0700
FFF8
0E80
38E0
3EF8
FEF8
6EB0
6EB0
7EF0
ENDCHAR
STARTCHAR 566A
ENCODING 22122
SWIDTH 1040 0
DWIDTH 13 0
BBX 13 13 0 -2
BITMAP
07F0
0730
F7F0
D7B8
D6A8
D7B8
D0C0
DFF8
D3E0
D3E0
F750
1ED8
00C0
ENDCHAR
STARTCHAR 566B
ENCODING 22123
SWIDTH 1040 0
DWIDTH 13 0
BBX 13 13 0 -2
BITMAP
0380
0FF0
F760
DFF8
D630
D7F0
D630
D7F0
D7C0
D0C0
FB50
1B38
33F0
ENDCHAR
STARTCHAR 566C
ENCODING 22124
SWIDTH 1040 0
DWIDTH 13 0
BBX 13 13 0 -2
BITMAP
0E60
0FB8
FB50
D730
DFF8
D0C0
D6A0
D6A0
DAD0
FBD0
1B98
3380
3FF8
ENDCHAR
STARTCHAR 5674
ENCODING 22132
SWIDTH 1040 0
DWIDTH 13 0
BBX 13 13 0 -2
BITMAP
0380
1FF0
F6A0
DFF8
D760
D7F0
D630
D7F0
D630
D630
F7F0
0730
1E18
ENDCHAR
STARTCHAR 5678
ENCODING 22136
SWIDTH 1040 0
DWIDTH 13 0
BBX 13 13 0 -2
BITMAP
0700
F778
DFE0
D778
DB68
DB78
DFE8
DB78
D368
F768
C778
07A8
00C8
ENDCHAR
STARTCHAR 567A
ENCODING 22138
SWIDTH 1040 0
DWIDTH 13 0
BBX 13 13 0 -2
BITMAP
0E30
3FE0
FB40
DB40
DFF8
D6D0
DFD0
D6D0
D750
FF50
36D0
6EB0
0F30
ENDCHAR
STARTCHAR 5680
ENCODING 22144
SWIDTH 1040 0
DWIDTH 13 0
BBX 13 13 0 -2
BITMAP
0380
1FF8
FB18
D750
D6E8
D800
D7F8
D6A8
D6A8
DFF8
F060
0060
00E0
ENDCHAR
STARTCHAR 5686
ENCODING 22150
SWIDTH 1040 0
DWIDTH 13 0
BBX 13 13 0 -2
BITMAP
0760
1FF8
F760
D0C0
DFF8
D730
D7F0
D000
DFF8
FFF8
1B68
1BE8
1838
ENDCHAR
STARTCHAR 5687
ENCODING 22151
SWIDTH 1040 0
DWIDTH 13 0
BBX 13 13 0 -2
BITMAP
0730
F730
D7B8
D730
DFF8
D750
D758
D7F8
DBF0
FBF0
DB50
3750
07B0
ENDCHAR
STARTCHAR 568A
ENCODING 22154
SWIDTH 1040 0
DWIDTH 13 0
BBX 13 13 0 -2
BITMAP
00C0
07F0
F730
D7F0
D730
D7F8
D6D8
D7F8
D6D8
F6D8
3FF8
0730
0E30
ENDCHAR
STARTCHAR 568F
ENCODING 22159
SWIDTH 1040 0
DWIDTH 13 0
BBX 13 13 0 -2
BITMAP
0380
1FF0
F380
DFF8
D6A8
D7E0
D6A0
FFF8
FB98
1B98
1BE0
3780
63F8
ENDCHAR
STARTCHAR 5694
ENCODING 22164
SWIDTH 1040 0
DWIDTH 13 0
BBX 13 13 0 -2
BITMAP
0380
1FF0
F380
DFF8
D6A8
D7E0
D730
FFE8
FB88
1B98
1BE0
3780
63F8
ENDCHAR
STARTCHAR 56A0
ENCODING 22176
SWIDTH 1040 0
DWIDTH 13 0
BBX 13 13 0 -2
BITMAP
0E18
1BE8
FB68
DEE8
D768
D6A8
DFE8
D768
D768
DFE8
FB58
0FD8
3E38
ENDCHAR
STARTCHAR 56A2
ENCODING 22178
SWIDTH 1040 0
DWIDTH 13 0
BBX 13 13 0 -2
BITMAP
0700
FFF8
3760
FFF8
D8D8
7FE0
18C0
FFF8
FB30
3B30
6BA0
DF60
7838
ENDCHAR
STARTCHAR 56A5
ENCODING 22181
SWIDTH 1040 0
DWIDTH 13 0
BBX 13 13 0 -2
BITMAP
0740
1FF8
F740
D7C0
D668
DFF0
D760
D768
D768
FFE8
0E38
1B50
3768
ENDCHAR
STARTCHAR 56AE
ENCODING 22190
SWIDTH 1040 0
DWIDTH 13 0
BBX 13 13 0 -2
BITMAP
37B8
EFA8
76B0
6FA8
F668
37B8
6E60
7FF8
6FD8
6FD8
6ED8
6FD8
6038
ENDCHAR
STARTCHAR 56B4
ENCODING 22196
SWIDTH 1040 0
DWIDTH 13 0
BBX 13 13 0 -2
BITMAP
3EE0
36A0
7FF0
60C0
6F40
6EF0
7FB0
6B50
6B70
6F60
6B60
DF50
C798
ENDCHAR
STARTCHAR 56B6
ENCODING 22198
SWIDTH 1040 0
DWIDTH 13 0
BBX 13 13 0 -2
BITMAP
1F70
1B50
FF70
DB50
DF70
DB50
DF70
D398
D398
DFF8
F760
03C0
1F70
ENDCHAR
STARTCHAR 56BC
ENCODING 22204
SWIDTH 1040 0
DWIDTH 13 0
BBX 13 13 0 -2
BITMAP
0070
1FD0
F6D8
DFF8
D758
DFF8
D730
DFF8
D3B0
F3B0
3ED0
3F30
3070
ENDCHAR
STARTCHAR 56C0
ENCODING 22208
SWIDTH 1040 0
DWIDTH 13 0
BBX 13 13 0 -2
BITMAP
0E60
3FF8
F660
DFF8
D6A8
DFF8
D6A8
DFF0
D630
F630
3FF8
0ED0
0E70
ENDCHAR
STARTCHAR 56C1
ENCODING 22209
SWIDTH 1040 0
DWIDTH 13 0
BBX 13 13 0 -2
BITMAP
0FF0
0760
F7E0
D760
DFF0
D060
DFF8
DB50
DB50
FF70
1B58
3FF0
0730
ENDCHAR
ENDFONT
